<svg width="119" height="82" viewBox="0 0 119 82" fill="none" xmlns="http://www.w3.org/2000/svg">
<g clip-path="url(#clip0_95_129)">
<path d="M1.67621 54.9819L1.68566 54.9648L1.69442 54.9472C2.96201 52.4121 6.17155 51.0586 9.09249 51.6782C11.8915 52.272 13.9501 54.8545 14.4083 57.8301C14.7481 60.9701 12.9083 64.0602 9.98856 65.3886C8.70311 65.9642 7.14841 66.2053 5.72705 65.9866C4.31583 65.7695 3.09768 65.1138 2.33646 63.952L2.32804 63.9391L2.31923 63.9265C1.79995 63.1847 1.63397 62.1872 1.87014 61.2425L1.95986 60.8837L1.79442 60.5528C0.903957 58.7719 0.771011 56.6277 1.67621 54.9819Z" stroke="#1E1C2A" stroke-width="2"/>
<path d="M36.8363 12.1419L36.8364 12.1419L36.8451 12.1387C43.061 9.85341 50.287 13.7938 52.1387 20.1756C53.9118 26.4332 50.8066 33.3495 44.6753 35.4543L44.6749 35.4544C38.7097 37.505 31.4442 34.6695 29.349 28.5847C28.5275 26.0205 28.7182 23.1898 29.8015 20.9328L29.8666 20.7972L29.8889 20.6485C30.4383 16.986 33.0085 13.509 36.8363 12.1419Z" stroke="#1E1C2A" stroke-width="2"/>
<path d="M46.8453 53.232L46.9696 53.3149L47.1127 53.3578C47.7207 53.5402 48.3201 54.133 48.6479 55.0084C49.0773 56.5734 48.2725 58.1265 46.893 58.938L46.7937 58.9964L46.7103 59.0758C45.0125 60.6928 42.3657 60.471 41.143 58.562C40.0147 56.7877 40.4327 54.5754 42 53.3999C42.0083 53.3938 42.0633 53.3592 42.2073 53.3454C42.3485 53.332 42.5225 53.3443 42.7039 53.3805L43.1287 53.4655L43.4812 53.2137C43.973 52.8624 44.5553 52.7 45.3 52.7C45.8398 52.7 46.3482 52.9006 46.8453 53.232Z" stroke="#1E1C2A" stroke-width="2"/>
<path d="M73.3862 32.9061C73.7469 33.7177 73.8816 34.1642 73.7238 34.6807C73.6975 34.7173 73.6799 34.7468 73.672 34.7602C73.6323 34.8275 73.6035 34.8948 73.5942 34.9166L73.5934 34.9186C73.5488 35.0225 73.4832 35.1973 73.4046 35.4263C73.3707 35.4784 73.3457 35.524 73.3284 35.5574L73.3229 35.5629L73.268 35.6453C72.8231 36.3125 72.1485 36.7808 71.3605 37.0275C70.7426 37.1343 70.199 36.8716 69.948 36.47L69.9402 36.4575L69.9321 36.4453C69.4367 35.7022 69.5901 34.524 70.3071 33.8071L70.4603 33.6539L70.5363 33.4511C70.7109 32.9855 71.1441 32.574 71.7161 32.3497C71.9651 32.2846 72.3498 32.3003 72.7333 32.4398C73.1463 32.59 73.3389 32.7996 73.3862 32.9061ZM73.2978 35.6177C73.2978 35.6176 73.2985 35.6164 73.2998 35.6141C73.2984 35.6166 73.2978 35.6178 73.2978 35.6177ZM73.6285 35.6761L74.0687 35.8229C74.1272 35.8678 74.1913 35.9092 74.2611 35.9449C74.235 35.9799 74.2175 36.0149 74.2 36.05C74.1796 36.0909 74.1591 36.1318 74.125 36.1726C74.0865 36.1552 74.049 36.1352 74.0129 36.1129C73.9224 36.057 73.8402 35.9862 73.7702 35.902C73.7385 35.864 73.7114 35.8257 73.6883 35.7882C73.6644 35.7496 73.6448 35.7119 73.6285 35.6761ZM73.5706 35.0227C73.5706 35.0227 73.5706 35.0227 73.5706 35.0227L73.5706 35.0227ZM73.5452 35.1567C73.5468 35.1423 73.5487 35.1284 73.5508 35.1154C73.5584 35.1353 73.5702 35.1641 73.5864 35.1994C73.5699 35.2161 73.5543 35.2328 73.5394 35.2495C73.54 35.2019 73.5438 35.1689 73.545 35.1587C73.545 35.1579 73.5451 35.1572 73.5452 35.1567ZM73.5701 35.0237L73.5701 35.0237L73.5701 35.0237Z" stroke="#1E1C2A" stroke-width="2"/>
<path d="M104.915 50.3231L104.915 50.3231L104.921 50.3253C109.762 52.3102 114.095 55.8209 116.197 59.9418C117.241 61.9892 117.728 64.1724 117.483 66.4046C117.237 68.634 116.252 70.9825 114.238 73.3521C107.054 81.7805 92.9779 83.1921 85.5568 74.6463C80.9697 69.3086 80.9763 61.7294 84.8017 56.5977L84.884 56.4874L84.9333 56.359C86.3016 52.8015 89.2469 50.466 92.8993 49.4241C96.5641 48.3787 100.907 48.6529 104.915 50.3231Z" stroke="#1E1C2A" stroke-width="2"/>
<path d="M105.337 2.12664L105.337 2.12668L105.345 2.13209C109.309 4.77479 109.849 10.6179 106.408 13.9783C103.259 16.9454 97.7285 16.2183 95.565 12.4982C94.6468 10.9116 94.6268 8.95504 95.4119 7.21041L95.4962 7.02318L95.4998 6.8179C95.5841 2.10141 101.22 -0.676665 105.337 2.12664Z" stroke="#1E1C2A" stroke-width="2"/>
</g>
<defs>
<clipPath id="clip0_95_129">
<rect width="118.6" height="81.4" fill="white"/>
</clipPath>
</defs>
</svg>
