<svg width="101" height="30" viewBox="0 0 101 30" fill="none" xmlns="http://www.w3.org/2000/svg">
<g clip-path="url(#clip0_95_137)">
<path d="M98.2993 8.91162C81.4286 9.18373 64.5578 9.65992 47.6871 10.4082C57.7551 8.97964 67.7551 7.55107 77.7551 6.1225C80 5.78237 79.3197 2.51706 77.2789 2.31298C55.1701 0.272161 32.9252 -0.68022 10.7483 0.54427C9.38776 0.612297 9.31973 2.65311 10.7483 2.72114C27.2789 2.92522 43.8095 3.40141 60.2721 4.6259C40.6803 7.27896 21.0884 10.1361 1.4966 12.8572C-0.748293 13.1973 -0.272103 16.9388 1.9728 16.8028C27.2789 15.3062 52.6531 14.4218 78.0272 14.0137C57.1429 18.8436 35.9864 22.5171 14.6259 24.762C11.6327 25.1021 11.4286 29.5239 14.5578 29.5239C32.9252 29.6599 51.3605 29.864 69.7279 30.0001C72.9252 30.0001 72.9932 25.0341 69.7959 24.966C62.585 24.966 55.4422 24.898 48.2313 24.898C65.3061 21.9728 82.1769 18.2994 98.8435 13.6055C101.429 12.9252 101.02 8.91162 98.2993 8.91162Z" fill="#1E1C2A"/>
</g>
<defs>
<clipPath id="clip0_95_137">
<rect width="100.544" height="30" fill="white"/>
</clipPath>
</defs>
</svg>
