<svg width="62" height="30" viewBox="0 0 62 30" fill="none" xmlns="http://www.w3.org/2000/svg">
<path d="M60.2925 20.7595H56.4548C55.854 20.7595 55.3674 20.273 55.3674 19.6721V10.2104C55.3674 9.60957 55.854 9.12305 56.4548 9.12305H60.2925C60.8934 9.12305 61.3799 9.60957 61.3799 10.2104V19.6721C61.3799 20.273 60.8934 20.7595 60.2925 20.7595Z" fill="#1E1C2A"/>
<path d="M4.92508 20.7595H1.08738C0.48654 20.7595 0 20.273 0 19.6721V10.2104C0 9.60957 0.48654 9.12305 1.08738 9.12305H4.92508C5.52592 9.12305 6.01246 9.60957 6.01246 10.2104V19.6721C6.01145 20.273 5.52491 20.7595 4.92508 20.7595Z" fill="#1E1C2A"/>
<path d="M43.5074 0H17.8725C9.66201 0 3.00623 6.65581 3.00623 14.8663V15.017C3.00623 23.2275 9.66201 29.8833 17.8725 29.8833H24.4919C25.4326 29.8833 26.3015 29.3815 26.7718 28.5673L28.9698 24.7599C29.7346 23.4358 31.6443 23.4358 32.409 24.7599L34.607 28.5673C35.0774 29.3815 35.9463 29.8833 36.887 29.8833H43.5064C51.7168 29.8833 58.3726 23.2275 58.3726 15.017V14.8663C58.3736 6.65581 51.7179 0 43.5074 0Z" fill="#E55E04"/>
<path d="M36.6635 26.3097L35.0238 23.4693C34.1205 21.9045 32.4728 20.8495 30.6662 20.8576C28.9072 20.8657 27.3322 21.7791 26.4522 23.3044L24.7427 26.2641C24.4899 26.7031 24.0215 26.9732 23.5148 26.9732H17.8735C11.2693 26.9732 5.91638 21.6203 5.91638 15.0161V14.8654C5.91638 8.26117 11.2693 2.9082 17.8735 2.9082H43.5084C50.1126 2.9082 55.4655 8.26218 55.4655 14.8654V15.0161C55.4655 21.6203 50.1116 26.9732 43.5084 26.9732H37.8156C37.3392 26.9742 36.9002 26.7213 36.6635 26.3097Z" fill="#E55E04"/>
<path d="M37.8146 25.8333C37.7468 25.8333 37.6851 25.7979 37.6518 25.7393L36.0121 22.8989C34.8782 20.9356 32.8379 19.7167 30.6864 19.7167C28.4904 19.7278 26.5473 20.8546 25.463 22.734L23.7535 25.6947C23.7039 25.7797 23.6129 25.8333 23.5138 25.8333H17.8725C11.9086 25.8333 7.0564 20.9811 7.0564 15.0172V14.8665C7.0564 8.90257 11.9086 4.05029 17.8725 4.05029H43.5084C49.4723 4.05029 54.3246 8.90257 54.3246 14.8665V15.0172C54.3246 20.9811 49.4723 25.8333 43.5084 25.8333H37.8146Z" fill="white"/>
</svg>
