<svg width="146" height="34" viewBox="0 0 146 34" fill="none" xmlns="http://www.w3.org/2000/svg">
<g clip-path="url(#clip0_95_165)">
<path d="M14.6068 16.9305C10.1702 17.2789 5.80178 18.115 1.43338 18.6723C-0.409538 18.951 -0.546051 21.8773 1.43338 21.7379C5.80178 21.4592 10.2384 21.4592 14.6068 21.0412C17.2006 20.7625 17.2006 16.6519 14.6068 16.9305Z" fill="#1E1C2A"/>
<path d="M43.3427 16.5823C38.4965 17.1397 33.582 17.2093 28.7359 17.8364C26.9612 18.0454 26.8247 20.6233 28.7359 20.7626C33.582 21.0413 38.4965 20.8323 43.3427 21.111C46.2777 21.2503 46.1412 16.2339 43.3427 16.5823Z" fill="#1E1C2A"/>
<path d="M72.0785 16.8607C67.3689 16.373 62.2497 17.1394 57.4717 17.2787C55.4923 17.3484 55.4923 20.414 57.4717 20.4836C62.2497 20.623 67.3689 21.3894 72.0785 20.9017C74.604 20.623 74.604 17.0697 72.0785 16.8607Z" fill="#1E1C2A"/>
<path d="M94.6713 15.8851C90.0982 16.0245 85.525 16.6515 81.0201 16.9999C79.2454 17.1392 79.1772 19.8564 81.0201 19.9261C85.525 19.9958 90.1664 20.2745 94.6713 20.1351C97.3333 20.0655 97.3333 15.7458 94.6713 15.8851Z" fill="#1E1C2A"/>
<path d="M116.309 14.7011C113.032 14.9798 109.756 15.1888 106.411 15.2585C104.295 15.3282 104.295 18.5331 106.411 18.6725C109.688 18.8118 113.032 18.9511 116.309 19.2298C119.175 19.4388 119.175 14.4225 116.309 14.7011Z" fill="#1E1C2A"/>
<path d="M132.349 0.766505C131.803 -0.348249 130.233 -0.0695603 129.687 0.836177C129.072 1.11487 128.595 1.67224 128.663 2.57798C129.141 12.3321 129.687 22.0165 130.096 31.7706C130.165 34.1395 133.031 34.7665 134.328 32.955C137.946 27.7296 146.341 23.7583 146 16.4427C145.59 8.15175 135.557 7.037 132.349 0.766505ZM134.26 26.4059C133.782 19.996 133.373 13.5165 132.895 7.10667C133.031 7.24601 133.168 7.38536 133.304 7.45503C135.625 9.61487 139.243 11.078 140.744 14.1436C142.792 18.4632 138.151 22.6436 134.26 26.4059Z" fill="#1E1C2A"/>
</g>
<defs>
<clipPath id="clip0_95_165">
<rect width="146" height="34" fill="white"/>
</clipPath>
</defs>
</svg>
