<svg width="106" height="92" viewBox="0 0 106 92" fill="none" xmlns="http://www.w3.org/2000/svg">
<path d="M104.637 31.7915H1V77.4712H104.637V31.7915Z" stroke="#1E1C2A" stroke-width="2" stroke-miterlimit="10" stroke-linecap="round" stroke-linejoin="round"/>
<path d="M21.8747 31.7915L1.4856 72.8818" stroke="#1E1C2A" stroke-width="2" stroke-miterlimit="10" stroke-linecap="round" stroke-linejoin="round"/>
<path d="M47.1275 31.7915L24.0522 77.4712" stroke="#1E1C2A" stroke-width="2" stroke-miterlimit="10" stroke-linecap="round" stroke-linejoin="round"/>
<path d="M71.3734 31.7915L48.2955 77.4712" stroke="#1E1C2A" stroke-width="2" stroke-miterlimit="10" stroke-linecap="round" stroke-linejoin="round"/>
<path d="M95.6169 31.7915L72.5392 77.4712" stroke="#1E1C2A" stroke-width="2" stroke-miterlimit="10" stroke-linecap="round" stroke-linejoin="round"/>
<path d="M30.9857 12.9229C32.3451 15.2239 31.5294 18.1593 29.163 19.4835C26.7965 20.8052 23.7756 20.0122 22.4136 17.7137C21.0542 15.4127 21.8674 12.4774 24.2363 11.1532C26.6028 9.83152 29.6237 10.6245 30.9857 12.9229Z" stroke="#1E1C2A" stroke-width="2" stroke-miterlimit="10" stroke-linecap="round" stroke-linejoin="round"/>
<path d="M26.2653 1V9.5645" stroke="#1E1C2A" stroke-width="2" stroke-miterlimit="10" stroke-linecap="round" stroke-linejoin="round"/>
<path d="M26.2653 20.5757V29.1402" stroke="#1E1C2A" stroke-width="2" stroke-miterlimit="10" stroke-linecap="round" stroke-linejoin="round"/>
<path d="M26.2653 79.377V91.0002" stroke="#1E1C2A" stroke-width="2" stroke-miterlimit="10" stroke-linecap="round" stroke-linejoin="round"/>
<path d="M83.2234 12.9229C84.5828 15.2239 83.7671 18.1593 81.4006 19.4835C79.0342 20.8052 76.0132 20.0122 74.6513 17.7137C73.2918 15.4127 74.1051 12.4774 76.474 11.1532C78.8404 9.83152 81.8614 10.6245 83.2234 12.9229Z" stroke="#1E1C2A" stroke-width="2" stroke-miterlimit="10" stroke-linecap="round" stroke-linejoin="round"/>
<path d="M78.5029 1V9.5645" stroke="#1E1C2A" stroke-width="2" stroke-miterlimit="10" stroke-linecap="round" stroke-linejoin="round"/>
<path d="M78.5029 20.5757V29.1402" stroke="#1E1C2A" stroke-width="2" stroke-miterlimit="10" stroke-linecap="round" stroke-linejoin="round"/>
<path d="M78.5029 79.377V91.0002" stroke="#1E1C2A" stroke-width="2" stroke-miterlimit="10" stroke-linecap="round" stroke-linejoin="round"/>
</svg>
