<svg width="203" height="232" viewBox="0 0 203 232" fill="none" xmlns="http://www.w3.org/2000/svg">
<path d="M59.0462 115.375H56.5249V117.897H59.0462V115.375ZM55.9271 114.191H59.644H60.2417V114.789V118.505V119.103H59.644H55.9271H55.3294V118.505V114.789V114.191H55.9271ZM50.0584 115.375H47.537V117.897H50.0584V115.375ZM46.9392 114.191H50.6561H51.2538V114.789V118.505V119.103H50.6561H46.9392H46.3415V118.505V114.789V114.191H46.9392ZM41.0813 115.375H38.5599V117.897H41.0813V115.375ZM37.9513 114.191H41.6682H42.2659V114.789V118.505V119.103H41.6682H37.9513H37.3536V118.505V114.789V114.191H37.9513ZM32.0934 115.375H29.5612V117.897H32.0826V115.375H32.0934ZM28.9634 114.191H32.6803H33.278V114.789V118.505V119.103H32.6803H28.9634H28.3657V118.505V114.789V114.191H28.9634ZM59.0462 104.529H56.5249V107.051H59.0462V104.529ZM55.9271 103.345H59.644H60.2417V103.942V107.659V108.257H59.644H55.9271H55.3294V107.659V103.942V103.345H55.9271ZM50.0584 104.529H47.537V107.051H50.0584V104.529ZM46.9392 103.345H50.6561H51.2538V103.942V107.659V108.257H50.6561H46.9392H46.3415V107.659V103.942V103.345H46.9392ZM41.0813 104.529H38.5599V107.051H41.0813V104.529ZM37.9513 103.345H41.6682H42.2659V103.942V107.659V108.257H41.6682H37.9513H37.3536V107.659V103.942V103.345H37.9513ZM32.0934 104.529H29.5612V107.051H32.0826V104.529H32.0934ZM28.9634 103.345H32.6803H33.278V103.942V107.659V108.257H32.6803H28.9634H28.3657V107.659V103.942V103.345H28.9634ZM178.258 224.382H162.217V230.697H178.258V224.382ZM133.688 224.382H117.343V230.697H133.688V224.382ZM40.3966 224.382H22.2796V230.697H40.3858V224.382H40.3966ZM66.8495 183.507H56.1553V213.927H66.8495V183.507ZM86.3143 183.507H75.6201V213.927H86.3143V183.507ZM74.5767 215.123V216.699H87.3576V215.123H86.912H75.0223H74.5767ZM87.3467 180.747H74.5767V182.323H75.0223H86.912H87.3576V180.747H87.3467ZM73.979 179.551H87.9445H88.5422V180.149V217.285V217.883H87.9445H73.979H73.3812V217.285V180.149V179.551H73.979ZM55.112 215.123V216.699H67.8929V215.123H67.4473H55.5576H55.112ZM67.8929 180.747H55.112V182.323H55.5576H67.4473H67.8929V180.747ZM54.5251 179.551H68.4906H69.0884V180.149V217.285V217.883H68.4906H54.5251H53.9274V217.285V180.149V179.551H54.5251ZM91.5092 175.845H10.4007V176.443H91.5092V175.845ZM91.5092 172.129H10.4007V172.726H91.5092V172.129ZM91.5092 168.412H10.4007V169.009H91.5092V168.412ZM91.5092 164.695H10.4007V165.293H91.5092V164.695ZM91.5092 160.989H10.4007V161.587H91.5092V160.989ZM187.757 162.173H102.801V223.198H116.158H116.756H134.286H134.884H161.032H161.63H178.867H179.465H187.779V162.173H187.757ZM192.811 157.717H96.552V223.198H101.617V161.587V160.989H102.214H188.365H188.963V161.587V223.198H192.821V157.717H192.811ZM45.7437 181.486H22.2796V223.198H40.9835H41.5813H45.7437V181.486ZM134.873 230.697H161.021V224.382H134.873V230.697ZM21.0949 224.382H10.1182V230.697H21.0949V224.382ZM95.3565 224.382H46.9283H46.3306H41.5813V230.697H116.158V224.382H102.203H101.617H95.9542H95.3565ZM201.168 224.382H194.006H193.408H188.952H188.355H179.443V230.697H201.168V224.382ZM150.175 18.2475L173.052 40.5271L173.237 40.7009V40.9509V74.5224V75.8048L172.259 74.9789L149.382 55.6663L149.175 55.4924V55.2098V18.6714V17.2694L150.175 18.2475ZM172.042 41.2009L150.349 20.0733V54.9381L172.042 73.2508V41.2009ZM95.3565 157.717H10.1182V159.793H92.1069H92.7047V160.391V162.173V162.771H92.1069H10.1182V163.51H92.1069H92.7047V164.108V165.89V166.488H92.1069H10.1182V167.227H92.1069H92.7047V167.825V169.607V170.205H92.1069H10.1182V170.944H92.1069H92.7047V171.542V173.324V173.922H92.1069H10.1182V174.661H92.1069H92.7047V175.259V177.041V177.639H92.1069H10.1182V223.209H21.0949V180.91V180.312H21.6927H46.3415H46.9392V180.91V223.209H95.3674V157.717H95.3565ZM71.0229 51.9494H70.7294V144.056H71.0229V51.9494ZM70.1317 50.7539H71.6206H72.2184V51.3517V144.643V145.241H71.6206H70.1317H69.5339V144.643V51.3517V50.7539H70.1317ZM22.4426 81.3584H21.7035V148.501H22.4426V81.3584ZM87.6619 49.265H68.0559V146.426H87.6619V49.265ZM67.4581 48.0804H88.2596H88.8574V48.6781V147.023V147.621H88.2596H67.4581H66.8604V147.023V48.6781V48.0804H67.4581ZM112.626 108.398H92.7155V146.132H112.626V108.398ZM92.1178 107.203H113.213H113.81V107.8V146.719V147.317H113.213H92.1178H91.5201V146.719V107.8V107.203H92.1178ZM187.344 149.023V118.669L178.432 110.018V149.023H187.344ZM119.005 149.023V101.04H96.7259H96.1281V100.443V42.0594L79.6739 29.1699L64.0456 43.3636V149.023H119.005ZM120.201 100.454V149.034H123.918V77.5002V76.9025H124.516H125.7H126.298V77.5002V149.034H142.491V80.9672L120.212 62.9153V99.8559V100.454H120.201ZM62.8609 150.958V150.219H10.1182V156.533H95.3565H95.9542H193.408H194.006H201.168V150.219H178.443H177.845H143.078H142.48H64.0456V150.958H62.8609ZM26.0182 149.023V101.486V100.888H26.6159H50.9713V85.1514H36.1146H35.5169V84.5536V66.0779L19.3234 79.7717V149.023H20.5081V80.7607V80.1629H21.1058H23.0403H23.6381V80.7607V149.023H26.0182ZM197.755 112.039L195.582 103.605L81.4345 7.78154L10.1182 69.3709V78.7718L81.0324 15.4761L81.4127 15.1392L81.804 15.4653L197.755 112.039ZM145.067 59.6549L178.758 87.9336V36.5602L145.067 2.86917V59.6549ZM196.69 103.127L199.364 113.528L199.82 115.299L198.408 114.126L81.4345 16.7042L10.1182 80.3586V149.023H18.1388V79.5V79.2283L18.3453 79.0544L35.7342 64.339L36.7124 63.513V64.7955V83.9559H50.9713V58.5572H52.1559V83.9559V84.5536V101.486V102.084H51.5581H27.2028V149.023H62.8609V43.1028V42.842L63.0566 42.6681L79.25 27.9636L79.6195 27.6266L80.0108 27.931L97.0954 41.2987L97.3236 41.4834V41.766V99.8559H119.005V61.6763V60.4265L119.973 61.209L143.448 80.2281L143.665 80.402V80.6846V149.023H177.237V108.616V107.214L178.247 108.192L188.355 117.995L188.539 118.169V118.419V149.023H201.766H202.364V149.621V157.12V157.717H201.766H194.006V223.198H201.766H202.364V223.795V231.294V231.892H201.766H179.454H178.856H161.619H161.021H134.873H134.275H116.745H116.147H41.5813H40.9835H21.6927H21.0949H10.1182V232.001H9.52043H0.597744H0V231.403V69.0992V68.5015H0.597744H9.30307L81.0324 6.55345L81.4127 6.22741L81.7931 6.55345L143.872 58.655V1.43459V0L144.882 1.01073L179.758 35.8864L179.932 36.0603V36.3102V88.151H179.008L196.495 102.812L196.636 102.932L196.69 103.127ZM8.93356 69.697H1.18462V230.805H7.73807V223.785V223.187H8.33581H8.93356V157.707V157.109V149.61V149.012V81.4236V69.697Z" fill="white" fill-opacity="0.12"/>
</svg>
