<svg width="137" height="91" viewBox="0 0 137 91" fill="none" xmlns="http://www.w3.org/2000/svg">
<path d="M6.85592 21.4589C9.8326 15.2045 16.1901 10.8702 23.5776 10.8702C30.9652 10.8702 37.3227 15.2045 40.2994 21.4589" stroke="#1E1C2A" stroke-width="2" stroke-miterlimit="10" stroke-linecap="round" stroke-linejoin="round"/>
<path d="M23.8156 10.218C28.4299 4.59476 35.4212 0.999969 43.2657 0.999969C50.5582 0.999969 57.1138 4.10608 61.7096 9.06105" stroke="#1E1C2A" stroke-width="2" stroke-miterlimit="10" stroke-linecap="round" stroke-linejoin="round"/>
<path d="M46.8626 21.459C50.1642 14.5205 57.219 9.71344 65.4121 9.71344C73.6079 9.71344 80.6626 14.5205 83.9642 21.459" stroke="#1E1C2A" stroke-width="2" stroke-miterlimit="10" stroke-linecap="round" stroke-linejoin="round"/>
<path d="M1 21.3641H100.039L71.7299 62.1026H30.5635L1 21.3641Z" stroke="#1E1C2A" stroke-width="2" stroke-miterlimit="10" stroke-linecap="round" stroke-linejoin="round"/>
<path d="M59.06 62.3403L75.2984 75.6548L113.311 19.3646" stroke="#1E1C2A" stroke-width="2" stroke-miterlimit="10" stroke-linecap="round" stroke-linejoin="round"/>
<path d="M131.771 19.3251H116.053C114.243 19.3251 112.762 17.8434 112.762 16.0341C112.762 14.2249 114.243 12.7458 116.053 12.7458H131.771C133.58 12.7458 135.059 14.2249 135.059 16.0341C135.059 17.8434 133.58 19.3251 131.771 19.3251Z" stroke="#1E1C2A" stroke-width="2" stroke-miterlimit="10" stroke-linecap="round" stroke-linejoin="round"/>
<path d="M51.675 72.6915C47.8109 68.8274 41.5353 68.8274 37.658 72.6915C35.8012 74.5483 34.8503 76.9624 34.7816 79.3976C34.6998 82.0309 35.6506 84.7013 37.658 86.7086C41.5327 90.5833 47.8109 90.5833 51.675 86.7086C53.6929 84.7013 54.6465 82.0336 54.5646 79.3976C54.4959 76.9598 53.5318 74.5457 51.675 72.6915Z" stroke="#1E1C2A" stroke-width="2" stroke-miterlimit="10" stroke-linecap="round" stroke-linejoin="round"/>
<path d="M42.5999 81.7828C43.7356 82.9185 45.5871 82.9185 46.744 81.7828C47.8797 80.6259 47.8797 78.7744 46.744 77.6386C45.5871 76.4818 43.7356 76.4818 42.5999 77.6386C41.4668 78.7744 41.4668 80.6259 42.5999 81.7828Z" fill="#1E1C2A"/>
<path d="M44.6729 62.1027V69.7914" stroke="#1E1C2A" stroke-width="2" stroke-miterlimit="10" stroke-linecap="round" stroke-linejoin="round"/>
</svg>
