<svg width="182" height="126" viewBox="0 0 182 126" fill="none" xmlns="http://www.w3.org/2000/svg">
<path d="M66.4283 53.9245L94.9597 29.2493L180.931 73.8453L152.407 98.5207L66.4283 53.9245Z" fill="#FF8D55"/>
<path d="M180.887 73.8475V97.7291L152.362 122.404V98.5227L180.887 73.8475Z" fill="#E55E04"/>
<path d="M66.4283 53.9263V77.808L152.407 122.404V98.5225L66.4283 53.9263Z" fill="#B9520D"/>
<path d="M151.902 97.9707L180.912 73.8391L152.876 99.0802L151.902 97.9707Z" fill="#FFA478"/>
<path d="M66.4283 53.9263L152.746 97.8758L152.067 99.1765L66.4283 53.9263Z" fill="#FFA478"/>
<path d="M63.5932 16.8563L103.892 17.5476L60.6615 89.2215L20.3627 88.5302L63.5932 16.8563Z" fill="#FF8D55"/>
<path d="M103.889 17.5475L114.429 36.4703L79.3879 94.5621L71.1973 108.142L60.6571 89.2189L103.889 17.5475Z" fill="#E55E04"/>
<path d="M20.3561 88.4196L30.8962 107.342L71.1998 108.145L60.6596 89.2224L20.3561 88.4196Z" fill="#B9520D"/>
<path d="M103.894 17.5484L60.4583 88.9168C57.1715 88.8443 53.8811 88.7485 50.5926 88.6959L40.5175 88.5337C37.1589 88.4755 33.8 88.4681 30.4388 88.4337C28.7593 88.4158 27.0808 88.4165 25.3994 88.4122C23.7194 88.4105 22.0381 88.4063 20.36 88.4193C22.0382 88.4982 23.7185 88.5633 25.3948 88.6273C27.0751 88.6922 28.7505 88.7601 30.4311 88.809C33.7903 88.9081 37.1455 89.0349 40.5035 89.1092L50.5794 89.3472C53.8804 89.4277 57.1819 89.4635 60.483 89.5217L63.0549 94.0875L65.7484 98.7858C66.6461 100.352 67.5416 101.919 68.4565 103.476C69.3689 105.034 70.2741 106.596 71.2011 108.146C70.3716 106.542 69.52 104.951 68.6757 103.355C67.834 101.758 66.9727 100.172 66.1138 98.584L63.5372 93.821L61.0269 89.2626L103.894 17.5484Z" fill="#FFA478"/>
</svg>
