<svg width="119" height="82" viewBox="0 0 119 82" fill="none" xmlns="http://www.w3.org/2000/svg">
<g clip-path="url(#clip0_138_453)">
<path d="M1.67631 54.9812L1.68575 54.964L1.69452 54.9465C2.9621 52.4113 6.17164 51.0579 9.09258 51.6775C11.8916 52.2712 13.9502 54.8537 14.4084 57.8293C14.7482 60.9693 12.9084 64.0595 9.98865 65.3878C8.7032 65.9635 7.1485 66.2046 5.72715 65.9859C4.31592 65.7688 3.09777 65.1131 2.33655 63.9512L2.32813 63.9384L2.31932 63.9258C1.80004 63.184 1.63406 62.1865 1.87023 61.2418L1.95995 60.8829L1.79452 60.5521C0.904048 58.7711 0.771102 56.627 1.67631 54.9812Z" stroke="white" stroke-opacity="0.13" stroke-width="2"/>
<path d="M36.8365 12.1411L36.8365 12.1412L36.8452 12.138C43.0612 9.85268 50.2872 13.7931 52.1388 20.1749C53.9119 26.4324 50.8068 33.3488 44.6755 35.4536L44.6751 35.4537C38.7099 37.5042 31.4444 34.6688 29.3492 28.584C28.5276 26.0198 28.7183 23.1891 29.8017 20.9321L29.8668 20.7965L29.8891 20.6477C30.4384 16.9852 33.0086 13.5082 36.8365 12.1411Z" stroke="white" stroke-opacity="0.13" stroke-width="2"/>
<path d="M46.8454 53.2313L46.9697 53.3141L47.1127 53.357C47.7208 53.5395 48.3202 54.1323 48.648 55.0077C49.0774 56.5726 48.2726 58.1258 46.8931 58.9373L46.7938 58.9957L46.7104 59.0751C45.0126 60.6921 42.3658 60.4703 41.143 58.5612C40.0147 56.787 40.4328 54.5747 42.0001 53.3992C42.0083 53.393 42.0633 53.3584 42.2074 53.3447C42.3486 53.3313 42.5226 53.3435 42.704 53.3798L43.1288 53.4648L43.4813 53.213C43.9731 52.8617 44.5553 52.6992 45.3001 52.6992C45.8399 52.6992 46.3482 52.8998 46.8454 53.2313Z" stroke="white" stroke-opacity="0.13" stroke-width="2"/>
<path d="M73.3863 32.9059C73.747 33.7174 73.8818 34.164 73.724 34.6805C73.6977 34.717 73.6801 34.7465 73.6722 34.7599C73.6325 34.8272 73.6037 34.8946 73.5943 34.9163L73.5935 34.9183C73.5489 35.0223 73.4833 35.1971 73.4047 35.4261C73.3708 35.4782 73.3458 35.5237 73.3285 35.5571L73.323 35.5626L73.2681 35.645C72.8233 36.3122 72.1486 36.7805 71.3606 37.0272C70.7428 37.1341 70.1992 36.8714 69.9481 36.4697L69.9403 36.4573L69.9322 36.445C69.4368 35.702 69.5903 34.5238 70.3072 33.8068L70.4604 33.6537L70.5365 33.4508C70.7111 32.9852 71.1443 32.5737 71.7162 32.3495C71.9652 32.2843 72.35 32.3001 72.7334 32.4395C73.1464 32.5897 73.339 32.7994 73.3863 32.9059ZM73.2979 35.6175C73.2979 35.6174 73.2986 35.6161 73.2999 35.6139C73.2986 35.6164 73.2979 35.6175 73.2979 35.6175ZM73.6286 35.6759L74.0688 35.8226C74.1274 35.8676 74.1914 35.909 74.2613 35.9446C74.2352 35.9797 74.2177 36.0147 74.2001 36.0497C74.1797 36.0906 74.1592 36.1315 74.1251 36.1724C74.0866 36.1549 74.0492 36.135 74.0131 36.1127C73.9225 36.0567 73.8403 35.9859 73.7703 35.9018C73.7386 35.8637 73.7116 35.8255 73.6884 35.788C73.6646 35.7494 73.6449 35.7116 73.6286 35.6759ZM73.5707 35.0225C73.5707 35.0225 73.5707 35.0225 73.5707 35.0225L73.5707 35.0225ZM73.5453 35.1565C73.5469 35.142 73.5488 35.1282 73.5509 35.1152C73.5586 35.1351 73.5704 35.1639 73.5866 35.1991C73.5701 35.2158 73.5544 35.2326 73.5395 35.2493C73.5401 35.2016 73.5439 35.1687 73.5451 35.1584C73.5452 35.1576 73.5453 35.157 73.5453 35.1565ZM73.5703 35.0234L73.5703 35.0234L73.5703 35.0234Z" stroke="white" stroke-opacity="0.13" stroke-width="2"/>
<path d="M104.915 50.3231L104.915 50.3231L104.921 50.3253C109.762 52.3102 114.095 55.8209 116.197 59.9418C117.241 61.9892 117.728 64.1724 117.483 66.4046C117.237 68.634 116.252 70.9825 114.238 73.3521C107.054 81.7805 92.9779 83.1921 85.5568 74.6463C80.9696 69.3086 80.9763 61.7294 84.8017 56.5977L84.8839 56.4874L84.9333 56.359C86.3016 52.8015 89.2469 50.466 92.8993 49.4241C96.5641 48.3787 100.907 48.6529 104.915 50.3231Z" stroke="white" stroke-opacity="0.13" stroke-width="2"/>
<path d="M105.337 2.12615L105.337 2.12619L105.345 2.1316C109.309 4.7743 109.85 10.6174 106.408 13.9778C103.259 16.9449 97.7286 16.2178 95.5651 12.4977C94.6469 10.9111 94.627 8.95455 95.4121 7.20992L95.4963 7.02269L95.5 6.81741C95.5842 2.10092 101.22 -0.677153 105.337 2.12615Z" stroke="white" stroke-opacity="0.13" stroke-width="2"/>
</g>
<defs>
<clipPath id="clip0_138_453">
<rect width="118.6" height="81.4" fill="white"/>
</clipPath>
</defs>
</svg>
