<svg width="128" height="128" viewBox="0 0 128 128" fill="none" xmlns="http://www.w3.org/2000/svg">
<path d="M64 0L86.0426 10.7845L109.255 18.7452L117.215 41.9574L128 64L117.215 86.0426L109.255 109.255L86.0426 117.215L64 128L41.9574 117.215L18.7452 109.255L10.7845 86.0426L0 64L10.7845 41.9574L18.7452 18.7452L41.9574 10.7845L64 0Z" fill="#E55E04"/>
<path d="M62.1318 21.8908L64.2032 16.5005H65.6682L67.7396 21.8908H66.325L65.8366 20.6688H64.0264L63.5464 21.8908H62.1318ZM64.2116 19.6728H65.6514L64.9272 17.7979L64.2116 19.6728Z" fill="white"/>
<path d="M76.8523 23.59L77.4184 18.084L78.6769 18.5134L78.2928 21.8161L79.8059 19.704L80.0546 18.9836L81.1058 19.3423L80.9264 22.7235L82.6985 19.8859L83.957 20.3153L81.0093 25.0086L79.8227 24.6037L79.9801 21.3652L78.0389 23.9949L76.8523 23.59Z" fill="white"/>
<path d="M88.979 29.3172L93.9444 26.3281L95.1005 27.2227L93.4048 32.7411L92.2882 31.8775L92.658 30.6149L91.2292 29.5095L90.0957 30.1809L88.979 29.3172ZM91.9909 28.8366L93.1269 29.7158L93.7144 27.7941L91.9909 28.8366Z" fill="white"/>
<path d="M99.188 39.2177L103.727 36.2695L105.21 38.5259C105.56 39.0584 105.677 39.5424 105.561 39.9778C105.445 40.4131 105.15 40.785 104.675 41.0932C104.37 41.2915 104.051 41.3884 103.719 41.3839C103.388 41.3792 103.078 41.2804 102.79 41.0874C102.781 41.1863 102.756 41.2759 102.715 41.356C102.682 41.4377 102.624 41.5386 102.542 41.6585L101.665 42.9876L100.891 41.8104L101.716 40.5551C101.787 40.449 101.822 40.3495 101.822 40.2566C101.825 40.1607 101.788 40.052 101.708 39.9306L101.368 39.412L99.929 40.3459L99.188 39.2177ZM102.241 38.8443L102.789 39.6782C102.934 39.8978 103.1 40.0332 103.288 40.0844C103.484 40.1373 103.694 40.0905 103.92 39.944C104.375 39.648 104.46 39.2827 104.175 38.8482L103.595 37.9654L102.241 38.8443Z" fill="white"/>
<path d="M105.441 51.5278L110.698 50.2046L111.275 52.4684C111.409 52.9985 111.433 53.4673 111.347 53.875C111.264 54.2812 111.052 54.6283 110.709 54.9163C110.37 55.2029 109.88 55.427 109.238 55.5886C108.335 55.816 107.623 55.7736 107.103 55.4611C106.585 55.1541 106.223 54.5976 106.018 53.7916L105.441 51.5278ZM106.786 52.5794L106.985 53.3583C107.056 53.6396 107.157 53.8646 107.287 54.0334C107.423 54.2062 107.618 54.3126 107.872 54.3524C108.127 54.3976 108.469 54.3661 108.899 54.2579C109.334 54.1483 109.657 54.0181 109.868 53.8673C110.085 53.7204 110.215 53.538 110.258 53.32C110.308 53.106 110.294 52.8476 110.217 52.5446L110.019 51.7657L106.786 52.5794Z" fill="white"/>
<path d="M107.329 65.8631L112.837 65.0576L112.728 66.3749L109.413 66.816L111.844 67.7554L112.607 67.8185L112.515 68.9195L109.174 69.5762L112.376 70.5877L112.267 71.9057L106.966 70.2175L107.069 68.9748L110.267 68.331L107.226 67.1064L107.329 65.8631Z" fill="white"/>
<path d="M103.867 80.8887L108.833 83.054L108.288 84.2882L103.323 82.1229L103.867 80.8887Z" fill="white"/>
<path d="M97.7149 91.0688L101.704 94.7195L100.917 95.5694L96.9694 95.0743L99.3549 97.2569L98.4307 98.2543L94.4414 94.6036L95.2342 93.7479L99.1755 94.2373L96.7965 92.0604L97.7149 91.0688Z" fill="white"/>
<path d="M87.1474 100.245L89.7285 104.986L88.7064 105.536L85.1343 103.793L86.6772 106.627L85.4776 107.273L82.8965 102.532L83.9257 101.978L87.4939 103.714L85.955 100.886L87.1474 100.245Z" fill="white"/>
<path d="M72.09 105.857L72.9825 111.174L71.645 111.395L70.7524 106.079L72.09 105.857Z" fill="white"/>
<path d="M60.1518 106.304L59.2593 111.621L58.1131 111.431L56.371 107.875L55.8374 111.053L54.4919 110.83L55.3845 105.514L56.539 105.705L58.2824 109.253L58.8146 106.082L60.1518 106.304Z" fill="white"/>
<path d="M44.2036 101.122C45.028 101.566 45.5428 102.109 45.7479 102.752C45.9503 103.401 45.8458 104.102 45.4343 104.858C45.0042 105.648 44.4492 106.146 43.7693 106.351C43.0895 106.557 42.3226 106.43 41.4685 105.97C41.1772 105.814 40.9249 105.655 40.7116 105.496C40.4933 105.335 40.2967 105.162 40.1218 104.979L40.6748 103.963C40.8444 104.156 41.0372 104.33 41.2532 104.484C41.4643 104.635 41.6907 104.776 41.9326 104.906C42.4461 105.183 42.8881 105.262 43.2586 105.144C43.6216 105.028 43.942 104.715 44.2198 104.205C44.4737 103.739 44.5509 103.333 44.4517 102.988C44.3498 102.647 44.0815 102.36 43.6471 102.126C43.3608 101.972 43.0728 101.868 42.7832 101.814L42.2942 102.712L43.3237 103.266L42.9188 104.01L40.8898 102.918L42.1682 100.569C42.3948 100.552 42.6828 100.58 43.032 100.654C43.3737 100.73 43.7642 100.886 44.2036 101.122Z" fill="white"/>
<path d="M32.8538 92.0503C33.4963 92.7444 33.8092 93.4366 33.7923 94.1268C33.7676 94.817 33.4373 95.4531 32.8012 96.0352C32.1363 96.6436 31.4586 96.9372 30.7682 96.9166C30.074 96.8921 29.3999 96.5271 28.746 95.8208C28.5217 95.5787 28.3407 95.3462 28.203 95.1235C28.0615 94.8962 27.9399 94.6663 27.8384 94.4326L28.7119 93.6336C28.894 94.1268 29.1675 94.5704 29.5325 94.9644C29.9127 95.3752 30.2913 95.5864 30.6682 95.598C31.0413 95.6051 31.4406 95.4145 31.866 95.025C32.2707 94.6547 32.4749 94.2819 32.4786 93.9066C32.4823 93.5319 32.2997 93.1455 31.9309 92.747C31.7522 92.5538 31.559 92.3781 31.351 92.2197C31.1389 92.0652 30.914 91.9332 30.6762 91.8244L31.5559 91.0195C31.7734 91.1393 31.988 91.2803 32.1997 91.4432C32.4115 91.6054 32.6295 91.8083 32.8538 92.0503Z" fill="white"/>
<path d="M25.7385 80.8202C26.0925 81.6224 26.1563 82.3229 25.93 82.9211C25.7036 83.5192 25.156 84.0079 24.2873 84.3865C23.3671 84.7876 22.614 84.8662 22.0282 84.6221C21.4423 84.3781 20.9723 83.8547 20.6183 83.0524C20.2643 82.2502 20.1953 81.5522 20.4114 80.9586C20.6275 80.3643 21.1956 79.8666 22.1158 79.4655C22.9846 79.0869 23.717 79.0174 24.3132 79.2569C24.9093 79.4971 25.3844 80.0179 25.7385 80.8202ZM24.682 81.2805C24.4994 80.8665 24.2481 80.6167 23.9282 80.5311C23.6009 80.4422 23.1828 80.5085 22.6739 80.7307C22.1187 80.9728 21.7708 81.24 21.6303 81.5329C21.4824 81.8227 21.4998 82.1748 21.6824 82.5888C21.8673 83.0073 22.1183 83.2636 22.4353 83.357C22.7449 83.4478 23.1773 83.3718 23.7326 83.1297C24.2415 82.9076 24.575 82.6494 24.7332 82.3551C24.884 82.0577 24.867 81.6997 24.682 81.2805Z" fill="white"/>
<path d="M22.5686 70.103L17.1645 70.5486L17.054 69.2222L19.9281 67.5154L16.8113 66.3107L16.7014 64.9928L22.1055 64.5479L22.2175 65.8909L19.1126 66.1465L21.3827 67.0261L21.4446 67.7684L19.3518 69.0162L22.4567 68.76L22.5686 70.103Z" fill="white"/>
<path d="M23.0013 55.8519L17.7446 54.5286L18.3999 51.9565C18.506 51.5399 18.6779 51.2177 18.9154 50.9897C19.1476 50.7603 19.4217 50.6163 19.7377 50.5577C20.0551 50.4937 20.3907 50.5063 20.7444 50.5953C21.1036 50.6857 21.4026 50.8416 21.6416 51.0629C21.8805 51.2842 22.043 51.5554 22.1292 51.8764C22.2113 52.1906 22.2034 52.5398 22.1056 52.9238L21.7914 54.1571L23.3341 54.5455L23.0013 55.8519ZM20.7792 53.9023L21.019 52.9612C21.0893 52.6853 21.0654 52.4605 20.9476 52.2869C20.831 52.1079 20.6476 51.9869 20.3973 51.9239C20.1252 51.8554 19.8991 51.8676 19.7191 51.9604C19.5351 52.0465 19.4086 52.2248 19.3397 52.4953L19.0896 53.477L20.7792 53.9023Z" fill="white"/>
<path d="M27.8137 43.088L24.407 38.416L25.2083 37.1968L30.8809 38.4212L30.1072 39.5984L28.8109 39.3364L27.8207 40.843L28.5874 41.9108L27.8137 43.088ZM27.0832 40.1441L27.8707 38.9458L25.8957 38.523L27.0832 40.1441Z" fill="white"/>
<path d="M36.731 32.2848L33.4004 28.031L34.3174 27.3215L38.1292 28.4559L36.1381 25.9129L37.2145 25.0801L40.5452 29.3338L39.6215 30.0484L35.8149 28.9207L37.8009 31.4571L36.731 32.2848Z" fill="white"/>
<path d="M50.6507 24.2865L50.0027 22.4103L47.0503 19.816L48.3882 19.3594L50.265 21.0818L50.6819 18.5767L52.0198 18.1201L51.2929 21.97L51.9408 23.8462L50.6507 24.2865Z" fill="white"/>
</svg>
