<svg width="36" height="36" viewBox="0 0 36 36" fill="none" xmlns="http://www.w3.org/2000/svg">
<g clip-path="url(#clip0_187_1274)">
<path d="M35.8665 11.3012C35.7953 10.7212 35.2656 10.3092 34.6852 10.3835C33.3305 10.5577 32.2801 11.2291 31.608 11.8001C31.5649 11.4547 31.5089 11.1108 31.4402 10.7696C32.4512 10.2671 33.2298 9.4538 33.6397 8.44158C34.2252 7.03091 34.0391 5.29061 33.1538 3.89857C32.6609 3.12232 32.1299 2.40795 31.5759 1.77528C31.1923 1.33731 30.5265 1.29308 30.0883 1.67614C29.1346 2.5099 28.4926 3.71864 28.2316 5.1715C28.2309 5.1753 28.2302 5.17917 28.2297 5.18303C28.0256 6.39571 28.1072 7.67356 28.616 8.79863C30.9107 13.8632 29.1766 20.1459 24.2299 23.2756C23.9245 23.4688 23.6819 23.7322 23.5175 24.0378H19.0546V19.7289L22.7668 21.6563C23.5369 22.0562 24.4354 21.4034 24.2932 20.5474L23.4127 15.2496L27.2383 11.481C27.856 10.8726 27.5139 9.81612 26.6553 9.68674L21.3704 8.8906L18.9609 3.56417C18.588 2.73969 17.4125 2.73856 17.039 3.56417L14.6295 8.8906L9.34464 9.68674C8.48732 9.81591 8.14307 10.8717 8.76161 11.481L12.5872 15.2496L11.7068 20.5474C11.5646 21.4029 12.4626 22.0563 13.2332 21.6563L16.9453 19.7289V24.0377H12.4603C12.1941 23.578 11.7729 23.2874 11.4074 23.0351C7.09268 20.0591 5.06227 14.1353 7.40817 8.78675C7.90598 7.65064 7.99746 6.42032 7.78919 5.18296C7.78856 5.17917 7.78786 5.17537 7.78722 5.1715C7.5263 3.71857 6.88428 2.5099 5.93063 1.67607C5.49244 1.29294 4.82666 1.33731 4.44303 1.77521C3.88876 2.40802 3.35784 3.12239 2.86537 3.89794C1.97972 5.29054 1.7936 7.03084 2.37916 8.44151C2.78901 9.45373 3.56765 10.267 4.57867 10.7696C4.50976 11.1116 4.45358 11.4563 4.41055 11.8026C3.49832 11.0318 2.39962 10.523 1.31477 10.3835C0.73519 10.3089 0.204614 10.7208 0.133458 11.3013C0.0156145 12.2631 -0.0236198 13.1274 0.0135051 13.9434C0.0596299 15.5659 0.90647 17.1083 2.22658 17.9744C2.95579 18.4746 3.81775 18.7302 4.71831 18.7302C4.92404 18.7302 5.13174 18.7167 5.34036 18.6899C5.47149 19.0088 5.61451 19.3228 5.76884 19.6312C4.82581 19.5135 3.63747 19.5563 2.48554 20.1262C2.23087 20.2522 2.03786 20.4756 1.95011 20.7459C1.86237 21.0161 1.8874 21.3103 2.01951 21.5618C2.38514 22.2581 2.82058 23.0623 3.36599 23.8042C4.25692 25.0936 5.72982 25.9894 7.45416 25.9894C8.50321 25.9894 9.5155 25.5909 10.3491 24.8683C10.4609 24.9468 10.5676 25.0248 10.6169 25.0739C10.6171 25.0792 10.6172 25.0854 10.6172 25.0925V32.4753H9.56254C8.98007 32.4753 8.50785 32.9475 8.50785 33.53C8.50785 34.1124 8.98007 34.5847 9.56254 34.5847H26.4375C27.0199 34.5847 27.4922 34.1124 27.4922 33.53C27.4922 32.9475 27.0199 32.4753 26.4375 32.4753H25.3828V25.0422C25.478 24.9817 25.5714 24.9193 25.6647 24.8567C26.5069 25.595 27.5351 25.9944 28.6385 25.9959C28.6498 25.996 28.6611 25.9961 28.6725 25.9961C30.1921 25.9961 31.7668 25.1994 32.8462 23.5553C33.2649 22.9175 33.6979 22.258 34.0396 21.5159C34.2782 20.9976 34.0614 20.3835 33.5502 20.13C32.588 19.6529 31.5089 19.493 30.2684 19.6437C30.4242 19.3325 30.5678 19.0149 30.6995 18.6919C30.8983 18.7167 31.0961 18.7292 31.2923 18.7292C32.1905 18.7292 33.0539 18.4695 33.8147 17.9582C35.1157 17.0789 35.9468 15.539 35.9862 13.9369C36.0239 13.1276 35.9847 12.2653 35.8665 11.3012ZM14.4575 14.1311L11.7443 11.4584L15.5111 10.8909C15.8648 10.8376 16.1675 10.6087 16.3149 10.2827L17.9999 6.55771L19.685 10.2826C19.8325 10.6086 20.135 10.8375 20.4888 10.8908L24.2555 11.4583L21.5424 14.131C21.2979 14.3719 21.1859 14.7167 21.2421 15.0553L21.8665 18.8121C21.8665 18.8121 18.5017 17.065 18.5008 17.0645C18.1776 16.9077 17.8431 16.8859 17.5139 17.0568C16.0539 17.8149 16.6125 17.5249 14.1334 18.812L14.7578 15.0552C14.814 14.7167 14.702 14.3719 14.4575 14.1311ZM30.3087 5.53867C30.3823 5.13164 30.52 4.63017 30.7777 4.15387C30.9815 4.43337 31.1805 4.72587 31.3736 5.0299C31.8964 5.85184 32.0177 6.85035 31.6903 7.63574C31.6888 7.63946 31.6872 7.64326 31.6857 7.64706C31.5168 8.06598 31.2292 8.41747 30.8469 8.6817C30.5408 7.85736 30.0391 7.1515 30.3087 5.53867ZM5.17203 8.6817C4.78974 8.4174 4.50224 8.06598 4.33321 7.64706C4.33173 7.64326 4.33018 7.63953 4.32857 7.63574C4.00119 6.85035 4.12255 5.85184 4.64567 5.02933C4.83854 4.72558 5.03738 4.4333 5.24115 4.15387C5.49877 4.63017 5.63651 5.13164 5.70999 5.5386C5.96874 7.08512 5.52908 7.71976 5.17203 8.6817ZM3.4138 16.231C3.406 16.2256 3.39812 16.2203 3.39018 16.2151C2.64417 15.7289 2.14629 14.8112 2.12182 13.8771C2.12168 13.87 2.1214 13.863 2.12104 13.8559C2.1055 13.5202 2.10543 13.1724 2.12104 12.8078C2.57477 13.0272 3.00979 13.3391 3.37527 13.7163C3.94881 14.3121 4.31936 14.9611 4.47967 15.6471C4.53275 15.9748 4.59695 16.3005 4.67352 16.6228C4.21051 16.6157 3.78034 16.4842 3.4138 16.231ZM5.07381 22.5661C4.8737 22.295 4.68674 22.0051 4.51201 21.7122C4.96862 21.6636 5.46327 21.6933 5.97036 21.8033C6.8115 22.0011 7.48235 22.3436 7.96758 22.8219C8.18632 23.0597 8.41307 23.2905 8.6489 23.5129C7.68148 24.1308 6.17525 24.0617 5.07381 22.5661ZM12.7265 32.4753V26.1472H23.2733V32.4753H12.7265ZM31.5227 21.7175C31.3349 22.0172 31.132 22.3216 30.939 22.617C30.0776 23.7862 28.5891 24.2951 27.3688 23.5086C27.615 23.2801 27.8522 23.0435 28.0794 22.7989C29.0101 21.9631 30.3459 21.6028 31.5227 21.7175ZM33.8785 13.8494C33.8781 13.8586 33.8777 13.8678 33.8776 13.877C33.8577 14.7972 33.3693 15.7132 32.6358 16.209C32.242 16.4736 31.8143 16.6114 31.3569 16.6222C31.5709 15.6989 31.5397 14.8453 32.6409 13.7189C33.0112 13.3369 33.4363 13.0272 33.8792 12.8098C33.8947 13.1726 33.8944 13.5176 33.8785 13.8494Z" fill="#E55E04"/>
<path d="M20.1094 28.2566H15.8906C15.3082 28.2566 14.8359 28.7288 14.8359 29.3113C14.8359 29.8937 15.3082 30.366 15.8906 30.366H20.1094C20.6918 30.366 21.1641 29.8937 21.1641 29.3113C21.1641 28.7288 20.6918 28.2566 20.1094 28.2566Z" fill="#E55E04"/>
</g>
<defs>
<clipPath id="clip0_187_1274">
<rect width="36" height="36" fill="white"/>
</clipPath>
</defs>
</svg>
