<svg width="32" height="33" viewBox="0 0 32 33" fill="none" xmlns="http://www.w3.org/2000/svg">
<path d="M6.59796 19.7408C5.94122 21.3981 4.90314 23.0387 3.513 24.6178C3.07062 25.1202 3.01446 25.8375 3.37335 26.4025C3.64972 26.837 4.11456 27.0846 4.60675 27.0846C4.74542 27.0846 4.88654 27.0651 5.0257 27.0245C7.97199 26.1637 14.8445 23.1061 15.0291 13.3326C15.1004 9.55871 12.3402 6.31653 8.74592 5.95129C6.76495 5.75304 4.78302 6.3966 3.31427 7.72424C1.84357 9.05334 0.999817 10.9508 0.999817 12.9308C0.999817 16.234 3.34454 19.1227 6.59796 19.7408ZM4.65509 9.20812C5.58917 8.36388 6.76495 7.91417 8.01154 7.91417C8.18781 7.91417 8.36554 7.92296 8.54377 7.94151C11.1107 8.20176 13.0809 10.5533 13.0291 13.2945C12.9017 20.0572 9.24006 23.1017 6.20783 24.4635C7.1673 23.1656 7.92121 21.8307 8.45734 20.4777C8.66632 19.9508 8.63166 19.3619 8.36261 18.8619C8.08087 18.3375 7.57843 17.9655 6.98517 17.8409C4.6756 17.358 2.99982 15.2926 2.99982 12.9308C2.99982 11.5157 3.60333 10.1588 4.65509 9.20812Z" fill="white"/>
<path d="M19.3436 26.4025C19.62 26.837 20.0848 27.0846 20.577 27.0846C20.7157 27.0846 20.8563 27.0651 20.9959 27.0245C23.9422 26.1637 30.8143 23.1061 30.9989 13.3326C31.0692 9.55871 28.3094 6.31651 24.7147 5.95128C22.7313 5.74962 20.7528 6.39611 19.284 7.72424C17.8133 9.05334 16.9696 10.9508 16.9696 12.9308C16.9696 16.234 19.3143 19.1227 22.5672 19.7408C21.91 21.3995 20.8719 23.0402 19.4823 24.6183C19.0399 25.1212 18.9842 25.838 19.3436 26.4025ZM24.4266 20.4786C24.6356 19.9518 24.6014 19.3629 24.3328 18.8629C24.0506 18.338 23.5487 17.9659 22.9549 17.8409C20.6453 17.358 18.9696 15.2926 18.9696 12.9308C18.9696 11.5152 19.5731 10.1588 20.6248 9.20812C21.5584 8.36388 22.7342 7.91417 23.9813 7.91417C24.1571 7.91417 24.3348 7.92296 24.5135 7.9415C27.0799 8.20176 29.0506 10.5533 28.9989 13.2945C28.8719 20.0577 25.2098 23.1017 22.1776 24.4635C23.1366 23.1666 23.8895 21.8317 24.4266 20.4786Z" fill="white"/>
</svg>
