<svg width="36" height="36" viewBox="0 0 36 36" fill="none" xmlns="http://www.w3.org/2000/svg">
<mask id="mask0_38_71" style="mask-type:alpha" maskUnits="userSpaceOnUse" x="3" y="0" width="30" height="36">
<path d="M32.4 0H3.59998V36H32.4V0Z" fill="#E55E04"/>
</mask>
<g mask="url(#mask0_38_71)">
<path d="M20.1414 1.38464H12.5134C9.06539 1.38464 7.34141 1.38464 6.27025 2.4661C5.1991 3.54754 5.1991 5.28812 5.1991 8.76928V27.2308C5.1991 30.7119 5.1991 32.4525 6.27025 33.534C7.34141 34.6154 9.06539 34.6154 12.5134 34.6154H23.4848C26.9328 34.6154 28.6568 34.6154 29.728 33.534C30.7991 32.4525 30.7991 30.7119 30.7991 27.2308V12.1448C30.7991 11.3902 30.7991 11.0129 30.6599 10.6736C30.5207 10.3344 30.2564 10.0676 29.728 9.53394L22.7274 2.4661C22.1989 1.9325 21.9346 1.66571 21.5986 1.52518C21.2626 1.38464 20.8888 1.38464 20.1414 1.38464Z" stroke="#E55E04" stroke-width="3"/>
<path d="M12.5143 19.8464H23.4857" stroke="#E55E04" stroke-width="3" stroke-linecap="round"/>
<path d="M12.5143 27.2306H19.8286" stroke="#E55E04" stroke-width="3" stroke-linecap="round"/>
<path d="M19.8295 1.38464V8.76928C19.8295 10.5098 19.8295 11.3801 20.365 11.9209C20.9006 12.4616 21.7626 12.4616 23.4866 12.4616H30.8009" stroke="#E55E04" stroke-width="3"/>
</g>
</svg>
