<svg width="16" height="16" viewBox="0 0 16 16" fill="none" xmlns="http://www.w3.org/2000/svg">
<path d="M13.3337 14.667H12.0003V13.3337C12.0003 12.2291 11.1049 11.3337 10.0003 11.3337H6.00033C4.89576 11.3337 4.00033 12.2291 4.00033 13.3337V14.667H2.66699V13.3337C2.66699 11.4927 4.15938 10.0003 6.00033 10.0003H10.0003C11.8413 10.0003 13.3337 11.4927 13.3337 13.3337V14.667ZM8.00033 8.66699C5.79119 8.66699 4.00033 6.87613 4.00033 4.66699C4.00033 2.45785 5.79119 0.666992 8.00033 0.666992C10.2095 0.666992 12.0003 2.45785 12.0003 4.66699C12.0003 6.87613 10.2095 8.66699 8.00033 8.66699ZM8.00033 7.33366C9.47306 7.33366 10.667 6.13975 10.667 4.66699C10.667 3.19423 9.47306 2.00033 8.00033 2.00033C6.52757 2.00033 5.33366 3.19423 5.33366 4.66699C5.33366 6.13975 6.52757 7.33366 8.00033 7.33366Z" fill="#E55E04"/>
</svg>
