<svg width="36" height="36" viewBox="0 0 36 36" fill="none" xmlns="http://www.w3.org/2000/svg">
<mask id="mask0_38_80" style="mask-type:alpha" maskUnits="userSpaceOnUse" x="2" y="0" width="32" height="35">
<path d="M33.75 0H2.25V34.875H33.75V0Z" fill="#E55E04"/>
</mask>
<g mask="url(#mask0_38_80)">
<path d="M3.99902 17.0854C3.99902 14.3988 3.99902 13.0554 4.54795 11.8746C5.09687 10.6939 6.12776 9.81969 8.18953 8.07127L10.1895 6.37518C13.9162 3.21491 15.7795 1.63477 17.999 1.63477C20.2186 1.63477 22.0819 3.21491 25.8086 6.37518L27.8085 8.07127C29.8703 9.81969 30.9012 10.6939 31.4501 11.8746C31.999 13.0554 31.9991 14.3988 31.9991 17.0854V25.476C31.9991 29.2071 31.999 31.0726 30.8275 32.2317C29.6559 33.3908 27.7703 33.3908 23.999 33.3908H11.999C8.22779 33.3908 6.34217 33.3908 5.1706 32.2317C3.99902 31.0726 3.99902 29.2071 3.99902 25.476V17.0854Z" stroke="#E55E04" stroke-width="3"/>
<path d="M22.9991 33.3909V22.2606C22.9991 21.8508 22.6632 21.5186 22.2491 21.5186H13.749C13.3348 21.5186 12.999 21.8508 12.999 22.2606V33.3909" stroke="#E55E04" stroke-width="3" stroke-linecap="round" stroke-linejoin="round"/>
</g>
</svg>
