<svg width="29" height="29" viewBox="0 0 29 29" fill="none" xmlns="http://www.w3.org/2000/svg">
<path d="M12.5827 24.1884C12.5793 24.1884 12.5753 24.1884 12.5719 24.1884C12.4315 24.1856 12.2989 24.1256 12.2038 24.0225L2.49216 13.4624C2.32563 13.2812 2.31034 13.0081 2.45591 12.8093C2.60147 12.6111 2.86655 12.5431 3.08972 12.6473L11.9783 16.8093C12.0531 16.8444 12.1415 16.8274 12.1987 16.768L25.7573 2.59703C25.9408 2.40502 26.241 2.38406 26.4494 2.54946C26.6579 2.71485 26.706 3.01164 26.5605 3.23424L13.0732 23.8956C13.0539 23.9256 13.0313 23.9528 13.0064 23.9783L12.9469 24.0378C12.85 24.1341 12.7186 24.1884 12.5827 24.1884Z" fill="#E55E04"/>
</svg>
