<svg width="32" height="32" viewBox="0 0 32 32" fill="none" xmlns="http://www.w3.org/2000/svg">
<path d="M29 24C28.447 24 28 24.448 28 25V27.5C28 27.776 27.775 28 27.5 28C27.225 28 27 27.776 27 27.5V6.17C27 3.946 25.337 2.117 23.214 2.006C23.143 2.002 23.073 2 23 2H6C3.794 2 2 3.794 2 6C2 6.552 2.447 7 3 7H5V26.268C5 28.326 6.675 30 8.732 30H27C27.059 30 27.111 29.976 27.167 29.966C27.277 29.981 27.386 30 27.5 30C28.879 30 30 28.878 30 27.5V25C30 24.448 29.553 24 29 24ZM6 4H19.537C19.357 4.313 19.219 4.65 19.128 5H4.269C4.614 4.403 5.261 4 6 4ZM7 26.268V7H20C20.553 7 21 6.552 21 6C21 5.446 21.222 4.931 21.624 4.549C22.026 4.168 22.572 3.974 23.108 4.003C24.151 4.058 25 5.03 25 6.17V27.5C25 27.671 25.018 27.838 25.051 28H8.732C7.777 28 7 27.223 7 26.268Z" fill="white"/>
<path d="M10.293 14.1212L11 13.4142L11.707 14.1212C11.902 14.3162 12.158 14.4142 12.414 14.4142C12.67 14.4142 12.926 14.3162 13.121 14.1212C13.512 13.7302 13.512 13.0982 13.121 12.7072L12.414 12.0002L13.121 11.2932C13.512 10.9022 13.512 10.2702 13.121 9.87919C12.73 9.48819 12.098 9.48819 11.707 9.87919L11 10.5862L10.293 9.87919C9.902 9.48819 9.27 9.48819 8.879 9.87919C8.488 10.2702 8.488 10.9022 8.879 11.2932L9.58601 12.0002L8.879 12.7072C8.488 13.0982 8.488 13.7302 8.879 14.1212C9.074 14.3162 9.33001 14.4142 9.58601 14.4142C9.84201 14.4142 10.098 14.3162 10.293 14.1212Z" fill="white"/>
<path d="M21.707 18.2928C21.316 17.9018 20.684 17.9018 20.293 18.2928L19.586 18.9998L18.879 18.2928C18.488 17.9018 17.856 17.9018 17.465 18.2928C17.074 18.6828 17.074 19.3158 17.465 19.7068L18.172 20.4138L17.465 21.1208C17.074 21.5118 17.074 22.1448 17.465 22.5348C17.66 22.7298 17.916 22.8278 18.172 22.8278C18.428 22.8278 18.684 22.7298 18.879 22.5348L19.586 21.8278L20.293 22.5348C20.488 22.7298 20.744 22.8278 21 22.8278C21.256 22.8278 21.512 22.7298 21.707 22.5348C22.098 22.1448 22.098 21.5118 21.707 21.1208L21 20.4138L21.707 19.7068C22.098 19.3158 22.098 18.6828 21.707 18.2928Z" fill="white"/>
<path d="M19.662 14.147L20.052 15.316C20.191 15.735 20.581 16 21 16C21.104 16 21.211 15.983 21.316 15.948C21.839 15.773 22.123 15.207 21.948 14.683L20.948 11.683C20.909 11.566 20.846 11.464 20.772 11.373C20.757 11.355 20.739 11.342 20.723 11.325C20.653 11.25 20.574 11.188 20.485 11.138C20.472 11.131 20.464 11.118 20.451 11.111C20.438 11.104 20.424 11.106 20.41 11.1C20.316 11.057 20.217 11.03 20.111 11.018C20.091 11.016 20.072 11.01 20.052 11.009C20.035 11.008 20.018 11 20 11H16C15.447 11 15 11.448 15 12C15 12.552 15.447 13 16 13H18.004C17.426 13.631 16.605 14.395 15.445 15.168C12.397 17.2 12.413 18.789 12.785 20.981C12.891 21.604 13 22.248 13 23C13 23.542 12.819 23.746 12.685 23.852C12.116 24.297 10.792 24.164 10.241 24.029C9.70597 23.894 9.16397 24.221 9.03097 24.757C8.89597 25.293 9.22197 25.836 9.75897 25.97C9.89397 26.004 10.568 26.161 11.394 26.161C12.21 26.161 13.175 26.008 13.915 25.43C14.409 25.043 15 24.307 15 23C15 22.079 14.871 21.318 14.757 20.647C14.475 18.984 14.359 18.296 16.555 16.832C17.984 15.879 18.977 14.927 19.662 14.147Z" fill="white"/>
</svg>
