<svg width="21" height="21" viewBox="0 0 21 21" fill="none" xmlns="http://www.w3.org/2000/svg">
<path d="M10.5 21C4.70101 21 0 16.2989 0 10.5C0 4.70101 4.70101 0 10.5 0C16.2989 0 21 4.70101 21 10.5C21 16.2989 16.2989 21 10.5 21ZM10.5 18.9C15.1392 18.9 18.9 15.1392 18.9 10.5C18.9 5.86081 15.1392 2.1 10.5 2.1C5.86081 2.1 2.1 5.86081 2.1 10.5C2.1 15.1392 5.86081 18.9 10.5 18.9ZM9.45273 14.7L4.99799 10.2453L6.48292 8.76025L9.45273 11.7302L15.3925 5.79046L16.8774 7.27538L9.45273 14.7Z" fill="#E55E04"/>
</svg>
