<svg width="18" height="19" viewBox="0 0 18 19" fill="none" xmlns="http://www.w3.org/2000/svg">
<g clip-path="url(#clip0_38_53)">
<path d="M5.24994 1.32913V2.82913H2.24994C1.83573 2.82913 1.49994 3.16492 1.49994 3.57913V15.5791C1.49994 15.9934 1.83573 16.3291 2.24994 16.3291H8.06589C7.24248 15.3019 6.74994 13.9981 6.74994 12.5791C6.74994 9.26541 9.43621 6.57913 12.7499 6.57913C14.1689 6.57913 15.4727 7.07167 16.4999 7.8951V3.57913C16.4999 3.16492 16.1642 2.82913 15.7499 2.82913H12.7499V1.32913H11.2499V2.82913H6.74994V1.32913H5.24994ZM17.2499 12.5791C17.2499 15.0644 15.2352 17.0791 12.7499 17.0791C10.2647 17.0791 8.24994 15.0644 8.24994 12.5791C8.24994 10.0939 10.2647 8.07913 12.7499 8.07913C15.2352 8.07913 17.2499 10.0939 17.2499 12.5791ZM11.9999 9.57913V12.8898L13.7196 14.6095L14.7803 13.5488L13.4999 12.2685V9.57913H11.9999Z" fill="#E55E04"/>
</g>
<defs>
<clipPath id="clip0_38_53">
<rect width="18" height="18" fill="white" transform="translate(-6.10352e-05 0.579132)"/>
</clipPath>
</defs>
</svg>
