<svg width="32" height="32" viewBox="0 0 32 32" fill="none" xmlns="http://www.w3.org/2000/svg">
<path d="M16 2.6665C8.63616 2.6665 2.66663 8.63604 2.66663 15.9998C2.66663 23.3636 8.63616 29.3332 16 29.3332C23.3637 29.3332 29.3333 23.3636 29.3333 15.9998C29.3333 8.63604 23.3637 2.6665 16 2.6665Z" stroke="#E55E04" stroke-width="1.5" stroke-linecap="round" stroke-linejoin="round"/>
<path d="M10.6666 28.224V18.6668L16 9.3335L21.3333 18.6668V28.224" stroke="#E55E04" stroke-width="1.5" stroke-linecap="round" stroke-linejoin="round"/>
<path d="M10.6666 18.6665C10.6666 18.6665 12.169 19.9998 13.3333 19.9998C14.4976 19.9998 16 18.6665 16 18.6665C16 18.6665 17.5024 19.9998 18.6666 19.9998C19.8309 19.9998 21.3333 18.6665 21.3333 18.6665" stroke="#E55E04" stroke-width="1.5" stroke-linecap="round" stroke-linejoin="round"/>
</svg>
