<svg width="18" height="19" viewBox="0 0 18 19" fill="none" xmlns="http://www.w3.org/2000/svg">
<g clip-path="url(#clip0_87_102)">
<path d="M13.773 13.523L9 18.2959L4.22703 13.523C1.59099 10.8869 1.59099 6.61307 4.22703 3.97703C6.86307 1.34099 11.1369 1.34099 13.773 3.97703C16.409 6.61307 16.409 10.8869 13.773 13.523ZM9 11.75C10.6568 11.75 12 10.4068 12 8.75C12 7.09314 10.6568 5.75 9 5.75C7.34314 5.75 6 7.09314 6 8.75C6 10.4068 7.34314 11.75 9 11.75ZM9 10.25C8.17155 10.25 7.5 9.57845 7.5 8.75C7.5 7.92157 8.17155 7.25 9 7.25C9.82845 7.25 10.5 7.92157 10.5 8.75C10.5 9.57845 9.82845 10.25 9 10.25Z" fill="#E55E04"/>
</g>
<defs>
<clipPath id="clip0_87_102">
<rect width="18" height="18" fill="white" transform="translate(0 0.5)"/>
</clipPath>
</defs>
</svg>
