<svg width="32" height="32" viewBox="0 0 32 32" fill="none" xmlns="http://www.w3.org/2000/svg">
<g clip-path="url(#clip0_182_1190)">
<path d="M26.6667 0H5.33333C4.97971 0 4.64057 0.140476 4.39052 0.390524C4.14048 0.640573 4 0.979711 4 1.33333V30.6667C4 31.0203 4.14048 31.3594 4.39052 31.6095C4.64057 31.8595 4.97971 32 5.33333 32H26.6667C27.0203 32 27.3594 31.8595 27.6095 31.6095C27.8595 31.3594 28 31.0203 28 30.6667V1.33333C28 0.979711 27.8595 0.640573 27.6095 0.390524C27.3594 0.140476 27.0203 0 26.6667 0ZM25.3333 29.3333H6.66667V2.66667H25.3333V29.3333Z" fill="#E55E04"/>
<path d="M10.6666 9.33317H21.3333C21.6869 9.33317 22.0261 9.19269 22.2761 8.94265C22.5262 8.6926 22.6666 8.35346 22.6666 7.99984C22.6666 7.64622 22.5262 7.30708 22.2761 7.05703C22.0261 6.80698 21.6869 6.6665 21.3333 6.6665H10.6666C10.313 6.6665 9.97389 6.80698 9.72384 7.05703C9.47379 7.30708 9.33331 7.64622 9.33331 7.99984C9.33331 8.35346 9.47379 8.6926 9.72384 8.94265C9.97389 9.19269 10.313 9.33317 10.6666 9.33317Z" fill="#E55E04"/>
<path d="M10.6666 13.3332H21.3333C21.6869 13.3332 22.0261 13.1927 22.2761 12.9426C22.5262 12.6926 22.6666 12.3535 22.6666 11.9998C22.6666 11.6462 22.5262 11.3071 22.2761 11.057C22.0261 10.807 21.6869 10.6665 21.3333 10.6665H10.6666C10.313 10.6665 9.97389 10.807 9.72384 11.057C9.47379 11.3071 9.33331 11.6462 9.33331 11.9998C9.33331 12.3535 9.47379 12.6926 9.72384 12.9426C9.97389 13.1927 10.313 13.3332 10.6666 13.3332Z" fill="#E55E04"/>
<path d="M10.6666 17.3332H21.3333C21.6869 17.3332 22.0261 17.1927 22.2761 16.9426C22.5262 16.6926 22.6666 16.3535 22.6666 15.9998C22.6666 15.6462 22.5262 15.3071 22.2761 15.057C22.0261 14.807 21.6869 14.6665 21.3333 14.6665H10.6666C10.313 14.6665 9.97389 14.807 9.72384 15.057C9.47379 15.3071 9.33331 15.6462 9.33331 15.9998C9.33331 16.3535 9.47379 16.6926 9.72384 16.9426C9.97389 17.1927 10.313 17.3332 10.6666 17.3332Z" fill="#E55E04"/>
<path d="M21.3333 24H19.2133C18.2133 22.9867 17.4933 21.96 16.2133 23.24C14.2533 20.32 14.2266 20 13.2533 20C12.28 20 12.28 20.4667 9.47997 26.0667C9.37769 26.2696 9.329 26.4954 9.33851 26.7225C9.34802 26.9496 9.41543 27.1704 9.53432 27.3642C9.65322 27.5579 9.81966 27.718 10.0178 27.8292C10.216 27.9405 10.4394 27.9993 10.6666 28C11.72 28 11.8 27.3867 13.4933 24C14.8266 25.9733 15.04 26.5867 15.8666 26.6667C16.0641 26.6867 16.2635 26.6623 16.4503 26.5954C16.6372 26.5285 16.8067 26.4208 16.9466 26.28L17.3333 25.88C18.2933 26.8533 17.9333 26.6667 21.3333 26.6667C21.6869 26.6667 22.0261 26.5262 22.2761 26.2761C22.5262 26.0261 22.6666 25.687 22.6666 25.3333C22.6666 24.9797 22.5262 24.6406 22.2761 24.3905C22.0261 24.1405 21.6869 24 21.3333 24Z" fill="#E55E04"/>
</g>
<defs>
<clipPath id="clip0_182_1190">
<rect width="32" height="32" fill="white"/>
</clipPath>
</defs>
</svg>
