<svg width="58" height="50" viewBox="0 0 58 50" fill="none" xmlns="http://www.w3.org/2000/svg">
<g clip-path="url(#clip0_129_13)">
<path d="M45.4108 1.25855C46.7088 2.41568 46.9355 4.26302 46.9355 4.26302C46.9355 4.26302 45.0605 4.20212 43.7625 3.04499C42.4644 1.88787 42.2378 0.0405273 42.2378 0.0405273C42.2378 0.0405273 44.1127 0.0811282 45.4108 1.25855Z" fill="white"/>
<path d="M36.2834 44.2345C35.1708 45.6555 35.0883 47.3202 35.109 47.3202C35.109 47.3405 37.4578 46.6909 38.5086 45.1277C39.5594 43.5849 39.0443 42.0015 39.0649 42.0015C39.0649 42.0218 37.396 42.8338 36.2834 44.2345Z" fill="white"/>
<path d="M37.9316 49.127C35.8712 48.7819 35.1089 47.2391 35.1089 47.2594C35.1295 47.2594 37.3341 46.6301 39.2503 46.8534C41.1664 47.0767 42.2997 48.2541 42.2997 48.2744C42.3203 48.2744 40.0126 49.4721 37.9316 49.127Z" fill="white"/>
<path d="M40.363 42.4684C39.6006 44.0112 39.8685 45.6353 39.8891 45.6353C39.8891 45.6556 41.9495 44.6406 42.65 42.9556C43.3505 41.291 42.547 39.8293 42.5676 39.8293C42.5676 39.8699 41.1253 40.9256 40.363 42.4684Z" fill="white"/>
<path d="M42.8767 46.9143C40.8781 46.9143 39.8479 45.5541 39.8479 45.5744C39.8685 45.5744 41.8053 44.6 43.6596 44.4985C45.5346 44.397 46.8326 45.3511 46.8326 45.3714C46.8738 45.3714 44.9165 46.9143 42.8767 46.9143Z" fill="white"/>
<path d="M43.8863 40.0934C43.4536 41.7174 44.0306 43.24 44.0512 43.24C44.0512 43.2603 45.8231 41.9407 46.1734 40.1949C46.5236 38.4694 45.4934 37.1904 45.514 37.1904C45.4934 37.1904 44.319 38.4694 43.8863 40.0934Z" fill="white"/>
<path d="M47.1418 43.9708C45.2256 44.3159 44.01 43.179 44.01 43.179C44.0306 43.179 45.6789 41.9204 47.4509 41.5144C49.2228 41.1084 50.6651 41.7986 50.6651 41.8189C50.6857 41.7986 49.0786 43.6257 47.1418 43.9708Z" fill="white"/>
<path d="M46.8119 37.17C46.6883 38.8346 47.533 40.1947 47.5537 40.1947C47.5537 40.215 49.0165 38.6316 49.0371 36.8655C49.0783 35.1196 47.8421 34.064 47.8627 34.0437C47.8627 34.0843 46.9561 35.5256 46.8119 37.17Z" fill="white"/>
<path d="M50.6855 40.3978C48.8929 41.0474 47.5125 40.1542 47.5125 40.1745C47.5331 40.1745 48.8929 38.6723 50.5206 37.9618C52.1689 37.2513 53.6936 37.6979 53.7142 37.6979C53.7348 37.6776 52.4986 39.7279 50.6855 40.3978Z" fill="white"/>
<path d="M49.1608 33.8408C49.3256 35.4648 50.397 36.6625 50.4176 36.6625C50.4176 36.6828 51.5715 34.8964 51.283 33.1709C51.0152 31.4656 49.6347 30.6333 49.6347 30.6333C49.6347 30.6333 48.9754 32.2167 49.1608 33.8408Z" fill="white"/>
<path d="M53.4878 36.2971C51.86 37.2513 50.356 36.6016 50.356 36.6219C50.3766 36.6219 51.4274 34.9167 52.9108 33.9423C54.3943 32.9679 55.9808 33.1303 55.9808 33.1303C56.0014 33.1303 55.1361 35.343 53.4878 36.2971Z" fill="white"/>
<path d="M50.8504 30.1868C51.3037 31.7499 52.5606 32.7243 52.5606 32.7243C52.5606 32.7446 53.3847 30.7958 52.8078 29.1514C52.2515 27.5274 50.768 26.959 50.768 26.959C50.7886 26.959 50.4178 28.6236 50.8504 30.1868Z" fill="white"/>
<path d="M55.5274 31.8311C54.1057 33.0492 52.4986 32.6838 52.5192 32.6838C52.5398 32.6838 53.2816 30.8364 54.559 29.6184C55.8571 28.4004 57.423 28.2786 57.423 28.2786C57.423 28.2786 56.9697 30.6131 55.5274 31.8311Z" fill="white"/>
<path d="M51.9011 26.2889C52.6017 27.7506 54.0027 28.4814 54.0027 28.4814C54.0233 28.5017 54.4766 26.4513 53.6525 24.9288C52.8283 23.4266 51.283 23.1221 51.283 23.1221C51.283 23.1424 51.2006 24.8476 51.9011 26.2889Z" fill="white"/>
<path d="M56.743 27.0806C55.548 28.522 53.9203 28.4408 53.9409 28.4611C53.9615 28.4408 54.3736 26.5122 55.4244 25.0912C56.4958 23.6702 57.9998 23.2642 57.9998 23.2642C58.0204 23.2642 57.9586 25.6393 56.743 27.0806Z" fill="white"/>
<path d="M52.2515 22.2696C53.1993 23.5892 54.6827 24.0561 54.6827 24.0561C54.7033 24.0764 54.8064 21.9651 53.735 20.6253C52.6842 19.2855 51.0977 19.2652 51.0977 19.2449C51.1183 19.2652 51.3243 20.9704 52.2515 22.2696Z" fill="white"/>
<path d="M57.1345 22.2086C56.2073 23.8327 54.6208 24.056 54.6208 24.056C54.6415 24.0357 54.7033 22.0665 55.4862 20.4831C56.2898 18.8794 57.6908 18.2095 57.6908 18.2298C57.732 18.1892 58.0823 20.5643 57.1345 22.2086Z" fill="white"/>
<path d="M51.9218 18.2297C53.0756 19.3666 54.6003 19.5696 54.6209 19.5696C54.6415 19.5899 54.3737 17.4786 53.0756 16.3215C51.7982 15.1644 50.2323 15.4283 50.2529 15.408C50.2529 15.4283 50.7886 17.0929 51.9218 18.2297Z" fill="white"/>
<path d="M56.6812 17.296C56.0631 19.0824 54.5384 19.5696 54.559 19.5696C54.559 19.5493 54.2911 17.5802 54.7856 15.8546C55.2801 14.1291 56.5164 13.2156 56.537 13.2156C56.537 13.2156 57.3199 15.4892 56.6812 17.296Z" fill="white"/>
<path d="M50.8502 14.2711C52.1895 15.2049 53.7348 15.144 53.7348 15.144C53.7554 15.1643 53.1167 13.114 51.6126 12.1598C50.1291 11.226 48.6456 11.7538 48.6662 11.7538C48.6662 11.7538 49.511 13.3373 50.8502 14.2711Z" fill="white"/>
<path d="M55.3419 12.4846C55.074 14.3726 53.6729 15.144 53.6729 15.144C53.6729 15.1237 53.0548 13.2155 53.1785 11.3884C53.3227 9.56139 54.3529 8.42456 54.3735 8.42456C54.3941 8.42456 55.6097 10.5764 55.3419 12.4846Z" fill="white"/>
<path d="M49.0165 10.4751C50.5206 11.1856 52.0247 10.8608 52.0247 10.8405C52.0453 10.8405 51.0151 8.912 49.3256 8.22178C47.6772 7.53157 46.3174 8.32329 46.3174 8.30298C46.3586 8.30298 47.533 9.76462 49.0165 10.4751Z" fill="white"/>
<path d="M53.0754 7.91717C53.1991 9.86601 51.9628 10.8607 51.9834 10.881C51.9834 10.8607 50.9944 9.05399 50.7472 7.18635C50.5 5.31871 51.2829 3.99918 51.3035 3.99918C51.2829 3.97888 52.9724 5.94802 53.0754 7.91717Z" fill="white"/>
<path d="M46.4204 6.96307C48.0687 7.42998 49.4698 6.84127 49.4698 6.82097C49.4904 6.82097 48.0481 5.03453 46.2144 4.60822C44.4012 4.18191 43.2268 5.19694 43.2268 5.19694C43.268 5.19694 44.7721 6.47586 46.4204 6.96307Z" fill="white"/>
<path d="M49.8612 3.67431C50.4176 5.62316 49.3874 6.84118 49.408 6.84118C49.408 6.82088 48.0275 5.15625 47.3682 3.32921C46.7088 1.48187 47.1621 -6.68055e-05 47.1827 -6.68055e-05C47.1827 -0.0203673 49.3255 1.70517 49.8612 3.67431Z" fill="white"/>
<path d="M28.5156 47.8278L28.5568 47.4624C31.565 47.7263 34.5526 47.4015 37.4577 46.488C40.2805 45.5948 42.8972 44.1737 45.246 42.2858C50.0879 38.3678 53.2197 32.7649 54.0439 26.5124C54.7238 21.3966 54.3735 16.8493 53.0137 12.972C51.5508 8.81036 48.9341 5.56229 45.246 3.28864L45.4314 2.98413C49.1813 5.27808 51.8599 8.60735 53.3433 12.8501C54.7238 16.7681 55.0741 21.3966 54.3941 26.5529C53.5494 32.8867 50.3764 38.5708 45.452 42.5497C43.0826 44.4782 40.4247 45.8993 37.5607 46.8128C34.6144 47.7669 31.565 48.112 28.5156 47.8278Z" fill="white"/>
<path d="M12.5889 1.25855C11.2909 2.41568 11.0642 4.26302 11.0642 4.26302C11.0642 4.26302 12.9392 4.20212 14.2372 3.04499C15.5353 1.88787 15.7619 0.0405273 15.7619 0.0405273C15.7619 0.0405273 13.8869 0.0811282 12.5889 1.25855Z" fill="white"/>
<path d="M21.7165 44.2345C22.8291 45.6555 22.9115 47.3202 22.8909 47.3202C22.8909 47.3405 20.5421 46.6909 19.4913 45.1277C18.4405 43.5849 18.9556 42.0015 18.935 42.0015C18.935 42.0218 20.6039 42.8338 21.7165 44.2345Z" fill="white"/>
<path d="M20.0681 49.127C22.1285 48.7819 22.8909 47.2391 22.8909 47.2594C22.8702 47.2594 20.6656 46.6301 18.7495 46.8534C16.8333 47.0767 15.7001 48.2541 15.7001 48.2744C15.6795 48.2744 17.9871 49.4721 20.0681 49.127Z" fill="white"/>
<path d="M17.6368 42.4684C18.3992 44.0112 18.1313 45.6353 18.1107 45.6353C18.1107 45.6556 16.0503 44.6406 15.3498 42.9556C14.6493 41.291 15.4528 39.8293 15.4322 39.8293C15.4528 39.8699 16.8745 40.9256 17.6368 42.4684Z" fill="white"/>
<path d="M15.1231 46.9143C17.1217 46.9143 18.1519 45.5541 18.1519 45.5744C18.1313 45.5744 16.1945 44.6 14.3402 44.4985C12.4652 44.397 11.1672 45.3511 11.1672 45.3714C11.1465 45.3714 13.1039 46.9143 15.1231 46.9143Z" fill="white"/>
<path d="M14.1136 40.0934C14.5463 41.7174 13.9694 43.24 13.9488 43.24C13.9488 43.2603 12.1769 41.9407 11.8266 40.1949C11.4763 38.4694 12.5065 37.1904 12.4859 37.1904C12.5065 37.1904 13.681 38.4694 14.1136 40.0934Z" fill="white"/>
<path d="M10.8582 43.9708C12.7743 44.3159 13.99 43.179 13.99 43.179C13.9694 43.179 12.3211 41.9204 10.5491 41.5144C8.77719 41.1084 7.33491 41.7986 7.33491 41.8189C7.31431 41.7986 8.92141 43.6257 10.8582 43.9708Z" fill="white"/>
<path d="M11.1877 37.17C11.3113 38.8346 10.4665 40.1947 10.4459 40.1947C10.4459 40.215 8.98304 38.6316 8.96243 36.8655C8.92123 35.1196 10.1575 34.064 10.1369 34.0437C10.1369 34.0843 11.064 35.5256 11.1877 37.17Z" fill="white"/>
<path d="M7.31418 40.3978C9.10672 41.0474 10.4872 40.1542 10.4872 40.1745C10.4666 40.1745 9.10672 38.6723 7.47902 37.9618C5.8307 37.2513 4.30601 37.6979 4.28541 37.6979C4.26481 37.6776 5.50104 39.7279 7.31418 40.3978Z" fill="white"/>
<path d="M8.85966 33.8408C8.69483 35.4648 7.62343 36.6625 7.60282 36.6625C7.60282 36.6828 6.449 34.8964 6.73746 33.1709C7.00531 31.4656 8.38577 30.6333 8.38577 30.6333C8.36517 30.6333 9.02449 32.2167 8.85966 33.8408Z" fill="white"/>
<path d="M4.51212 36.2971C6.13982 37.2513 7.64391 36.6016 7.64391 36.6219C7.62331 36.6219 6.57251 34.9167 5.08903 33.9423C3.60554 32.9679 2.01904 33.1303 2.01904 33.1303C2.01904 33.1303 2.8638 35.343 4.51212 36.2971Z" fill="white"/>
<path d="M7.1494 30.1868C6.69611 31.7499 5.43927 32.7243 5.43927 32.7243C5.43927 32.7446 4.61512 30.7958 5.19203 29.1514C5.74833 27.5274 7.23181 26.959 7.23181 26.959C7.21121 26.959 7.60268 28.6236 7.1494 30.1868Z" fill="white"/>
<path d="M2.49291 31.8311C3.91458 33.0492 5.52168 32.6838 5.50108 32.6838C5.48047 32.6838 4.73873 30.8364 3.46129 29.6184C2.16324 28.4004 0.597346 28.2786 0.597346 28.2786C0.576742 28.2786 1.03003 30.6131 2.49291 31.8311Z" fill="white"/>
<path d="M6.11914 26.2889C5.41861 27.7506 4.01754 28.4814 4.01754 28.4814C3.99694 28.5017 3.54365 26.4513 4.36781 24.9288C5.19196 23.4266 6.73726 23.1221 6.73726 23.1221C6.71665 23.1424 6.79907 24.8476 6.11914 26.2889Z" fill="white"/>
<path d="M1.25672 27.0806C2.45175 28.522 4.07946 28.4408 4.05886 28.4611C4.03825 28.4408 3.62617 26.5122 2.57537 25.0912C1.50397 23.6702 -0.000114292 23.2642 -0.000114292 23.2642C-0.0207182 23.2642 0.0410935 25.6393 1.25672 27.0806Z" fill="white"/>
<path d="M5.74844 22.2694C4.80066 23.5889 3.31718 24.0558 3.31718 24.0558C3.29657 24.0761 3.19355 21.9649 4.26496 20.6251C5.31576 19.2852 6.90226 19.2649 6.90226 19.2446C6.88165 19.2649 6.67561 20.9702 5.74844 22.2694Z" fill="white"/>
<path d="M0.86521 22.2085C1.79239 23.8326 3.37889 24.0559 3.37889 24.0559C3.35828 24.0356 3.29647 22.0664 2.51352 20.483C1.70997 18.8793 0.308904 18.2094 0.288301 18.2094C0.267697 18.1891 -0.0825698 20.5642 0.86521 22.2085Z" fill="white"/>
<path d="M6.07787 18.2297C4.92405 19.3666 3.39936 19.5696 3.37876 19.5696C3.35815 19.5899 3.626 17.4786 4.92405 16.3215C6.20149 15.1644 7.76739 15.4283 7.74679 15.408C7.74679 15.4283 7.23169 17.0929 6.07787 18.2297Z" fill="white"/>
<path d="M1.31844 17.296C1.93656 19.0824 3.46125 19.5696 3.44065 19.5696C3.44065 19.5493 3.7085 17.5802 3.214 15.8546C2.71951 14.1291 1.48328 13.2156 1.46267 13.2156C1.48328 13.2156 0.700327 15.4892 1.31844 17.296Z" fill="white"/>
<path d="M7.17019 14.2711C5.83093 15.2049 4.28564 15.144 4.28564 15.144C4.26503 15.1643 4.90376 13.114 6.40784 12.1598C7.89132 11.226 9.3748 11.7538 9.3542 11.7538C9.3336 11.7538 8.48884 13.3373 7.17019 14.2711Z" fill="white"/>
<path d="M2.6785 12.4846C2.94635 14.3726 4.34741 15.144 4.34741 15.144C4.34741 15.1237 4.96553 13.2155 4.84191 11.3884C4.69768 9.56139 3.66748 8.42456 3.64688 8.42456C3.60567 8.42456 2.39004 10.5764 2.6785 12.4846Z" fill="white"/>
<path d="M8.98308 10.4751C7.479 11.1856 5.97491 10.8405 5.97491 10.8405C5.95431 10.8405 6.9845 8.912 8.67402 8.22178C10.3223 7.53157 11.6822 8.32329 11.6822 8.30298C11.6616 8.30298 10.4872 9.76462 8.98308 10.4751Z" fill="white"/>
<path d="M4.92422 7.91717C4.8006 9.86601 6.03683 10.8607 6.01623 10.881C6.01623 10.8607 7.00521 9.05399 7.25246 7.18635C7.49971 5.31871 6.71676 3.99918 6.69616 3.99918C6.71676 3.97888 5.04784 5.94802 4.92422 7.91717Z" fill="white"/>
<path d="M11.5999 6.96307C9.95158 7.42998 8.55051 6.84127 8.55051 6.82097C8.52991 6.82097 9.97218 5.03453 11.8059 4.60822C13.6191 4.18191 14.7935 5.19694 14.7935 5.19694C14.7523 5.19694 13.2276 6.47586 11.5999 6.96307Z" fill="white"/>
<path d="M8.13842 3.67431C7.58211 5.62316 8.61231 6.84118 8.59171 6.84118C8.59171 6.82088 9.97217 5.15625 10.6315 3.32921C11.2908 1.48187 10.8375 -6.68055e-05 10.8169 -6.68055e-05C10.8169 -0.0203673 8.67412 1.70517 8.13842 3.67431Z" fill="white"/>
<path d="M29.484 47.8278L29.4428 47.4624C26.4346 47.7263 23.4471 47.4015 20.5419 46.4879C17.7192 45.5947 15.1025 44.1737 12.7536 42.2858C7.91173 38.3678 4.77993 32.7648 3.95578 26.5123C3.29645 21.4169 3.64672 16.8493 5.00658 12.9922C6.46945 8.83062 9.08615 5.56225 12.7743 3.3089L12.5888 3.00439C8.8183 5.31865 6.1604 8.62762 4.67691 12.8704C3.29645 16.7884 2.94619 21.4169 3.62612 26.5732C4.47088 32.9069 7.64388 38.5911 12.5682 42.57C14.9377 44.4985 17.5956 45.9195 20.4595 46.8331C23.4059 47.7669 26.4346 48.112 29.484 47.8278Z" fill="white"/>
<path d="M28.8866 46.0007L26.1462 47.9902L28.8866 49.9999L31.6475 47.9902L28.8866 46.0007Z" fill="white"/>
<path d="M29.175 10.6577L31.771 16.4433L38.1583 15.7531L34.3671 20.8485L38.1583 25.9643L31.771 25.274L29.175 31.0597L26.5789 25.274L20.1917 25.9643L24.0034 20.8485L20.1917 15.7531L26.5789 16.4433L29.175 10.6577Z" fill="white"/>
<path d="M29.175 31.3236L26.5171 25.3756L19.9651 26.0861L23.8592 20.8486L19.9651 15.6111L26.5171 16.3216L29.175 10.3735L31.8329 16.3216L38.385 15.6111L34.4908 20.8486L38.385 26.0861L31.8329 25.3756L29.175 31.3236ZM26.6614 25.1726L26.7026 25.2538L29.1956 30.8161L31.7093 25.1726L37.9317 25.8425L34.2436 20.8689L34.2848 20.808L37.9111 15.875L31.6887 16.5449L29.175 10.9013L26.6614 16.5449L20.439 15.875L24.1271 20.8486L24.0859 20.9095L20.439 25.8222L26.6614 25.1726Z" fill="white"/>
</g>
<defs>
<clipPath id="clip0_129_13">
<rect width="58" height="50" fill="white"/>
</clipPath>
</defs>
</svg>
