<svg width="16" height="16" viewBox="0 0 16 16" fill="none" xmlns="http://www.w3.org/2000/svg">
<path d="M6.94298 13.3453C6.9411 13.3453 6.93892 13.3453 6.93704 13.3453C6.85954 13.3438 6.78642 13.3107 6.73392 13.2538L1.37579 7.42753C1.28392 7.32753 1.27548 7.1769 1.35579 7.06722C1.4361 6.95784 1.58235 6.92034 1.70548 6.97784L6.60954 9.27409C6.65079 9.29347 6.69954 9.28409 6.7311 9.25128L14.2117 1.43284C14.313 1.3269 14.4786 1.31534 14.5936 1.40659C14.7086 1.49784 14.7352 1.66159 14.6549 1.7844L7.2136 13.1838C7.20298 13.2003 7.19048 13.2153 7.17673 13.2294L7.14392 13.2622C7.09048 13.3153 7.01798 13.3453 6.94298 13.3453Z" fill="#0043ED"/>
</svg>
