<svg width="18" height="18" viewBox="0 0 18 18" fill="none" xmlns="http://www.w3.org/2000/svg">
<path d="M5.25 0.75V2.25H2.25C1.83579 2.25 1.5 2.58579 1.5 3V15C1.5 15.4142 1.83579 15.75 2.25 15.75H8.06595C7.24254 14.7228 6.75 13.4189 6.75 12C6.75 8.68628 9.43628 6 12.75 6C14.1689 6 15.4728 6.49254 16.5 7.31597V3C16.5 2.58579 16.1642 2.25 15.75 2.25H12.75V0.75H11.25V2.25H6.75V0.75H5.25ZM17.25 12C17.25 14.4853 15.2353 16.5 12.75 16.5C10.2647 16.5 8.25 14.4853 8.25 12C8.25 9.51472 10.2647 7.5 12.75 7.5C15.2353 7.5 17.25 9.51472 17.25 12ZM12 9V12.3106L13.7197 14.0303L14.7803 12.9697L13.5 11.6894V9H12Z" fill="white"/>
</svg>
