<svg width="30" height="30" viewBox="0 0 30 30" fill="none" xmlns="http://www.w3.org/2000/svg">
<g clip-path="url(#clip0_309_583)">
<path d="M13.75 11.875V16.25C13.75 19.0075 11.5075 21.25 8.75 21.25C8.05875 21.25 7.5 20.6912 7.5 20C7.5 19.3088 8.05875 18.75 8.75 18.75C10.1287 18.75 11.25 17.6287 11.25 16.25H9.375C8.34 16.25 7.5 15.41 7.5 14.375V12.5C7.5 11.1187 8.61875 10 10 10H11.875C12.91 10 13.75 10.84 13.75 11.875ZM20.625 10H18.75C17.3687 10 16.25 11.1187 16.25 12.5V14.375C16.25 15.41 17.09 16.25 18.125 16.25H20C20 17.6287 18.8787 18.75 17.5 18.75C16.8088 18.75 16.25 19.3088 16.25 20C16.25 20.6912 16.8088 21.25 17.5 21.25C20.2575 21.25 22.5 19.0075 22.5 16.25V11.875C22.5 10.84 21.66 10 20.625 10ZM30 6.25V23.75C30 27.1963 27.1963 30 23.75 30H6.25C2.80375 30 0 27.1963 0 23.75V6.25C0 2.80375 2.80375 0 6.25 0H23.75C27.1963 0 30 2.80375 30 6.25ZM27.5 6.25C27.5 4.1825 25.8175 2.5 23.75 2.5H6.25C4.1825 2.5 2.5 4.1825 2.5 6.25V23.75C2.5 25.8175 4.1825 27.5 6.25 27.5H23.75C25.8175 27.5 27.5 25.8175 27.5 23.75V6.25Z" fill="#0043ED"/>
</g>
<defs>
<clipPath id="clip0_309_583">
<rect width="30" height="30" fill="white"/>
</clipPath>
</defs>
</svg>
