<svg width="52" height="52" viewBox="0 0 52 52" fill="none" xmlns="http://www.w3.org/2000/svg">
<path d="M15.3086 49.2557C13.9853 49.2557 12.7086 48.7296 11.7682 47.7881C9.81816 45.8381 9.81816 42.6633 11.7682 40.7113L20.0993 32.3801C20.3766 32.1028 20.8275 32.1028 21.1048 32.3801C21.3821 32.6574 21.3821 33.1083 21.1048 33.3856L12.7736 41.7167C11.3771 43.1142 11.3771 45.3862 12.7736 46.7827C13.4927 47.5028 14.487 47.8826 15.5036 47.8278C16.5182 47.7719 17.4658 47.2854 18.1016 46.4922L26.1839 36.4172L22.2565 31.077C22.0239 30.7612 22.092 30.3153 22.4079 30.0828C22.7247 29.8502 23.1696 29.9182 23.4021 30.2341L27.6536 36.015C27.8445 36.275 27.8374 36.6295 27.6353 36.8813L19.2107 47.3819C18.322 48.4899 16.9996 49.1704 15.5808 49.2476C15.4894 49.2527 15.399 49.2557 15.3086 49.2557Z" fill="#E55E04"/>
<path d="M31.6816 31.4112C31.4998 31.4112 31.318 31.3421 31.1788 31.203L26.7304 26.7546C26.4531 26.4773 26.4531 26.0264 26.7304 25.7491L32.4778 20.0007L30.9971 14.4726C30.931 14.2268 31.0011 13.9658 31.1809 13.786L37.8505 7.11644C38.0303 6.93667 38.2923 6.8666 38.5371 6.93261L43.2983 8.20925C43.5441 8.27527 43.735 8.4662 43.801 8.71199C43.8671 8.95777 43.797 9.21878 43.6172 9.39855L38.5299 14.4858L39.4816 18.0415L43.0393 18.9942L48.1266 13.9069C48.3063 13.7271 48.5684 13.6571 48.8131 13.7231C49.0589 13.7891 49.2499 13.98 49.3159 14.2258L50.5925 18.9871C50.6585 19.2328 50.5885 19.4939 50.4087 19.6736L43.7391 26.3432C43.5593 26.523 43.2973 26.5931 43.0525 26.5271L37.1995 24.9589L34.1465 28.7635C33.9007 29.0702 33.4538 29.1189 33.1471 28.8732C32.8404 28.6274 32.7917 28.1795 33.0374 27.8738L36.3809 23.7067C36.5576 23.4863 36.8471 23.3918 37.1192 23.465L43.0241 25.0473L49.1128 18.9586L48.2617 15.7828L43.7553 20.2891C43.5756 20.4689 43.3146 20.5389 43.0688 20.4729L38.7188 19.308C38.4731 19.242 38.2821 19.05 38.2161 18.8053L37.0522 14.4564C36.9862 14.2106 37.0563 13.9496 37.236 13.7698L41.7424 9.26347L38.5665 8.41238L32.4778 14.501L33.9586 20.0291C34.0246 20.2749 33.9545 20.5359 33.7748 20.7157L28.2396 26.2518L32.1853 30.1975C32.4626 30.4748 32.4626 30.9257 32.1853 31.203C32.0462 31.3411 31.8634 31.4112 31.6816 31.4112Z" fill="#E55E04"/>
<path d="M38.334 49.2548C36.6044 49.2548 34.9743 48.4148 33.9729 47.0072L19.2291 26.9618C18.9965 26.6459 19.0645 26.2001 19.3804 25.9675C19.6963 25.7349 20.1421 25.803 20.3747 26.1188L35.1226 46.1683C35.1246 46.1713 35.1277 46.1744 35.1297 46.1784C35.8762 47.2296 37.0441 47.8329 38.335 47.8329C39.3811 47.8329 40.3662 47.4246 41.1077 46.6832C41.8491 45.9418 42.2573 44.9556 42.2573 43.9065C42.2573 42.8573 41.8491 41.8722 41.1077 41.1298L21.4787 21.5028L18.4541 24.5273C18.1769 24.8046 17.7259 24.8046 17.4487 24.5273C17.1714 24.2501 17.1714 23.7991 17.4487 23.5219L20.977 19.9936C21.2542 19.7163 21.7052 19.7163 21.9824 19.9936L42.1131 40.1243C43.1237 41.1348 43.6792 42.4775 43.6792 43.9065C43.6792 45.3345 43.1227 46.6781 42.1131 47.6887C41.1016 48.6992 39.7599 49.2548 38.334 49.2548Z" fill="#1E1C2A"/>
<path d="M16.8575 25.8293C16.6757 25.8293 16.4939 25.7603 16.3547 25.6211L13.9548 23.2222C13.8197 23.0871 13.7446 22.9033 13.7466 22.7114C13.7487 22.5204 13.8279 22.3376 13.966 22.2056L19.4473 16.9548C19.7266 16.6867 20.1684 16.6917 20.4416 16.965L22.7258 19.2491C23.003 19.5264 23.003 19.9773 22.7258 20.2546L17.3602 25.6201C17.2221 25.7592 17.0393 25.8293 16.8575 25.8293ZM15.4742 22.7307L16.8575 24.1129L21.2186 19.7518L19.9297 18.463L15.4742 22.7307Z" fill="#E55E04"/>
<path d="M18.7436 14.5213C18.5618 14.5213 18.38 14.4523 18.2408 14.3131L14.0473 10.1196C13.77 9.84233 13.77 9.3914 14.0473 9.11413L15.1726 7.98882L14.6486 5.57163C14.5978 5.33499 14.6699 5.08921 14.8405 4.91858L16.8068 2.95233C17.084 2.67507 17.535 2.67507 17.8122 2.95233L25.4071 10.5472C25.6843 10.8244 25.6843 11.2754 25.4071 11.5526L23.4408 13.5189C23.2702 13.6895 23.0234 13.7616 22.7878 13.7108L20.3706 13.1868L19.2453 14.3121C19.1071 14.4512 18.9254 14.5213 18.7436 14.5213ZM15.5555 9.61687L18.7436 12.8049L19.6404 11.9081C19.811 11.7375 20.0568 11.6644 20.2934 11.7162L22.7106 12.2402L23.8999 11.0509L17.3095 4.46054L16.1202 5.64983L16.6443 8.06702C16.695 8.30366 16.6229 8.54944 16.4523 8.72007L15.5555 9.61687Z" fill="#1E1C2A"/>
<path d="M3.24206 24.9133C3.21566 24.9133 3.19027 24.9123 3.16386 24.9092C2.94956 24.8859 2.75761 24.766 2.64183 24.5832C1.66886 23.0486 1.23823 21.2032 1.42816 19.3863C1.62113 17.5419 2.45089 15.8031 3.76511 14.4899L7.69761 10.6539C7.97894 10.3797 8.42886 10.3858 8.70308 10.6661C8.9773 10.9474 8.9712 11.3973 8.69089 11.6716L4.76448 15.5015C2.78503 17.482 2.27316 20.5248 3.41269 23.0273L7.85808 18.5819C8.13534 18.3046 8.58628 18.3046 8.86355 18.5819L13.2125 22.9308L20.1817 16.2541L12.2547 8.32712L11.818 8.74555C11.5346 9.01672 11.0847 9.00758 10.8125 8.72422C10.5414 8.44087 10.5505 7.99094 10.8339 7.71876L11.7733 6.81891C12.0526 6.5518 12.4944 6.55587 12.7676 6.82907L21.701 15.7625C21.8361 15.8976 21.9113 16.0814 21.9093 16.2723C21.9072 16.4633 21.828 16.6461 21.6899 16.7781L13.6939 24.439C13.4146 24.7061 12.9728 24.702 12.6996 24.4288L8.3598 20.0891L3.7448 24.7041C3.61073 24.8391 3.42995 24.9133 3.24206 24.9133Z" fill="#1E1C2A"/>
<path d="M9.72363 10.4193C9.67793 10.4193 9.63121 10.4142 9.58551 10.4051C9.5398 10.3959 9.49512 10.3827 9.45246 10.3644C9.40879 10.3472 9.36816 10.3248 9.32957 10.2994C9.29098 10.273 9.25441 10.2436 9.2209 10.2111C9.1884 10.1786 9.15895 10.142 9.13254 10.1034C9.10715 10.0648 9.08582 10.0232 9.06754 9.98052C9.05027 9.93685 9.03605 9.89216 9.02691 9.84747C9.01777 9.80177 9.0127 9.75505 9.0127 9.70833C9.0127 9.52146 9.08887 9.33763 9.2209 9.2056C9.25441 9.1731 9.29098 9.14263 9.32957 9.11724C9.36816 9.09185 9.40879 9.0695 9.45246 9.05224C9.49512 9.03396 9.5398 9.02076 9.58551 9.01161C9.81605 8.9649 10.0618 9.04107 10.2264 9.2056C10.3594 9.33763 10.4346 9.52146 10.4346 9.70833C10.4346 9.89521 10.3594 10.079 10.2264 10.2111C10.0943 10.3431 9.91152 10.4193 9.72363 10.4193Z" fill="#1E1C2A"/>
</svg>
