<svg width="52" height="52" viewBox="0 0 52 52" fill="none" xmlns="http://www.w3.org/2000/svg">
<path d="M14.4147 32.4199C14.1395 32.4199 13.8775 32.2585 13.7617 31.9893C13.1229 30.5035 12.7979 28.9211 12.7979 27.2849C12.7979 20.7006 18.1543 15.3442 24.7386 15.3442C25.1316 15.3442 25.4495 15.6621 25.4495 16.0552C25.4495 16.4482 25.1316 16.7661 24.7386 16.7661C18.9383 16.7661 14.2197 21.4847 14.2197 27.2849C14.2197 28.7261 14.5051 30.1195 15.0678 31.4277C15.2232 31.7882 15.0566 32.2067 14.6961 32.3621C14.6036 32.4006 14.5082 32.4199 14.4147 32.4199Z" fill="#1E1C2A"/>
<path d="M24.7386 39.2257C23.1045 39.2257 21.5221 38.9017 20.0363 38.2639C19.8199 38.1704 19.6635 37.9764 19.6188 37.7449C19.5742 37.5133 19.6473 37.2746 19.8138 37.1081L34.5617 22.3612C34.7283 22.1946 34.967 22.1215 35.1985 22.1662C35.4301 22.2109 35.6241 22.3673 35.7175 22.5836C36.3563 24.0705 36.6793 25.6518 36.6793 27.285C36.6793 33.8693 31.3229 39.2257 24.7386 39.2257ZM21.6024 37.3295C22.6109 37.6443 23.662 37.8038 24.7386 37.8038C30.5388 37.8038 35.2574 33.0852 35.2574 27.285C35.2574 26.2094 35.098 25.1582 34.7831 24.1497L21.6024 37.3295Z" fill="#1E1C2A"/>
<path d="M10.4864 36.3473C10.2427 36.3473 10.005 36.2214 9.87301 35.9959C9.07168 34.6319 8.46637 33.1725 8.06926 31.649L5.04473 31.2997C4.68621 31.258 4.41504 30.9543 4.41504 30.5938V24.5996C4.41504 24.239 4.6852 23.9354 5.04371 23.8937L7.91488 23.5606C8.30184 21.8066 8.9559 20.1379 9.8659 18.5861L7.97379 16.1973C7.74934 15.914 7.7727 15.5087 8.02863 15.2528L12.2668 11.0146C12.5218 10.7597 12.928 10.7363 13.2114 10.9597L15.4772 12.7554C16.9946 11.7854 18.6368 11.0674 20.3746 10.6144L20.7239 7.58989C20.7656 7.23138 21.0693 6.96021 21.4298 6.96021H27.424C27.7846 6.96021 28.0882 7.23036 28.1299 7.58888L28.463 10.46C30.22 10.848 31.8948 11.5051 33.4477 12.4182C33.7859 12.6172 33.8996 13.0529 33.7006 13.3911C33.5015 13.7293 33.0658 13.8431 32.7276 13.644C31.1656 12.7249 29.4685 12.0891 27.685 11.7519C27.3793 11.694 27.1468 11.4442 27.1112 11.1354L26.7913 8.38106H22.0646L21.7314 11.2675C21.6969 11.5661 21.4775 11.8118 21.184 11.8789C19.2686 12.3186 17.4709 13.1058 15.8418 14.2189C15.5849 14.3946 15.2436 14.3824 14.9999 14.1894L12.8264 12.4669L9.48402 15.8093L11.2898 18.0884C11.4767 18.324 11.495 18.6521 11.3355 18.907C10.2894 20.5767 9.57441 22.4038 9.2098 24.3365C9.15191 24.6422 8.90207 24.8748 8.59332 24.9114L5.83895 25.2313V29.958L8.72535 30.2911C9.02395 30.3257 9.26973 30.545 9.33676 30.8386C9.69426 32.3976 10.2884 33.8895 11.1009 35.2738C11.3 35.612 11.1862 36.0477 10.848 36.2468C10.7332 36.3148 10.6093 36.3473 10.4864 36.3473Z" fill="#1E1C2A"/>
<path d="M28.0465 47.6085H22.0523C21.6917 47.6085 21.3881 47.3383 21.3464 46.9798L21.0133 44.1086C19.2563 43.7206 17.5825 43.0635 16.0296 42.1515C15.8397 42.0398 15.7128 41.8468 15.6843 41.6285C15.6569 41.4101 15.731 41.1917 15.8864 41.0353L19.8128 37.1079L38.4892 18.4336C38.6446 18.2782 38.8639 18.2031 39.0823 18.2315C39.3006 18.2599 39.4936 18.3869 39.6053 18.5768C40.4056 19.9418 41.011 21.4013 41.4081 22.9227L44.4326 23.272C44.7911 23.3137 45.0623 23.6174 45.0623 23.9779V29.9721C45.0623 30.3327 44.7921 30.6363 44.4336 30.678L41.5624 31.0111C41.1755 32.7651 40.5214 34.4338 39.6114 35.9856L41.5035 38.3734C41.728 38.6567 41.7046 39.062 41.4487 39.3179L37.2105 43.5561C36.9556 43.811 36.5493 43.8344 36.266 43.611L34.0001 41.8153C32.3416 42.8756 30.5317 43.6364 28.6122 44.0761C28.2293 44.1645 27.8485 43.9248 27.7601 43.5419C27.6717 43.159 27.9114 42.7781 28.2943 42.6898C30.2098 42.25 32.0074 41.4629 33.6365 40.3498C33.8935 40.1741 34.2347 40.1863 34.4785 40.3792L36.6519 42.1017L39.9943 38.7593L38.1885 36.4803C38.0017 36.2446 37.9834 35.9166 38.1428 35.6617C39.1889 33.992 39.9039 32.1649 40.2685 30.2321C40.3264 29.9264 40.5763 29.6938 40.885 29.6573L43.6394 29.3374V24.6106L40.753 24.2775C40.4544 24.243 40.2086 24.0236 40.1416 23.7301C39.8531 22.4738 39.4114 21.2591 38.8233 20.1094L17.5622 41.3705C18.8947 42.052 20.3135 42.5364 21.7923 42.8157C22.098 42.8736 22.3306 43.1235 22.3661 43.4322L22.686 46.1866H27.4148C27.4808 45.8199 27.821 45.564 28.1958 45.6067C28.5858 45.6513 28.8651 46.0048 28.8204 46.3948L28.7524 46.9788C28.7107 47.3373 28.4071 47.6085 28.0465 47.6085Z" fill="#1E1C2A"/>
<path d="M8.52601 50.6057C7.53273 50.6057 6.57093 50.4056 5.66702 50.0105C5.30749 49.8531 5.14296 49.4347 5.29937 49.0741C5.45679 48.7146 5.87523 48.55 6.23577 48.7075C6.9589 49.0233 7.72976 49.1838 8.52601 49.1838C11.6876 49.1838 14.2592 46.6122 14.2592 43.4506C14.2592 43.2993 14.2541 43.1632 14.243 43.0332C14.2257 42.825 14.3009 42.6198 14.4491 42.4725L19.8126 37.109L39.4914 17.4313C39.6244 17.2982 39.8052 17.2231 39.9941 17.2231H44.9869L49.2058 13.0032L49.2069 8.25309L43.7814 13.6786C43.6483 13.8116 43.4676 13.8868 43.2787 13.8868C43.0898 13.8868 42.909 13.8116 42.7759 13.6786L38.3478 9.2484C38.0705 8.97113 38.0705 8.5202 38.3478 8.24293L43.7733 2.81746L39.0222 2.81848L34.8043 7.03738L34.8033 12.0312C34.8033 12.2201 34.7281 12.4009 34.5951 12.5339L23.02 24.107C22.7427 24.3843 22.2918 24.3843 22.0145 24.107C21.7373 23.8297 21.7373 23.3788 22.0145 23.1015L33.3804 11.7346L33.3814 6.74082C33.3814 6.55191 33.4566 6.37113 33.5896 6.23809L38.2239 1.60277C38.3569 1.46973 38.5377 1.39457 38.7266 1.39457L45.2815 1.39355C45.4704 1.39355 45.6512 1.46871 45.7842 1.60176L45.8878 1.70535C46.1651 1.98262 46.1651 2.43355 45.8878 2.71082L39.854 8.74465L43.2776 12.1683L49.3115 6.13348C49.4445 6.00043 49.6253 5.92527 49.8142 5.92527C49.8152 5.92527 49.8152 5.92527 49.8162 5.92527C50.0051 5.92527 50.1869 6.00144 50.32 6.13652L50.4226 6.24012C50.5546 6.37316 50.6277 6.55293 50.6277 6.7398L50.6267 13.2946C50.6267 13.4836 50.5516 13.6643 50.4185 13.7974L45.7832 18.4337C45.6502 18.5668 45.4694 18.6419 45.2805 18.6419H40.2876L15.678 43.2536C15.6801 43.3175 15.6811 43.3825 15.6811 43.4506C15.6811 47.3963 12.4707 50.6057 8.52601 50.6057Z" fill="#E55E04"/>
<path d="M4.06445 48.622C4.01875 48.622 3.97203 48.617 3.92531 48.6078C3.88063 48.5987 3.83594 48.5855 3.79227 48.5672C3.74961 48.5499 3.70797 48.5276 3.67039 48.5022C3.63078 48.4768 3.59422 48.4463 3.56172 48.4138C3.52922 48.3813 3.49977 48.3448 3.47336 48.3062C3.44797 48.2676 3.42563 48.226 3.40836 48.1833C3.39008 48.1406 3.37687 48.096 3.36773 48.0503C3.35859 48.0045 3.35352 47.9578 3.35352 47.9111C3.35352 47.8654 3.35859 47.8187 3.36773 47.772C3.37687 47.7273 3.39008 47.6826 3.40836 47.6389C3.42563 47.5963 3.44797 47.5546 3.47336 47.517C3.49977 47.4774 3.52922 47.4409 3.56172 47.4084C3.59422 47.3759 3.63078 47.3464 3.67039 47.32C3.70797 47.2946 3.74961 47.2723 3.79227 47.255C3.83594 47.2367 3.88063 47.2235 3.92531 47.2144C4.01773 47.1961 4.11219 47.1961 4.20359 47.2144C4.2493 47.2235 4.29398 47.2367 4.33664 47.255C4.3793 47.2723 4.42094 47.2946 4.45953 47.32C4.49812 47.3464 4.53469 47.3759 4.56719 47.4084C4.59969 47.4409 4.63016 47.4774 4.65555 47.517C4.68094 47.5546 4.70328 47.5963 4.72055 47.6389C4.73883 47.6826 4.75203 47.7273 4.76117 47.772C4.77133 47.8187 4.77539 47.8654 4.77539 47.9111C4.77539 47.9578 4.77133 48.0045 4.76117 48.0503C4.75203 48.096 4.73883 48.1406 4.72055 48.1833C4.70328 48.226 4.68094 48.2676 4.65555 48.3062C4.63016 48.3448 4.59969 48.3813 4.56719 48.4138C4.53469 48.4463 4.49812 48.4768 4.45953 48.5022C4.42094 48.5276 4.3793 48.5499 4.33664 48.5672C4.29398 48.5855 4.2493 48.5987 4.20359 48.6078C4.15789 48.617 4.11117 48.622 4.06445 48.622Z" fill="#1E1C2A"/>
<path d="M2.66703 46.8468C2.39789 46.8468 2.13992 46.6935 2.02008 46.4325C1.58945 45.494 1.37109 44.4906 1.37109 43.4506C1.37109 39.5049 4.58047 36.2955 8.52617 36.2955C8.62266 36.2955 8.71914 36.2975 8.81562 36.3016L18.398 26.7192C18.6753 26.4419 19.1262 26.4419 19.4035 26.7192C19.6808 26.9964 19.6808 27.4474 19.4035 27.7247L9.59359 37.5346C9.4443 37.6839 9.23508 37.759 9.02586 37.7397C8.86234 37.7245 8.69476 37.7174 8.52617 37.7174C5.36453 37.7174 2.79297 40.2889 2.79297 43.4506C2.79297 44.2844 2.96766 45.0878 3.31297 45.8393C3.47648 46.1958 3.32008 46.6183 2.96359 46.7818C2.86711 46.8255 2.76656 46.8468 2.66703 46.8468Z" fill="#E55E04"/>
<path d="M8.52603 46.9342C8.35643 46.9342 8.18885 46.922 8.02635 46.8977C6.509 46.6824 5.29432 45.4687 5.079 43.9452C5.05564 43.7888 5.04346 43.6202 5.04346 43.4506C5.04346 41.5301 6.6065 39.967 8.52705 39.967C10.4476 39.967 12.0106 41.5301 12.0106 43.4506C12.0106 45.3712 10.4466 46.9342 8.52603 46.9342ZM8.52603 41.3889C7.38955 41.3889 6.46432 42.3142 6.46432 43.4506C6.46432 43.5492 6.47143 43.6467 6.48564 43.7401C6.61361 44.646 7.33166 45.3631 8.2315 45.491C8.33002 45.5063 8.42752 45.5124 8.52603 45.5124C9.66252 45.5124 10.5878 44.5871 10.5878 43.4506C10.5878 42.3142 9.66252 41.3889 8.52603 41.3889Z" fill="#1E1C2A"/>
<path d="M8.52603 46.9342C8.35643 46.9342 8.18885 46.922 8.02635 46.8977C6.509 46.6824 5.29432 45.4687 5.079 43.9452C5.05564 43.7888 5.04346 43.6202 5.04346 43.4506C5.04346 41.5301 6.6065 39.967 8.52705 39.967C10.4476 39.967 12.0106 41.5301 12.0106 43.4506C12.0106 45.3712 10.4466 46.9342 8.52603 46.9342ZM8.52603 41.3889C7.38955 41.3889 6.46432 42.3142 6.46432 43.4506C6.46432 43.5492 6.47143 43.6467 6.48564 43.7401C6.61361 44.646 7.33166 45.3631 8.2315 45.491C8.33002 45.5063 8.42752 45.5124 8.52603 45.5124C9.66252 45.5124 10.5878 44.5871 10.5878 43.4506C10.5878 42.3142 9.66252 41.3889 8.52603 41.3889Z" fill="#1E1C2A"/>
</svg>
