<svg width="52" height="52" viewBox="0 0 52 52" fill="none" xmlns="http://www.w3.org/2000/svg">
<path d="M21.9305 27.2502C21.7416 27.2502 21.5609 27.1751 21.4278 27.042L19.0756 24.6899C18.7984 24.4126 18.7984 23.9617 19.0756 23.6844L19.5865 23.1735L19.3285 21.9842C19.2777 21.7476 19.3498 21.5018 19.5205 21.3312L20.6234 20.2282C20.9007 19.9509 21.3516 19.9509 21.6289 20.2282L25.8884 24.4877C26.0215 24.6208 26.0966 24.8016 26.0966 24.9905C26.0966 25.1794 26.0215 25.3602 25.8884 25.4932L24.7855 26.5962C24.6148 26.7668 24.368 26.8399 24.1324 26.7881L22.9431 26.5302L22.4323 27.041C22.3002 27.1751 22.1195 27.2502 21.9305 27.2502ZM20.5838 24.1871L21.9305 25.5338L22.2129 25.2515C22.3835 25.0809 22.6303 25.0077 22.8659 25.0595L24.0552 25.3175L24.3812 24.9915L21.1272 21.7374L20.8012 22.0634L21.0591 23.2527C21.1099 23.4894 21.0378 23.7352 20.8672 23.9058L20.5838 24.1871Z" fill="#E55E04"/>
<path d="M13.2367 33.0778C13.2103 33.0778 13.1849 33.0768 13.1585 33.0738C12.9442 33.0504 12.7522 32.9306 12.6364 32.7477C11.4278 30.8414 11.7102 28.2973 13.3098 26.6987L15.5188 24.5445C15.5218 24.5415 15.5259 24.5374 15.5289 24.5344L17.2819 22.8931L17.806 22.3914C18.0853 22.1243 18.5271 22.1284 18.8003 22.4016L23.8103 27.4117C23.9454 27.5467 24.0206 27.7306 24.0185 27.9215C24.0165 28.1124 23.9373 28.2952 23.7992 28.4273L19.3142 32.7234C19.0349 32.9915 18.5931 32.9864 18.3199 32.7132L16.1078 30.5012L13.7404 32.8686C13.6053 33.0037 13.4235 33.0778 13.2367 33.0778ZM16.1068 28.7858C16.2886 28.7858 16.4704 28.8549 16.6096 28.994L18.8328 31.2172L22.291 27.9042L18.2864 23.8996L18.262 23.923C18.2599 23.925 18.2579 23.927 18.2559 23.9281L16.506 25.5673L14.3092 27.7102C13.4053 28.6142 13.0975 29.9538 13.454 31.1451L15.6051 28.994C15.7422 28.8559 15.925 28.7858 16.1068 28.7858Z" fill="#E55E04"/>
<path d="M32.9175 46.731C31.847 46.731 30.8385 46.211 30.2179 45.3406L21.9507 34.1007C21.7182 33.7848 21.7862 33.339 22.1021 33.1064C22.4179 32.8738 22.8638 32.9419 23.0964 33.2577L31.3676 44.5017C31.3696 44.5048 31.3727 44.5078 31.3747 44.5119C31.7343 45.0176 32.2959 45.3081 32.9175 45.3081C33.4212 45.3081 33.8945 45.1111 34.252 44.7546C34.6095 44.3981 34.8055 43.9228 34.8055 43.418C34.8055 42.9133 34.6085 42.439 34.252 42.0815L23.464 31.2945L21.9883 32.7702C21.7111 33.0475 21.2601 33.0475 20.9829 32.7702C20.7056 32.493 20.7056 32.042 20.9829 31.7648L22.9613 29.7863C23.2386 29.5091 23.6895 29.5091 23.9668 29.7863L35.2564 41.076C35.8821 41.7016 36.2264 42.5334 36.2264 43.418C36.2264 44.3026 35.8821 45.1344 35.2564 45.7601C34.6318 46.3857 33.8011 46.731 32.9175 46.731Z" fill="#E55E04"/>
<path d="M20.004 46.7308C19.1793 46.7308 18.383 46.4028 17.797 45.8168C16.5813 44.6011 16.5813 42.6226 17.797 41.4069L22.4699 36.734C22.7472 36.4568 23.1981 36.4568 23.4754 36.734C23.7527 37.0113 23.7527 37.4622 23.4754 37.7395L18.8025 42.4124C18.1413 43.0746 18.1413 44.1512 18.8025 44.8123C19.1488 45.1587 19.6069 45.3344 20.0954 45.3079C20.5829 45.2815 21.0206 45.0571 21.3263 44.6752L25.7098 39.2122L23.6491 36.4101C23.4165 36.0942 23.4845 35.6483 23.8004 35.4158C24.1173 35.1832 24.5621 35.2512 24.7947 35.5671L27.1794 38.809C27.3703 39.0679 27.3632 39.4234 27.1611 39.6753L22.4364 45.5649C21.8829 46.2555 21.0582 46.679 20.1746 46.7278C20.1167 46.7288 20.0598 46.7308 20.004 46.7308Z" fill="#E55E04"/>
<path d="M29.187 36.723C29.0052 36.723 28.8234 36.6539 28.6843 36.5148L26.1899 34.0204C25.9126 33.7431 25.9126 33.2922 26.1899 33.0149L29.2855 29.9183L28.5014 26.9923C28.4354 26.7465 28.5055 26.4855 28.6853 26.3057L32.4258 22.5652C32.6056 22.3854 32.8676 22.3153 33.1124 22.3813L35.7825 23.0974C36.0282 23.1634 36.2192 23.3553 36.2852 23.6001C36.3512 23.8459 36.2811 24.1069 36.1014 24.2867L33.3754 27.0126L33.8162 28.6589L35.4625 29.0997L38.1885 26.3738C38.3682 26.194 38.6303 26.1239 38.875 26.1899C39.1208 26.256 39.3118 26.4469 39.3778 26.6927L40.0938 29.3627C40.1598 29.6085 40.0897 29.8695 39.91 30.0493L36.1694 33.7899C35.9896 33.9696 35.7276 34.0397 35.4829 33.9737L32.3974 33.147L30.813 35.1224C30.5672 35.4281 30.1193 35.4778 29.8136 35.232C29.5069 34.9863 29.4582 34.5384 29.7039 34.2327L31.5788 31.8957C31.7555 31.6753 32.045 31.5809 32.3172 31.654L35.4544 32.4949L38.614 29.3353L38.3236 28.2506L36.1786 30.3956C35.9988 30.5754 35.7378 30.6455 35.492 30.5795L33.0525 29.9264C32.8067 29.8604 32.6157 29.6685 32.5497 29.4237L31.8967 26.9842C31.8307 26.7384 31.9007 26.4774 32.0805 26.2976L34.2255 24.1526L33.1408 23.8621L29.9812 27.0217L30.7653 29.9477C30.8313 30.1935 30.7612 30.4545 30.5814 30.6343L27.6981 33.5187L29.6897 35.5103C29.967 35.7876 29.967 36.2385 29.6897 36.5158C29.5506 36.6529 29.3688 36.723 29.187 36.723Z" fill="#E55E04"/>
<path d="M49.918 25.3316H42.1555C41.9666 25.3316 41.7848 25.2565 41.6508 25.1214L26 9.36397L10.3492 25.1214C10.2162 25.2555 10.0344 25.3316 9.84445 25.3316H2.08203C1.79461 25.3316 1.53563 25.159 1.42594 24.8939C1.31523 24.6288 1.37516 24.3231 1.57828 24.12L21.1148 4.44632C21.2479 4.31226 21.4297 4.23608 21.6196 4.23608H30.3804C30.5693 4.23608 30.7511 4.31124 30.8852 4.44632L33.5735 7.15397C33.8498 7.43226 33.8488 7.88218 33.5705 8.15944C33.2922 8.43569 32.8413 8.43468 32.565 8.1564L30.0848 5.65897H21.9152L3.79031 23.9098H9.54891L25.4952 7.85374C25.6283 7.71968 25.8101 7.64351 26 7.64351C26.1899 7.64351 26.3707 7.71866 26.5048 7.85374L42.4511 23.9098H48.2097L36.531 12.1498C36.2548 11.8716 36.2558 11.4206 36.5341 11.1444C36.8123 10.8681 37.2633 10.8691 37.5395 11.1474L50.4217 24.119C50.6238 24.3231 50.6838 24.6278 50.5741 24.8929C50.4644 25.159 50.2054 25.3316 49.918 25.3316Z" fill="#1E1C2A"/>
<path d="M35.2859 10.6102C35.1051 10.6102 34.9233 10.5411 34.7852 10.404C34.5069 10.1277 34.5049 9.6768 34.7811 9.39852L34.7953 9.3843C35.0716 9.10602 35.5225 9.10399 35.8008 9.38024C36.0791 9.65649 36.0811 10.1074 35.8049 10.3857L35.7907 10.3999C35.6515 10.5401 35.4687 10.6102 35.2859 10.6102Z" fill="#1E1C2A"/>
<path d="M9.61572 38.2047C9.42885 38.2047 9.24604 38.1285 9.11299 37.9965C9.08049 37.964 9.05104 37.9274 9.02463 37.8889C8.99924 37.8503 8.97689 37.8086 8.95963 37.766C8.94135 37.7223 8.92814 37.6776 8.919 37.6329C8.90986 37.5872 8.90479 37.5395 8.90479 37.4938C8.90479 37.4471 8.90986 37.4003 8.919 37.3546C8.92814 37.3099 8.94135 37.2642 8.95963 37.2216C8.97689 37.1789 8.99924 37.1373 9.02463 37.0987C9.05104 37.0601 9.08049 37.0235 9.11299 36.991C9.1465 36.9585 9.18205 36.9291 9.22166 36.9027C9.26025 36.8773 9.30088 36.8549 9.34455 36.8377C9.38721 36.8194 9.43189 36.8062 9.4776 36.7971C9.569 36.7788 9.66346 36.7778 9.75486 36.7971C9.80057 36.8062 9.84525 36.8194 9.88791 36.8377C9.93057 36.8549 9.97221 36.8773 10.0108 36.9027C10.0494 36.9291 10.086 36.9585 10.1185 36.991C10.152 37.0235 10.1814 37.0601 10.2068 37.0987C10.2332 37.1373 10.2546 37.1789 10.2728 37.2216C10.2901 37.2642 10.3043 37.3099 10.3135 37.3546C10.3226 37.4003 10.3267 37.4471 10.3267 37.4938C10.3267 37.5395 10.3226 37.5872 10.3135 37.6329C10.3043 37.6776 10.2901 37.7223 10.2728 37.766C10.2546 37.8086 10.2332 37.8503 10.2068 37.8889C10.1814 37.9274 10.152 37.964 10.1185 37.9965C10.086 38.029 10.0494 38.0585 10.0108 38.0849C9.97221 38.1103 9.93057 38.1326 9.88791 38.1499C9.84525 38.1681 9.80057 38.1814 9.75486 38.1905C9.70916 38.1996 9.66244 38.2047 9.61572 38.2047Z" fill="#1E1C2A"/>
<path d="M42.3839 50.6289H9.61572C9.22268 50.6289 8.90479 50.311 8.90479 49.918V40.623C8.90479 40.2299 9.22268 39.9121 9.61572 39.9121C10.0088 39.9121 10.3267 40.2299 10.3267 40.623V49.2071H41.6719V30.7349C41.6719 30.3418 41.9898 30.0239 42.3828 30.0239C42.7759 30.0239 43.0938 30.3418 43.0938 30.7349V49.918C43.0948 50.311 42.7759 50.6289 42.3839 50.6289Z" fill="#1E1C2A"/>
<path d="M9.61572 35.0756C9.22268 35.0756 8.90479 34.7577 8.90479 34.3646V24.6207C8.90479 24.2521 9.1851 23.9484 9.54463 23.9129L25.495 7.85379C25.6281 7.71973 25.8099 7.64355 25.9998 7.64355C26.1897 7.64355 26.3705 7.71871 26.5046 7.85379L42.4549 23.9129C42.8145 23.9484 43.0948 24.2511 43.0948 24.6207C43.0948 25.0138 42.7769 25.3317 42.3839 25.3317H42.1553C41.9664 25.3317 41.7846 25.2565 41.6506 25.1214L25.9998 9.36402L10.349 25.1214C10.3419 25.1286 10.3348 25.1357 10.3267 25.1428V34.3646C10.3267 34.7577 10.0088 35.0756 9.61572 35.0756Z" fill="#1E1C2A"/>
</svg>
