<svg width="186" height="369" viewBox="0 0 186 369" fill="none" xmlns="http://www.w3.org/2000/svg">
<path d="M186.278 246.002H145.105L124.519 307.498L145.105 369H186.278V246.002Z" fill="white" fill-opacity="0.09" stroke="white" stroke-opacity="0.06" stroke-miterlimit="10" stroke-linecap="square"/>
<path d="M124.518 184.5H83.3458L62.7593 246.002L83.3458 307.498H124.518V184.5Z" fill="white" fill-opacity="0.09" stroke="white" stroke-opacity="0.06" stroke-miterlimit="10" stroke-linecap="square"/>
<path d="M186.278 184.5H124.519V246.002H186.278V184.5Z" fill="white" fill-opacity="0.09" stroke="white" stroke-opacity="0.06" stroke-miterlimit="10" stroke-linecap="square"/>
<path d="M186.278 245.996H124.519V307.498H186.278V245.996Z" fill="white" fill-opacity="0.09" stroke="white" stroke-opacity="0.06" stroke-miterlimit="10" stroke-linecap="square"/>
<path d="M186.278 122.998H145.105L124.519 184.5L145.105 246.002H186.278V122.998Z" fill="white" fill-opacity="0.09" stroke="white" stroke-opacity="0.06" stroke-miterlimit="10" stroke-linecap="square"/>
<path d="M62.7591 122.998H21.5864L1 184.5L21.5864 246.002H62.7591V122.998Z" fill="white" fill-opacity="0.09" stroke="white" stroke-opacity="0.06" stroke-miterlimit="10" stroke-linecap="square"/>
<path d="M124.518 122.998H62.7593V184.5H124.518V122.998Z" fill="white" fill-opacity="0.09" stroke="white" stroke-opacity="0.06" stroke-miterlimit="10" stroke-linecap="square"/>
<path d="M124.518 184.495H62.7593V245.997H124.518V184.495Z" fill="white" fill-opacity="0.09" stroke="white" stroke-opacity="0.06" stroke-miterlimit="10" stroke-linecap="square"/>
<path d="M124.518 61.4971H83.3458L62.7593 122.999L83.3458 184.501H124.518V61.4971Z" fill="white" fill-opacity="0.09" stroke="white" stroke-opacity="0.06" stroke-miterlimit="10" stroke-linecap="square"/>
<path d="M186.278 61.4971H124.519V122.999H186.278V61.4971Z" fill="white" fill-opacity="0.09" stroke="white" stroke-opacity="0.06" stroke-miterlimit="10" stroke-linecap="square"/>
<path d="M186.278 122.998H124.519V184.5H186.278V122.998Z" fill="white" fill-opacity="0.09" stroke="white" stroke-opacity="0.06" stroke-miterlimit="10" stroke-linecap="square"/>
<path d="M186.278 0H145.105L124.519 61.4963L145.105 122.998H186.278V0Z" fill="white" fill-opacity="0.09" stroke="white" stroke-opacity="0.06" stroke-miterlimit="10" stroke-linecap="square"/>
</svg>
