<svg width="160" height="44" viewBox="0 0 160 44" fill="none" xmlns="http://www.w3.org/2000/svg">
<g clip-path="url(#clip0_217_912)">
<mask id="mask0_217_912" style="mask-type:luminance" maskUnits="userSpaceOnUse" x="0" y="3" width="39" height="39">
<path d="M39 3H0V42H39V3Z" fill="white"/>
</mask>
<g mask="url(#mask0_217_912)">
<path d="M8.64322 26.5683L7.28569 31.6362L2.32393 31.7411C0.84109 28.9908 0 25.8441 0 22.5001C0 19.2666 0.786399 16.2172 2.18035 13.5322H2.18141L6.59877 14.3421L8.53384 18.733C8.12883 19.9137 7.90809 21.1812 7.90809 22.5001C7.90824 23.9316 8.16753 25.303 8.64322 26.5683Z" fill="#F3CB5F"/>
<path d="M38.6593 18.8569C38.8832 20.0366 39 21.2548 39 22.4998C39 23.8959 38.8532 25.2577 38.5736 26.5713C37.6243 31.0412 35.1439 34.9444 31.708 37.7066L31.7069 37.7055L26.143 37.4216L25.3555 32.5059C27.6355 31.1688 29.4173 29.0763 30.3559 26.5713H19.9287V18.8569H30.508H38.6593Z" fill="#518EF8"/>
<path d="M31.7066 37.7059L31.7077 37.7069C28.3659 40.393 24.1208 42.0001 19.4998 42.0001C12.0737 42.0001 5.61732 37.8495 2.32373 31.7413L8.64302 26.5684C10.2898 30.9634 14.5294 34.092 19.4998 34.092C21.6362 34.092 23.6377 33.5144 25.3551 32.5062L31.7066 37.7059Z" fill="#28B446"/>
<path d="M31.9466 7.48926L25.6294 12.661C23.852 11.55 21.7509 10.9082 19.4999 10.9082C14.4169 10.9082 10.098 14.1802 8.53375 18.7329L2.18124 13.5321H2.18018C5.42555 7.27499 11.9634 3 19.4999 3C24.2313 3 28.5695 4.68538 31.9466 7.48926Z" fill="#F14336"/>
</g>
</g>
<path d="M62.0245 1.46352C62.1741 1.00287 62.8259 1.00287 62.9755 1.46353L64.5206 6.21885C64.5876 6.42486 64.7795 6.56434 64.9962 6.56434H69.9962C70.4806 6.56434 70.6819 7.18415 70.2901 7.46885L66.245 10.4078C66.0697 10.5351 65.9964 10.7608 66.0633 10.9668L67.6084 15.7221C67.7581 16.1828 67.2309 16.5659 66.839 16.2812L62.7939 13.3422C62.6186 13.2149 62.3814 13.2149 62.2061 13.3422L58.161 16.2812C57.7691 16.5659 57.2419 16.1828 57.3916 15.7221L58.9367 10.9668C59.0036 10.7608 58.9303 10.5351 58.755 10.4078L54.7099 7.46885C54.3181 7.18415 54.5194 6.56434 55.0038 6.56434H60.0038C60.2205 6.56434 60.4124 6.42486 60.4794 6.21885L62.0245 1.46352Z" fill="#E55E04"/>
<path d="M84.0245 1.46352C84.1741 1.00287 84.8259 1.00287 84.9755 1.46353L86.5206 6.21885C86.5876 6.42486 86.7795 6.56434 86.9962 6.56434H91.9962C92.4806 6.56434 92.6819 7.18415 92.2901 7.46885L88.245 10.4078C88.0697 10.5351 87.9964 10.7608 88.0633 10.9668L89.6084 15.7221C89.7581 16.1828 89.2309 16.5659 88.839 16.2812L84.7939 13.3422C84.6186 13.2149 84.3814 13.2149 84.2061 13.3422L80.161 16.2812C79.7691 16.5659 79.2419 16.1828 79.3916 15.7221L80.9367 10.9668C81.0036 10.7608 80.9303 10.5351 80.755 10.4078L76.7099 7.46885C76.3181 7.18415 76.5194 6.56434 77.0038 6.56434H82.0038C82.2205 6.56434 82.4124 6.42486 82.4794 6.21885L84.0245 1.46352Z" fill="#E55E04"/>
<path d="M106.024 1.46352C106.174 1.00287 106.826 1.00287 106.976 1.46353L108.521 6.21885C108.588 6.42486 108.78 6.56434 108.996 6.56434H113.996C114.481 6.56434 114.682 7.18415 114.29 7.46885L110.245 10.4078C110.07 10.5351 109.996 10.7608 110.063 10.9668L111.608 15.7221C111.758 16.1828 111.231 16.5659 110.839 16.2812L106.794 13.3422C106.619 13.2149 106.381 13.2149 106.206 13.3422L102.161 16.2812C101.769 16.5659 101.242 16.1828 101.392 15.7221L102.937 10.9668C103.004 10.7608 102.93 10.5351 102.755 10.4078L98.7099 7.46885C98.3181 7.18415 98.5194 6.56434 99.0038 6.56434H104.004C104.22 6.56434 104.412 6.42486 104.479 6.21885L106.024 1.46352Z" fill="#E55E04"/>
<path d="M128.024 1.46352C128.174 1.00287 128.826 1.00287 128.976 1.46353L130.521 6.21885C130.588 6.42486 130.78 6.56434 130.996 6.56434H135.996C136.481 6.56434 136.682 7.18415 136.29 7.46885L132.245 10.4078C132.07 10.5351 131.996 10.7608 132.063 10.9668L133.608 15.7221C133.758 16.1828 133.231 16.5659 132.839 16.2812L128.794 13.3422C128.619 13.2149 128.381 13.2149 128.206 13.3422L124.161 16.2812C123.769 16.5659 123.242 16.1828 123.392 15.7221L124.937 10.9668C125.004 10.7608 124.93 10.5351 124.755 10.4078L120.71 7.46885C120.318 7.18415 120.519 6.56434 121.004 6.56434H126.004C126.22 6.56434 126.412 6.42486 126.479 6.21885L128.024 1.46352Z" fill="#E55E04"/>
<path d="M150.024 1.46352C150.174 1.00287 150.826 1.00287 150.976 1.46353L152.521 6.21885C152.588 6.42486 152.78 6.56434 152.996 6.56434H157.996C158.481 6.56434 158.682 7.18415 158.29 7.46885L154.245 10.4078C154.07 10.5351 153.996 10.7608 154.063 10.9668L155.608 15.7221C155.758 16.1828 155.231 16.5659 154.839 16.2812L150.794 13.3422C150.619 13.2149 150.381 13.2149 150.206 13.3422L146.161 16.2812C145.769 16.5659 145.242 16.1828 145.392 15.7221L146.937 10.9668C147.004 10.7608 146.93 10.5351 146.755 10.4078L142.71 7.46885C142.318 7.18415 142.519 6.56434 143.004 6.56434H148.004C148.22 6.56434 148.412 6.42486 148.479 6.21885L150.024 1.46352Z" fill="#E55E04"/>
<path d="M57.55 33.214C58.2967 33.214 58.8987 33.298 59.356 33.466C59.8133 33.6247 60.1447 33.9047 60.35 34.306C60.5647 34.7073 60.672 35.272 60.672 36C60.672 36.5227 60.6113 36.9613 60.49 37.316C60.3687 37.6613 60.1773 37.932 59.916 38.128C59.664 38.3147 59.3233 38.436 58.894 38.492V38.562C59.0527 38.5993 59.2067 38.6787 59.356 38.8C59.5147 38.912 59.6593 39.066 59.79 39.262C59.9207 39.4487 60.0187 39.6773 60.084 39.948L61.022 43H59.706L58.852 39.976C58.7307 39.612 58.5673 39.3553 58.362 39.206C58.1567 39.0473 57.8907 38.968 57.564 38.968C56.9947 38.968 56.5 38.968 56.08 38.968C55.66 38.9587 55.31 38.9493 55.03 38.94C54.75 38.9307 54.526 38.926 54.358 38.926L54.4 37.904H57.522C57.998 37.8947 58.3713 37.8387 58.642 37.736C58.922 37.6333 59.1227 37.4513 59.244 37.19C59.3653 36.9193 59.426 36.546 59.426 36.07C59.426 35.594 59.3653 35.23 59.244 34.978C59.1227 34.7167 58.922 34.5347 58.642 34.432C58.3713 34.3293 57.998 34.278 57.522 34.278C56.7567 34.278 56.094 34.2827 55.534 34.292C54.9833 34.3013 54.61 34.306 54.414 34.306L54.218 33.34C54.5727 33.3027 54.904 33.2747 55.212 33.256C55.52 33.2373 55.856 33.228 56.22 33.228C56.5933 33.2187 57.0367 33.214 57.55 33.214ZM55.436 33.34V43H54.218V33.34H55.436ZM65.4779 36.014C66.5046 36.014 67.2466 36.2007 67.7039 36.574C68.1706 36.9473 68.4039 37.5027 68.4039 38.24C68.4133 38.8467 68.2873 39.3227 68.0259 39.668C67.7646 40.004 67.3493 40.172 66.7799 40.172H62.8039V39.248H66.4719C66.7799 39.248 66.9806 39.1453 67.0739 38.94C67.1673 38.7253 67.2139 38.492 67.2139 38.24C67.2046 37.8013 67.0739 37.4887 66.8219 37.302C66.5699 37.1153 66.1406 37.022 65.5339 37.022C65.0393 37.022 64.6473 37.0967 64.3579 37.246C64.0779 37.386 63.8773 37.638 63.7559 38.002C63.6439 38.3567 63.5879 38.856 63.5879 39.5C63.5879 40.228 63.6579 40.7833 63.7979 41.166C63.9473 41.5487 64.1806 41.81 64.4979 41.95C64.8153 42.09 65.2353 42.16 65.7579 42.16C66.1219 42.16 66.5186 42.146 66.9479 42.118C67.3866 42.0807 67.7786 42.0387 68.1239 41.992L68.2499 42.79C68.0353 42.874 67.7693 42.944 67.4519 43C67.1439 43.056 66.8219 43.098 66.4859 43.126C66.1593 43.154 65.8653 43.168 65.6039 43.168C64.8199 43.168 64.1899 43.0513 63.7139 42.818C63.2379 42.5753 62.8879 42.1927 62.6639 41.67C62.4493 41.138 62.3419 40.438 62.3419 39.57C62.3419 38.674 62.4493 37.9693 62.6639 37.456C62.8879 36.9333 63.2286 36.5647 63.6859 36.35C64.1526 36.126 64.7499 36.014 65.4779 36.014ZM76.2185 36.182L73.7265 42.706C73.6891 42.7993 73.6331 42.874 73.5585 42.93C73.4931 42.9767 73.4091 43 73.3065 43H72.2285C72.1351 43 72.0511 42.9767 71.9765 42.93C71.9018 42.874 71.8458 42.7993 71.8085 42.706L69.3165 36.182H70.5905L72.2705 40.956C72.3451 41.152 72.4151 41.3527 72.4805 41.558C72.5458 41.7633 72.6111 41.9593 72.6765 42.146H72.8585C72.9331 41.95 73.0031 41.754 73.0685 41.558C73.1431 41.3527 73.2131 41.152 73.2785 40.956L74.9585 36.182H76.2185ZM78.8123 36.182V43H77.6363V36.182H78.8123ZM78.5043 33.284C78.7469 33.284 78.8683 33.4053 78.8683 33.648V34.446C78.8683 34.6887 78.7469 34.81 78.5043 34.81H77.9443C77.7016 34.81 77.5803 34.6887 77.5803 34.446V33.648C77.5803 33.4053 77.7016 33.284 77.9443 33.284H78.5043ZM83.8529 36.014C84.8796 36.014 85.6216 36.2007 86.0789 36.574C86.5456 36.9473 86.7789 37.5027 86.7789 38.24C86.7883 38.8467 86.6623 39.3227 86.4009 39.668C86.1396 40.004 85.7243 40.172 85.1549 40.172H81.1789V39.248H84.8469C85.1549 39.248 85.3556 39.1453 85.4489 38.94C85.5423 38.7253 85.5889 38.492 85.5889 38.24C85.5796 37.8013 85.4489 37.4887 85.1969 37.302C84.9449 37.1153 84.5156 37.022 83.9089 37.022C83.4143 37.022 83.0223 37.0967 82.7329 37.246C82.4529 37.386 82.2523 37.638 82.1309 38.002C82.0189 38.3567 81.9629 38.856 81.9629 39.5C81.9629 40.228 82.0329 40.7833 82.1729 41.166C82.3223 41.5487 82.5556 41.81 82.8729 41.95C83.1903 42.09 83.6103 42.16 84.1329 42.16C84.4969 42.16 84.8936 42.146 85.3229 42.118C85.7616 42.0807 86.1536 42.0387 86.4989 41.992L86.6249 42.79C86.4103 42.874 86.1443 42.944 85.8269 43C85.5189 43.056 85.1969 43.098 84.8609 43.126C84.5343 43.154 84.2403 43.168 83.9789 43.168C83.1949 43.168 82.5649 43.0513 82.0889 42.818C81.6129 42.5753 81.2629 42.1927 81.0389 41.67C80.8243 41.138 80.7169 40.438 80.7169 39.57C80.7169 38.674 80.8243 37.9693 81.0389 37.456C81.2629 36.9333 81.6036 36.5647 82.0609 36.35C82.5276 36.126 83.1249 36.014 83.8529 36.014ZM98.6665 36.182L96.6785 42.664C96.6505 42.7667 96.5945 42.8507 96.5105 42.916C96.4265 42.972 96.3285 43 96.2165 43H95.1385C95.0265 43 94.9238 42.9673 94.8305 42.902C94.7465 42.8273 94.6951 42.734 94.6765 42.622L93.5565 37.988C93.5191 37.8107 93.4818 37.6333 93.4445 37.456C93.4165 37.2787 93.3791 37.0967 93.3325 36.91H93.1645C93.1271 37.0967 93.0851 37.2787 93.0385 37.456C93.0011 37.6333 92.9638 37.8107 92.9265 37.988L91.8205 42.622C91.7925 42.734 91.7365 42.8273 91.6525 42.902C91.5685 42.9673 91.4658 43 91.3445 43H90.2805C90.1685 43 90.0705 42.972 89.9865 42.916C89.9025 42.8507 89.8465 42.7667 89.8185 42.664L87.8305 36.182H89.0625L90.4765 41.208C90.5231 41.376 90.5651 41.5487 90.6025 41.726C90.6398 41.894 90.6725 42.062 90.7005 42.23H90.8825C90.9291 42.062 90.9711 41.894 91.0085 41.726C91.0551 41.5487 91.0971 41.376 91.1345 41.208L92.2685 36.56C92.2871 36.448 92.3338 36.3593 92.4085 36.294C92.4925 36.2193 92.5951 36.182 92.7165 36.182H93.7945C93.9065 36.182 93.9998 36.2193 94.0745 36.294C94.1585 36.3593 94.2145 36.4527 94.2425 36.574L95.3625 41.208C95.3998 41.376 95.4371 41.544 95.4745 41.712C95.5211 41.88 95.5631 42.0527 95.6005 42.23H95.7825C95.8291 42.0527 95.8665 41.8847 95.8945 41.726C95.9225 41.558 95.9645 41.3853 96.0205 41.208L97.4345 36.182H98.6665ZM106.483 33.34L103.781 39.052C103.697 39.2387 103.693 39.3833 103.767 39.486C103.851 39.5793 103.973 39.626 104.131 39.626H109.857V40.508L108.569 40.634H103.445C103.184 40.634 102.965 40.5593 102.787 40.41C102.61 40.2607 102.493 40.0693 102.437 39.836C102.391 39.6027 102.419 39.3693 102.521 39.136L105.265 33.34H106.483ZM108.611 35.188V43H107.449V36.784L107.659 35.188H108.611ZM112.269 41.348C112.437 41.348 112.553 41.3807 112.619 41.446C112.684 41.5113 112.717 41.628 112.717 41.796V42.552C112.717 42.72 112.684 42.8367 112.619 42.902C112.553 42.9673 112.437 43 112.269 43H111.877C111.718 43 111.601 42.9673 111.527 42.902C111.461 42.8367 111.429 42.72 111.429 42.552V41.796C111.429 41.628 111.461 41.5113 111.527 41.446C111.601 41.3807 111.718 41.348 111.877 41.348H112.269ZM117.54 33.172C118.24 33.172 118.8 33.256 119.22 33.424C119.649 33.5827 119.971 33.8487 120.186 34.222C120.4 34.5953 120.54 35.0947 120.606 35.72C120.68 36.3453 120.718 37.1247 120.718 38.058C120.718 39.1407 120.648 40.018 120.508 40.69C120.368 41.362 120.148 41.88 119.85 42.244C119.56 42.5987 119.178 42.8413 118.702 42.972C118.226 43.1027 117.652 43.168 116.98 43.168C116.765 43.168 116.471 43.1587 116.098 43.14C115.734 43.1213 115.332 43.0607 114.894 42.958L115.006 42.048C115.23 42.0667 115.43 42.0807 115.608 42.09C115.785 42.0993 115.976 42.104 116.182 42.104C116.396 42.104 116.662 42.104 116.98 42.104C117.465 42.104 117.871 42.048 118.198 41.936C118.524 41.824 118.786 41.6233 118.982 41.334C119.178 41.0353 119.318 40.62 119.402 40.088C119.486 39.556 119.528 38.87 119.528 38.03C119.528 37.2927 119.509 36.6813 119.472 36.196C119.444 35.7013 119.369 35.3093 119.248 35.02C119.126 34.7307 118.93 34.5253 118.66 34.404C118.389 34.2827 118.011 34.222 117.526 34.222C116.994 34.222 116.588 34.3107 116.308 34.488C116.037 34.6653 115.855 34.922 115.762 35.258C115.668 35.594 115.622 36.0047 115.622 36.49C115.622 36.9567 115.668 37.3533 115.762 37.68C115.864 37.9973 116.046 38.24 116.308 38.408C116.569 38.576 116.928 38.66 117.386 38.66C117.694 38.66 117.974 38.6227 118.226 38.548C118.487 38.464 118.753 38.3287 119.024 38.142C119.294 37.946 119.607 37.68 119.962 37.344L120.018 37.946C119.719 38.3847 119.425 38.73 119.136 38.982C118.856 39.2247 118.552 39.3973 118.226 39.5C117.899 39.5933 117.512 39.64 117.064 39.64C116.401 39.64 115.878 39.5047 115.496 39.234C115.113 38.9633 114.842 38.59 114.684 38.114C114.525 37.638 114.446 37.0967 114.446 36.49C114.446 35.7527 114.539 35.1413 114.726 34.656C114.922 34.1613 115.244 33.7927 115.692 33.55C116.149 33.298 116.765 33.172 117.54 33.172ZM128.548 33.34L123.046 43.924H122.066L127.568 33.34H128.548ZM135.36 33.34L135.304 34.39H131.244L131.104 37.022L132.14 37.106C132.775 37.1527 133.311 37.2367 133.75 37.358C134.198 37.4793 134.562 37.6567 134.842 37.89C135.122 38.1233 135.323 38.422 135.444 38.786C135.575 39.1407 135.64 39.5793 135.64 40.102C135.64 40.494 135.598 40.872 135.514 41.236C135.439 41.6 135.29 41.9267 135.066 42.216C134.851 42.5053 134.539 42.7387 134.128 42.916C133.717 43.084 133.181 43.168 132.518 43.168C132.135 43.168 131.692 43.14 131.188 43.084C130.684 43.028 130.171 42.9393 129.648 42.818L129.788 41.824C130.227 41.8987 130.665 41.9593 131.104 42.006C131.543 42.0527 131.921 42.076 132.238 42.076C132.854 42.076 133.316 42.0013 133.624 41.852C133.932 41.6933 134.142 41.4693 134.254 41.18C134.366 40.8813 134.427 40.522 134.436 40.102C134.445 39.654 134.389 39.304 134.268 39.052C134.156 38.7907 133.969 38.5993 133.708 38.478C133.456 38.3473 133.115 38.2587 132.686 38.212C132.266 38.156 131.748 38.1093 131.132 38.072L130.488 38.03C130.348 38.0113 130.231 37.9553 130.138 37.862C130.054 37.7593 130.017 37.6333 130.026 37.484L130.25 33.34H135.36ZM138.218 41.348C138.386 41.348 138.502 41.3807 138.568 41.446C138.633 41.5113 138.666 41.628 138.666 41.796V42.552C138.666 42.72 138.633 42.8367 138.568 42.902C138.502 42.9673 138.386 43 138.218 43H137.826C137.667 43 137.55 42.9673 137.476 42.902C137.41 42.8367 137.378 42.72 137.378 42.552V41.796C137.378 41.628 137.41 41.5113 137.476 41.446C137.55 41.3807 137.667 41.348 137.826 41.348H138.218ZM143.839 33.158C144.67 33.158 145.328 33.3307 145.813 33.676C146.298 34.0213 146.644 34.5627 146.849 35.3C147.064 36.0373 147.171 36.994 147.171 38.17C147.171 39.346 147.064 40.3027 146.849 41.04C146.644 41.7773 146.298 42.3187 145.813 42.664C145.328 43.0093 144.67 43.182 143.839 43.182C143.018 43.182 142.364 43.0093 141.879 42.664C141.394 42.3187 141.044 41.7773 140.829 41.04C140.624 40.3027 140.521 39.346 140.521 38.17C140.521 36.994 140.624 36.0373 140.829 35.3C141.044 34.5627 141.394 34.0213 141.879 33.676C142.364 33.3307 143.018 33.158 143.839 33.158ZM143.839 34.236C143.438 34.236 143.102 34.3107 142.831 34.46C142.56 34.6 142.341 34.824 142.173 35.132C142.014 35.44 141.898 35.846 141.823 36.35C141.758 36.8447 141.725 37.4513 141.725 38.17C141.725 38.8793 141.758 39.486 141.823 39.99C141.898 40.494 142.014 40.9 142.173 41.208C142.341 41.516 142.56 41.7447 142.831 41.894C143.102 42.034 143.438 42.104 143.839 42.104C144.24 42.104 144.576 42.034 144.847 41.894C145.127 41.7447 145.346 41.516 145.505 41.208C145.673 40.9 145.79 40.494 145.855 39.99C145.93 39.486 145.967 38.8793 145.967 38.17C145.967 37.4513 145.93 36.8447 145.855 36.35C145.79 35.846 145.673 35.44 145.505 35.132C145.346 34.824 145.127 34.6 144.847 34.46C144.576 34.3107 144.24 34.236 143.839 34.236Z" fill="#616161"/>
<defs>
<clipPath id="clip0_217_912">
<rect width="39" height="39" fill="white" transform="translate(0 3)"/>
</clipPath>
</defs>
</svg>
