<svg width="207" height="46" viewBox="0 0 207 46" fill="none" xmlns="http://www.w3.org/2000/svg">
<path d="M113.864 35.172C114.564 35.172 115.124 35.256 115.544 35.424C115.973 35.5827 116.295 35.8487 116.51 36.222C116.725 36.5953 116.865 37.0947 116.93 37.72C117.005 38.3453 117.042 39.1247 117.042 40.058C117.042 41.1407 116.972 42.018 116.832 42.69C116.692 43.362 116.473 43.88 116.174 44.244C115.885 44.5987 115.502 44.8413 115.026 44.972C114.55 45.1027 113.976 45.168 113.304 45.168C113.089 45.168 112.795 45.1587 112.422 45.14C112.058 45.1213 111.657 45.0607 111.218 44.958L111.33 44.048C111.554 44.0667 111.755 44.0807 111.932 44.09C112.109 44.0993 112.301 44.104 112.506 44.104C112.721 44.104 112.987 44.104 113.304 44.104C113.789 44.104 114.195 44.048 114.522 43.936C114.849 43.824 115.11 43.6233 115.306 43.334C115.502 43.0353 115.642 42.62 115.726 42.088C115.81 41.556 115.852 40.87 115.852 40.03C115.852 39.2927 115.833 38.6813 115.796 38.196C115.768 37.7013 115.693 37.3093 115.572 37.02C115.451 36.7307 115.255 36.5253 114.984 36.404C114.713 36.2827 114.335 36.222 113.85 36.222C113.318 36.222 112.912 36.3107 112.632 36.488C112.361 36.6653 112.179 36.922 112.086 37.258C111.993 37.594 111.946 38.0047 111.946 38.49C111.946 38.9567 111.993 39.3533 112.086 39.68C112.189 39.9973 112.371 40.24 112.632 40.408C112.893 40.576 113.253 40.66 113.71 40.66C114.018 40.66 114.298 40.6227 114.55 40.548C114.811 40.464 115.077 40.3287 115.348 40.142C115.619 39.946 115.931 39.68 116.286 39.344L116.342 39.946C116.043 40.3847 115.749 40.73 115.46 40.982C115.18 41.2247 114.877 41.3973 114.55 41.5C114.223 41.5933 113.836 41.64 113.388 41.64C112.725 41.64 112.203 41.5047 111.82 41.234C111.437 40.9633 111.167 40.59 111.008 40.114C110.849 39.638 110.77 39.0967 110.77 38.49C110.77 37.7527 110.863 37.1413 111.05 36.656C111.246 36.1613 111.568 35.7927 112.016 35.55C112.473 35.298 113.089 35.172 113.864 35.172ZM122.688 35.172C122.884 35.172 123.159 35.1813 123.514 35.2C123.868 35.2187 124.242 35.2793 124.634 35.382L124.522 36.278C124.316 36.2593 124.125 36.2453 123.948 36.236C123.78 36.2267 123.598 36.222 123.402 36.222C123.206 36.222 122.968 36.222 122.688 36.222C122.212 36.222 121.81 36.2733 121.484 36.376C121.157 36.4787 120.896 36.6747 120.7 36.964C120.504 37.2533 120.364 37.678 120.28 38.238C120.196 38.798 120.154 39.5353 120.154 40.45C120.154 41.15 120.172 41.738 120.21 42.214C120.247 42.69 120.331 43.068 120.462 43.348C120.602 43.6187 120.807 43.8147 121.078 43.936C121.358 44.0573 121.736 44.118 122.212 44.118C122.762 44.118 123.168 44.034 123.43 43.866C123.7 43.6887 123.873 43.432 123.948 43.096C124.032 42.76 124.074 42.354 124.074 41.878C124.074 41.346 124.022 40.9213 123.92 40.604C123.826 40.2867 123.649 40.058 123.388 39.918C123.126 39.7687 122.758 39.694 122.282 39.694C121.974 39.694 121.689 39.7313 121.428 39.806C121.166 39.8807 120.9 40.016 120.63 40.212C120.359 40.3987 120.046 40.6647 119.692 41.01L119.636 40.394C119.944 39.9553 120.238 39.6147 120.518 39.372C120.798 39.12 121.101 38.9473 121.428 38.854C121.764 38.7513 122.156 38.7 122.604 38.7C123.285 38.7 123.817 38.8027 124.2 39.008C124.582 39.2133 124.853 39.5493 125.012 40.016C125.17 40.4733 125.25 41.094 125.25 41.878C125.25 42.3727 125.212 42.8253 125.138 43.236C125.063 43.6373 124.918 43.9827 124.704 44.272C124.489 44.5613 124.181 44.7853 123.78 44.944C123.378 45.0933 122.851 45.168 122.198 45.168C121.516 45.168 120.961 45.0933 120.532 44.944C120.102 44.7853 119.771 44.524 119.538 44.16C119.314 43.796 119.155 43.3107 119.062 42.704C118.978 42.088 118.936 41.3227 118.936 40.408C118.936 39.2693 119.01 38.3547 119.16 37.664C119.318 36.9733 119.552 36.4507 119.86 36.096C120.168 35.732 120.555 35.4893 121.022 35.368C121.498 35.2373 122.053 35.172 122.688 35.172ZM130.643 35.34L127.941 41.052C127.857 41.2387 127.853 41.3833 127.927 41.486C128.011 41.5793 128.133 41.626 128.291 41.626H134.017V42.508L132.729 42.634H127.605C127.344 42.634 127.125 42.5593 126.947 42.41C126.77 42.2607 126.653 42.0693 126.597 41.836C126.551 41.6027 126.579 41.3693 126.681 41.136L129.425 35.34H130.643ZM132.771 37.188V45H131.609V38.784L131.819 37.188H132.771ZM141.553 40.366V41.262H135.421V40.366H141.553ZM138.949 37.902L138.935 43.74H138.039L138.025 37.902H138.949ZM150.015 35.214C150.762 35.214 151.364 35.298 151.821 35.466C152.278 35.6247 152.61 35.9047 152.815 36.306C153.03 36.7073 153.137 37.272 153.137 38C153.137 38.5227 153.076 38.9613 152.955 39.316C152.834 39.6613 152.642 39.932 152.381 40.128C152.129 40.3147 151.788 40.436 151.359 40.492V40.562C151.518 40.5993 151.672 40.6787 151.821 40.8C151.98 40.912 152.124 41.066 152.255 41.262C152.386 41.4487 152.484 41.6773 152.549 41.948L153.487 45H152.171L151.317 41.976C151.196 41.612 151.032 41.3553 150.827 41.206C150.622 41.0473 150.356 40.968 150.029 40.968C149.46 40.968 148.965 40.968 148.545 40.968C148.125 40.9587 147.775 40.9493 147.495 40.94C147.215 40.9307 146.991 40.926 146.823 40.926L146.865 39.904H149.987C150.463 39.8947 150.836 39.8387 151.107 39.736C151.387 39.6333 151.588 39.4513 151.709 39.19C151.83 38.9193 151.891 38.546 151.891 38.07C151.891 37.594 151.83 37.23 151.709 36.978C151.588 36.7167 151.387 36.5347 151.107 36.432C150.836 36.3293 150.463 36.278 149.987 36.278C149.222 36.278 148.559 36.2827 147.999 36.292C147.448 36.3013 147.075 36.306 146.879 36.306L146.683 35.34C147.038 35.3027 147.369 35.2747 147.677 35.256C147.985 35.2373 148.321 35.228 148.685 35.228C149.058 35.2187 149.502 35.214 150.015 35.214ZM147.901 35.34V45H146.683V35.34H147.901ZM157.943 38.014C158.969 38.014 159.711 38.2007 160.169 38.574C160.635 38.9473 160.869 39.5027 160.869 40.24C160.878 40.8467 160.752 41.3227 160.491 41.668C160.229 42.004 159.814 42.172 159.245 42.172H155.269V41.248H158.937C159.245 41.248 159.445 41.1453 159.539 40.94C159.632 40.7253 159.679 40.492 159.679 40.24C159.669 39.8013 159.539 39.4887 159.287 39.302C159.035 39.1153 158.605 39.022 157.999 39.022C157.504 39.022 157.112 39.0967 156.823 39.246C156.543 39.386 156.342 39.638 156.221 40.002C156.109 40.3567 156.053 40.856 156.053 41.5C156.053 42.228 156.123 42.7833 156.263 43.166C156.412 43.5487 156.645 43.81 156.963 43.95C157.28 44.09 157.7 44.16 158.223 44.16C158.587 44.16 158.983 44.146 159.413 44.118C159.851 44.0807 160.243 44.0387 160.589 43.992L160.715 44.79C160.5 44.874 160.234 44.944 159.917 45C159.609 45.056 159.287 45.098 158.951 45.126C158.624 45.154 158.33 45.168 158.069 45.168C157.285 45.168 156.655 45.0513 156.179 44.818C155.703 44.5753 155.353 44.1927 155.129 43.67C154.914 43.138 154.807 42.438 154.807 41.57C154.807 40.674 154.914 39.9693 155.129 39.456C155.353 38.9333 155.693 38.5647 156.151 38.35C156.617 38.126 157.215 38.014 157.943 38.014ZM168.683 38.182L166.191 44.706C166.154 44.7993 166.098 44.874 166.023 44.93C165.958 44.9767 165.874 45 165.771 45H164.693C164.6 45 164.516 44.9767 164.441 44.93C164.367 44.874 164.311 44.7993 164.273 44.706L161.781 38.182H163.055L164.735 42.956C164.81 43.152 164.88 43.3527 164.945 43.558C165.011 43.7633 165.076 43.9593 165.141 44.146H165.323C165.398 43.95 165.468 43.754 165.533 43.558C165.608 43.3527 165.678 43.152 165.743 42.956L167.423 38.182H168.683ZM171.277 38.182V45H170.101V38.182H171.277ZM170.969 35.284C171.212 35.284 171.333 35.4053 171.333 35.648V36.446C171.333 36.6887 171.212 36.81 170.969 36.81H170.409C170.166 36.81 170.045 36.6887 170.045 36.446V35.648C170.045 35.4053 170.166 35.284 170.409 35.284H170.969ZM176.318 38.014C177.344 38.014 178.086 38.2007 178.544 38.574C179.01 38.9473 179.244 39.5027 179.244 40.24C179.253 40.8467 179.127 41.3227 178.866 41.668C178.604 42.004 178.189 42.172 177.62 42.172H173.644V41.248H177.312C177.62 41.248 177.82 41.1453 177.914 40.94C178.007 40.7253 178.054 40.492 178.054 40.24C178.044 39.8013 177.914 39.4887 177.662 39.302C177.41 39.1153 176.98 39.022 176.374 39.022C175.879 39.022 175.487 39.0967 175.198 39.246C174.918 39.386 174.717 39.638 174.596 40.002C174.484 40.3567 174.428 40.856 174.428 41.5C174.428 42.228 174.498 42.7833 174.638 43.166C174.787 43.5487 175.02 43.81 175.338 43.95C175.655 44.09 176.075 44.16 176.598 44.16C176.962 44.16 177.358 44.146 177.788 44.118C178.226 44.0807 178.618 44.0387 178.964 43.992L179.09 44.79C178.875 44.874 178.609 44.944 178.292 45C177.984 45.056 177.662 45.098 177.326 45.126C176.999 45.154 176.705 45.168 176.444 45.168C175.66 45.168 175.03 45.0513 174.554 44.818C174.078 44.5753 173.728 44.1927 173.504 43.67C173.289 43.138 173.182 42.438 173.182 41.57C173.182 40.674 173.289 39.9693 173.504 39.456C173.728 38.9333 174.068 38.5647 174.526 38.35C174.992 38.126 175.59 38.014 176.318 38.014ZM191.131 38.182L189.143 44.664C189.115 44.7667 189.059 44.8507 188.975 44.916C188.891 44.972 188.793 45 188.681 45H187.603C187.491 45 187.389 44.9673 187.295 44.902C187.211 44.8273 187.16 44.734 187.141 44.622L186.021 39.988C185.984 39.8107 185.947 39.6333 185.909 39.456C185.881 39.2787 185.844 39.0967 185.797 38.91H185.629C185.592 39.0967 185.55 39.2787 185.503 39.456C185.466 39.6333 185.429 39.8107 185.391 39.988L184.285 44.622C184.257 44.734 184.201 44.8273 184.117 44.902C184.033 44.9673 183.931 45 183.809 45H182.745C182.633 45 182.535 44.972 182.451 44.916C182.367 44.8507 182.311 44.7667 182.283 44.664L180.295 38.182H181.527L182.941 43.208C182.988 43.376 183.03 43.5487 183.067 43.726C183.105 43.894 183.137 44.062 183.165 44.23H183.347C183.394 44.062 183.436 43.894 183.473 43.726C183.52 43.5487 183.562 43.376 183.599 43.208L184.733 38.56C184.752 38.448 184.799 38.3593 184.873 38.294C184.957 38.2193 185.06 38.182 185.181 38.182H186.259C186.371 38.182 186.465 38.2193 186.539 38.294C186.623 38.3593 186.679 38.4527 186.707 38.574L187.827 43.208C187.865 43.376 187.902 43.544 187.939 43.712C187.986 43.88 188.028 44.0527 188.065 44.23H188.247C188.294 44.0527 188.331 43.8847 188.359 43.726C188.387 43.558 188.429 43.3853 188.485 43.208L189.899 38.182H191.131ZM194.844 38.014C195.143 38.014 195.46 38.0233 195.796 38.042C196.132 38.0607 196.464 38.084 196.79 38.112C197.126 38.14 197.434 38.1773 197.714 38.224L197.616 39.092C197.187 39.0733 196.753 39.0593 196.314 39.05C195.885 39.0313 195.456 39.022 195.026 39.022C194.606 39.0127 194.275 39.022 194.032 39.05C193.79 39.078 193.612 39.1527 193.5 39.274C193.398 39.3953 193.346 39.6007 193.346 39.89C193.346 40.2447 193.43 40.478 193.598 40.59C193.766 40.702 194.014 40.7953 194.34 40.87L196.328 41.318C196.87 41.4487 197.266 41.6493 197.518 41.92C197.78 42.1907 197.91 42.6153 197.91 43.194C197.91 43.754 197.803 44.174 197.588 44.454C197.383 44.734 197.066 44.9207 196.636 45.014C196.207 45.1073 195.661 45.154 194.998 45.154C194.756 45.154 194.392 45.1447 193.906 45.126C193.43 45.1073 192.903 45.0513 192.324 44.958L192.408 44.09C192.632 44.0993 192.87 44.1133 193.122 44.132C193.374 44.1413 193.636 44.146 193.906 44.146C194.186 44.146 194.471 44.146 194.76 44.146C195.274 44.146 195.675 44.1227 195.964 44.076C196.254 44.0293 196.459 43.9407 196.58 43.81C196.702 43.67 196.762 43.4647 196.762 43.194C196.762 42.858 196.664 42.634 196.468 42.522C196.272 42.41 196.011 42.3167 195.684 42.242L193.724 41.794C193.351 41.7007 193.052 41.5793 192.828 41.43C192.604 41.2713 192.441 41.0707 192.338 40.828C192.236 40.576 192.184 40.2633 192.184 39.89C192.184 39.358 192.278 38.9567 192.464 38.686C192.651 38.4153 192.94 38.2333 193.332 38.14C193.724 38.0467 194.228 38.0047 194.844 38.014Z" fill="#616161"/>
<g clip-path="url(#clip0_217_930)">
<path d="M128.039 0H110V18H128.039V0Z" fill="#00B67A"/>
<path d="M147.581 0H129.542V18H147.581V0Z" fill="#00B67A"/>
<path d="M167.123 0H149.084V18H167.123V0Z" fill="#00B67A"/>
<path d="M186.665 0H168.626V18H186.665V0Z" fill="#00B67A"/>
<path d="M206.207 0H197.188V18H206.207V0Z" fill="#DCDCE6"/>
<path d="M197.187 0H188.168V18H197.187V0Z" fill="#00B67A"/>
<path d="M119.02 12.1313L121.763 11.4376L122.909 14.9626L119.02 12.1313ZM125.333 7.5751H120.504L119.02 3.0376L117.535 7.5751H112.706L116.614 10.3876L115.13 14.9251L119.038 12.1126L121.444 10.3876L125.333 7.5751Z" fill="white"/>
<path d="M138.562 12.1313L141.305 11.4376L142.451 14.9626L138.562 12.1313ZM144.875 7.5751H140.046L138.562 3.0376L137.077 7.5751H132.248L136.156 10.3876L134.672 14.9251L138.58 12.1126L140.986 10.3876L144.875 7.5751Z" fill="white"/>
<path d="M158.104 12.1313L160.847 11.4376L161.993 14.9626L158.104 12.1313ZM164.417 7.5751H159.588L158.104 3.0376L156.619 7.5751H151.79L155.698 10.3876L154.214 14.9251L158.122 12.1126L160.528 10.3876L164.417 7.5751Z" fill="white"/>
<path d="M177.646 12.1313L180.389 11.4376L181.535 14.9626L177.646 12.1313ZM183.959 7.5751H179.13L177.646 3.0376L176.161 7.5751H171.332L175.24 10.3876L173.756 14.9251L177.664 12.1126L180.07 10.3876L183.959 7.5751Z" fill="white"/>
<path d="M197.188 12.1313L199.931 11.4376L201.077 14.9626L197.188 12.1313ZM203.501 7.5751H198.672L197.188 3.0376L195.703 7.5751H190.874L194.782 10.3876L193.298 14.9251L197.206 12.1126L199.612 10.3876L203.501 7.5751Z" fill="white"/>
</g>
<path d="M5.296 0.815999C6.21333 0.815999 6.95467 0.911999 7.52 1.104C8.096 1.296 8.512 1.62667 8.768 2.096C9.03467 2.55467 9.168 3.20533 9.168 4.048C9.168 4.60267 9.09867 5.07733 8.96 5.472C8.832 5.856 8.61333 6.16533 8.304 6.4C8.00533 6.624 7.6 6.768 7.088 6.832V6.912C7.26933 6.95467 7.456 7.04 7.648 7.168C7.85067 7.28533 8.032 7.456 8.192 7.68C8.36267 7.904 8.49067 8.192 8.576 8.544L9.584 12H7.472L6.56 8.592C6.44267 8.208 6.28267 7.94133 6.08 7.792C5.87733 7.632 5.6 7.552 5.248 7.552C4.55467 7.552 3.96267 7.552 3.472 7.552C2.98133 7.54133 2.57067 7.53067 2.24 7.52C1.92 7.50933 1.63733 7.504 1.392 7.504L1.44 5.984H5.248C5.728 5.97333 6.10667 5.92 6.384 5.824C6.66133 5.71733 6.85867 5.536 6.976 5.28C7.09333 5.01333 7.152 4.64 7.152 4.16C7.152 3.69067 7.09333 3.328 6.976 3.072C6.85867 2.816 6.66133 2.64 6.384 2.544C6.10667 2.43733 5.728 2.384 5.248 2.384C4.30933 2.384 3.504 2.38933 2.832 2.4C2.16 2.41067 1.70133 2.42133 1.456 2.432L1.232 0.959999C1.65867 0.917333 2.05867 0.885333 2.432 0.863999C2.816 0.842666 3.232 0.832 3.68 0.832C4.128 0.821333 4.66667 0.815999 5.296 0.815999ZM3.2 0.959999V12H1.232V0.959999H3.2ZM14.6701 3.952C15.9395 3.952 16.8515 4.176 17.4061 4.624C17.9608 5.06133 18.2435 5.712 18.2541 6.576C18.2648 7.29067 18.0941 7.83467 17.7421 8.208C17.4008 8.57067 16.8301 8.752 16.0301 8.752H11.5501V7.552H15.5021C15.8648 7.552 16.0941 7.456 16.1901 7.264C16.2968 7.072 16.3501 6.83733 16.3501 6.56C16.3395 6.12267 16.2115 5.81867 15.9661 5.648C15.7315 5.47733 15.3261 5.392 14.7501 5.392C14.2488 5.392 13.8595 5.46133 13.5821 5.6C13.3048 5.73867 13.1075 5.98933 12.9901 6.352C12.8835 6.71467 12.8301 7.23733 12.8301 7.92C12.8301 8.64533 12.8995 9.20533 13.0381 9.6C13.1768 9.99467 13.4061 10.2667 13.7261 10.416C14.0461 10.5547 14.4728 10.624 15.0061 10.624C15.4008 10.624 15.8541 10.608 16.3661 10.576C16.8888 10.544 17.3901 10.5013 17.8701 10.448L18.0621 11.68C17.7741 11.7973 17.4435 11.8933 17.0701 11.968C16.6968 12.0427 16.3075 12.096 15.9021 12.128C15.5075 12.1707 15.1341 12.192 14.7821 12.192C13.8221 12.192 13.0488 12.0533 12.4621 11.776C11.8861 11.488 11.4648 11.04 11.1981 10.432C10.9421 9.824 10.8141 9.04 10.8141 8.08C10.8141 7.04533 10.9421 6.22933 11.1981 5.632C11.4648 5.024 11.8808 4.592 12.4461 4.336C13.0221 4.08 13.7635 3.952 14.6701 3.952ZM27.4518 4.144L24.7478 11.536C24.6944 11.6747 24.6091 11.7867 24.4918 11.872C24.3851 11.9573 24.2518 12 24.0918 12H22.3958C22.2464 12 22.1131 11.9573 21.9958 11.872C21.8784 11.7867 21.7931 11.6747 21.7398 11.536L19.0358 4.144H21.0998L22.7478 9.296C22.8224 9.53067 22.8918 9.77067 22.9557 10.016C23.0198 10.2507 23.0784 10.48 23.1318 10.704H23.3398C23.4144 10.4693 23.4838 10.2347 23.5477 10C23.6224 9.76533 23.6918 9.53067 23.7558 9.296L25.4038 4.144H27.4518ZM30.7283 4.144V12H28.8083V4.144H30.7283ZM30.2003 0.735999C30.5843 0.735999 30.7763 0.927999 30.7763 1.312V2.208C30.7763 2.592 30.5843 2.784 30.2003 2.784H29.3363C28.9523 2.784 28.7603 2.592 28.7603 2.208V1.312C28.7603 0.927999 28.9523 0.735999 29.3363 0.735999H30.2003ZM36.467 3.952C37.7363 3.952 38.6483 4.176 39.203 4.624C39.7577 5.06133 40.0403 5.712 40.051 6.576C40.0617 7.29067 39.891 7.83467 39.539 8.208C39.1977 8.57067 38.627 8.752 37.827 8.752H33.347V7.552H37.299C37.6617 7.552 37.891 7.456 37.987 7.264C38.0937 7.072 38.147 6.83733 38.147 6.56C38.1363 6.12267 38.0083 5.81867 37.763 5.648C37.5283 5.47733 37.123 5.392 36.547 5.392C36.0457 5.392 35.6563 5.46133 35.379 5.6C35.1017 5.73867 34.9043 5.98933 34.787 6.352C34.6803 6.71467 34.627 7.23733 34.627 7.92C34.627 8.64533 34.6963 9.20533 34.835 9.6C34.9737 9.99467 35.203 10.2667 35.523 10.416C35.843 10.5547 36.2697 10.624 36.803 10.624C37.1977 10.624 37.651 10.608 38.163 10.576C38.6857 10.544 39.187 10.5013 39.667 10.448L39.859 11.68C39.571 11.7973 39.2403 11.8933 38.867 11.968C38.4937 12.0427 38.1043 12.096 37.699 12.128C37.3043 12.1707 36.931 12.192 36.579 12.192C35.619 12.192 34.8457 12.0533 34.259 11.776C33.683 11.488 33.2617 11.04 32.995 10.432C32.739 9.824 32.611 9.04 32.611 8.08C32.611 7.04533 32.739 6.22933 32.995 5.632C33.2617 5.024 33.6777 4.592 34.243 4.336C34.819 4.08 35.5603 3.952 36.467 3.952ZM53.7915 4.144L51.7115 11.488C51.6688 11.6373 51.5835 11.76 51.4555 11.856C51.3275 11.952 51.1782 12 51.0075 12H49.4555C49.2848 12 49.1302 11.9467 48.9915 11.84C48.8528 11.7333 48.7728 11.5893 48.7515 11.408L47.7115 6.592C47.6688 6.37867 47.6315 6.16533 47.5995 5.952C47.5782 5.73867 47.5462 5.52533 47.5035 5.312H47.2955C47.2635 5.52533 47.2262 5.73867 47.1835 5.952C47.1515 6.16533 47.1142 6.37867 47.0715 6.592L46.0475 11.408C46.0155 11.5893 45.9302 11.7333 45.7915 11.84C45.6635 11.9467 45.5088 12 45.3275 12H43.7915C43.6208 12 43.4715 11.952 43.3435 11.856C43.2155 11.76 43.1355 11.6373 43.1035 11.488L41.0075 4.144H42.9755L44.2875 9.536C44.3302 9.73867 44.3675 9.94667 44.3995 10.16C44.4422 10.3627 44.4795 10.5653 44.5115 10.768H44.7035C44.7568 10.5653 44.7995 10.3627 44.8315 10.16C44.8742 9.94667 44.9168 9.73867 44.9595 9.536L45.9995 4.736C46.0315 4.56533 46.1062 4.42667 46.2235 4.32C46.3515 4.20267 46.5115 4.144 46.7035 4.144H48.1115C48.2822 4.144 48.4315 4.20267 48.5595 4.32C48.6875 4.42667 48.7675 4.57067 48.7995 4.752L49.8395 9.536C49.8715 9.73867 49.9088 9.94133 49.9515 10.144C50.0048 10.3467 50.0475 10.5547 50.0795 10.768H50.2715C50.3142 10.5547 50.3515 10.352 50.3835 10.16C50.4155 9.95733 50.4582 9.74933 50.5115 9.536L51.8235 4.144H53.7915ZM62.7209 0.752C63.5742 0.752 64.2942 0.848 64.8809 1.04C65.4675 1.22133 65.9369 1.53067 66.2889 1.968C66.6409 2.40533 66.8969 2.992 67.0569 3.728C67.2275 4.464 67.3129 5.38133 67.3129 6.48C67.3129 7.568 67.2275 8.48533 67.0569 9.232C66.8969 9.968 66.6409 10.5547 66.2889 10.992C65.9369 11.4293 65.4675 11.744 64.8809 11.936C64.2942 12.1173 63.5742 12.208 62.7209 12.208C61.8889 12.208 61.1795 12.1173 60.5929 11.936C60.0062 11.744 59.5315 11.4293 59.1689 10.992C58.8062 10.5547 58.5449 9.968 58.3849 9.232C58.2249 8.48533 58.1449 7.568 58.1449 6.48C58.1449 5.38133 58.2249 4.464 58.3849 3.728C58.5449 2.992 58.8062 2.40533 59.1689 1.968C59.5315 1.53067 60.0062 1.22133 60.5929 1.04C61.1795 0.848 61.8889 0.752 62.7209 0.752ZM62.7209 2.384C62.0915 2.384 61.5955 2.512 61.2329 2.768C60.8809 3.01333 60.6302 3.43467 60.4809 4.032C60.3315 4.61867 60.2569 5.43467 60.2569 6.48C60.2569 7.52533 60.3315 8.34667 60.4809 8.944C60.6302 9.53067 60.8809 9.952 61.2329 10.208C61.5955 10.4533 62.0915 10.576 62.7209 10.576C63.3609 10.576 63.8569 10.4533 64.2089 10.208C64.5715 9.952 64.8275 9.53067 64.9769 8.944C65.1262 8.34667 65.2009 7.52533 65.2009 6.48C65.2009 5.43467 65.1262 4.61867 64.9769 4.032C64.8275 3.43467 64.5715 3.01333 64.2089 2.768C63.8569 2.512 63.3609 2.384 62.7209 2.384ZM74.4123 3.952C75.8736 3.952 76.6042 4.672 76.6042 6.112V12H74.6683V6.704C74.6683 6.27733 74.5936 5.984 74.4443 5.824C74.2949 5.664 74.0443 5.584 73.6923 5.584C73.2976 5.584 72.8923 5.67467 72.4763 5.856C72.0603 6.02667 71.5589 6.27733 70.9723 6.608L70.8923 5.44C71.4683 4.96 72.0549 4.592 72.6523 4.336C73.2496 4.08 73.8363 3.952 74.4123 3.952ZM70.8283 4.144L71.0203 5.68L71.1803 5.904V12H69.2443V4.144H70.8283Z" fill="#1E1C2A"/>
<g clip-path="url(#clip1_217_930)">
<path d="M23.6475 31.7453H32.7587V33.4257H29.1767V42.874H27.2057V33.4257H23.6392V31.7446H23.6469L23.6475 31.7453ZM32.3698 34.8156H34.0541V36.3711H34.0856C34.1415 36.1511 34.2444 35.9389 34.3954 35.7344C34.7185 35.2961 35.1557 34.9564 35.6587 34.7528C35.9141 34.6509 36.1862 34.5976 36.4609 34.5956C36.6667 34.5956 36.8184 34.6033 36.8981 34.6117C36.9772 34.6195 37.0562 34.635 37.1437 34.6428V36.3549C37.0147 36.3322 36.885 36.3139 36.7547 36.2999C36.6254 36.2845 36.4954 36.2767 36.3652 36.2766C36.063 36.2766 35.7776 36.3394 35.5076 36.4578C35.2376 36.5749 35.0068 36.7555 34.8088 36.9839C34.5975 37.2393 34.4357 37.5323 34.3318 37.8477C34.2129 38.1932 34.1569 38.5853 34.1569 39.0337V42.8663H32.3621V34.8156H32.3698ZM45.3973 42.8747H43.6339V41.7514H43.6018C43.3794 42.1603 43.0541 42.4826 42.6169 42.7259C42.1798 42.9692 41.7349 43.0947 41.2824 43.0947C40.2101 43.0947 39.4309 42.8359 38.9552 42.3092C38.4782 41.7831 38.2397 40.9898 38.2397 39.9293V34.8162H40.0352V39.7565C40.0352 40.4637 40.1702 40.9665 40.4486 41.257C40.7186 41.5476 41.1075 41.697 41.5999 41.697C41.9812 41.697 42.291 41.642 42.5449 41.5236C42.7995 41.4059 43.0059 41.257 43.1569 41.0603C43.3157 40.872 43.4269 40.6365 43.4989 40.3693C43.5697 40.102 43.6018 39.8115 43.6018 39.4977V34.824H45.3973V42.8747ZM48.4554 40.291C48.5113 40.8086 48.7093 41.171 49.0513 41.3826C49.4004 41.587 49.8137 41.697 50.2984 41.697C50.4656 41.697 50.6559 41.6809 50.8706 41.6576C51.0847 41.6336 51.291 41.5786 51.4742 41.5087C51.6645 41.4376 51.8149 41.3276 51.9422 41.1865C52.0618 41.0442 52.1171 40.8643 52.1094 40.6365C52.1083 40.5308 52.0852 40.4265 52.0414 40.3304C51.9977 40.2343 51.9343 40.1486 51.8554 40.0787C51.696 39.9299 51.498 39.8199 51.2512 39.7255C50.9762 39.6296 50.6947 39.5534 50.409 39.4977C50.0914 39.4349 49.7739 39.3637 49.4486 39.2932C49.1209 39.2219 48.7973 39.1326 48.4792 39.026C48.1808 38.9297 47.8994 38.7867 47.6454 38.6022C47.3978 38.4283 47.196 38.1964 47.0572 37.9266C46.9067 37.6516 46.8347 37.3139 46.8347 36.9056C46.8347 36.4656 46.9459 36.1045 47.1607 35.8056C47.3772 35.5091 47.6568 35.2651 47.979 35.0912C48.3253 34.907 48.6975 34.7771 49.0828 34.7062C49.4878 34.6357 49.8774 34.5962 50.2425 34.5962C50.6636 34.5962 51.0686 34.6435 51.4504 34.7302C51.8201 34.8098 52.1725 34.956 52.4906 35.1617C52.8004 35.3585 53.0544 35.6173 53.2614 35.9317C53.4677 36.2456 53.595 36.6306 53.6503 37.0783H51.7757C51.6883 36.6545 51.4974 36.364 51.1882 36.2223C50.8783 36.0735 50.5209 36.0023 50.1236 36.0023C49.9963 36.0023 49.8452 36.01 49.671 36.034C49.5031 36.0565 49.338 36.0959 49.1779 36.1517C49.0317 36.206 48.899 36.2916 48.789 36.4028C48.7356 36.4608 48.6941 36.5289 48.6669 36.603C48.6396 36.6772 48.6272 36.756 48.6302 36.835C48.6302 37.055 48.7093 37.2278 48.8604 37.3611C49.0114 37.4944 49.2101 37.6044 49.4563 37.6989C49.7025 37.7856 49.9809 37.8639 50.2984 37.9266C50.616 37.9894 50.9413 38.0599 51.2756 38.1311C51.6009 38.2016 51.9184 38.2961 52.2367 38.3977C52.5542 38.4999 52.8319 38.6416 53.0788 38.8222C53.325 39.0027 53.5237 39.2227 53.6741 39.4899C53.8252 39.7565 53.9049 40.0943 53.9049 40.487C53.9049 40.9659 53.7937 41.367 53.5706 41.7048C53.3488 42.0348 53.0627 42.3092 52.713 42.5136C52.3469 42.7259 51.9502 42.8796 51.5372 42.9692C51.1171 43.0622 50.6882 43.1095 50.2579 43.1102C49.7761 43.1157 49.2957 43.0576 48.8289 42.9375C48.3917 42.8197 48.0105 42.6469 47.6929 42.4198C47.3791 42.1903 47.121 41.892 46.9382 41.5476C46.7557 41.202 46.6599 40.7853 46.6444 40.3065H48.4554V40.291ZM54.3812 34.8169H55.7396V32.3969H57.5351V34.8169H59.1551V36.1433H57.5357V40.4482C57.5357 40.6359 57.5434 40.7937 57.5595 40.9348C57.5749 41.0687 57.6148 41.1865 57.6707 41.2803C57.7315 41.3789 57.8238 41.4538 57.9324 41.4926C58.0519 41.5398 58.2024 41.5637 58.4094 41.5637C58.536 41.5637 58.6633 41.5637 58.7906 41.5553C58.9179 41.5476 59.0445 41.532 59.1718 41.5003V42.8747C58.9732 42.8986 58.7745 42.9142 58.5919 42.9375C58.3995 42.96 58.2058 42.9706 58.0121 42.9692C57.5357 42.9692 57.1545 42.9219 56.8678 42.8359C56.5824 42.7492 56.3516 42.6159 56.1928 42.4431C56.0257 42.2703 55.9228 42.0581 55.8592 41.7986C55.7973 41.5068 55.7628 41.2098 55.7563 40.9115V36.1582H54.3979V34.8149H54.3819L54.3812 34.8169ZM60.426 34.8169H62.1264V35.9078H62.1585C62.4118 35.4367 62.7615 35.1067 63.2141 34.9029C63.6767 34.6959 64.1781 34.5913 64.6843 34.5962C65.3272 34.5962 65.8832 34.7062 66.3602 34.934C66.8366 35.154 67.2339 35.4607 67.5514 35.8528C67.869 36.2456 68.0998 36.7011 68.2586 37.22C68.4204 37.7599 68.5008 38.3211 68.4971 38.8849C68.4971 39.4265 68.4257 39.9526 68.2824 40.456C68.1507 40.9416 67.9327 41.3991 67.6389 41.8064C67.3501 42.199 66.975 42.5191 66.5428 42.7414C66.0979 42.9769 65.5817 43.0947 64.9781 43.0947C64.7142 43.0944 64.4509 43.0706 64.1912 43.0235C63.9322 42.9765 63.6793 42.9003 63.4372 42.7964C63.1967 42.6954 62.9717 42.5603 62.7692 42.3952C62.5694 42.2347 62.3952 42.0442 62.253 41.8303H62.2209V45.8518H60.426V34.8156V34.8169ZM66.7016 38.8532C66.7019 38.495 66.6539 38.1385 66.5589 37.7933C66.4709 37.4663 66.3254 37.1578 66.1294 36.8823C65.9435 36.6202 65.7022 36.4028 65.4229 36.2456C65.123 36.0824 64.7867 35.9987 64.4458 36.0023C63.6911 36.0023 63.1189 36.2611 62.7377 36.78C62.3565 37.2983 62.1656 37.99 62.1656 38.8532C62.1656 39.2615 62.2138 39.6387 62.3167 39.9843C62.4195 40.3298 62.5629 40.6287 62.7692 40.8798C62.9685 41.1315 63.2064 41.3276 63.4847 41.4686C63.7624 41.6181 64.0884 41.6886 64.4535 41.6886C64.8669 41.6886 65.2082 41.6026 65.4943 41.4376C65.7713 41.2772 66.0099 41.0573 66.1931 40.7937C66.3757 40.5265 66.5113 40.2276 66.5904 39.8905C66.6635 39.5496 66.7008 39.2019 66.7016 38.8532ZM69.8709 31.7453H71.6664V33.4263H69.8709V31.7453ZM69.8709 34.8162H71.6664V42.8747H69.8709V34.8162ZM73.2709 31.7453H75.0664V42.8747H73.2709V31.7453ZM80.5712 43.0947C79.9194 43.0947 79.3395 42.9847 78.8317 42.7731C78.3448 42.5721 77.9041 42.2726 77.5369 41.8931C77.18 41.506 76.9066 41.0486 76.734 40.5498C76.5451 39.9992 76.4511 39.4202 76.4563 38.8377C76.4563 38.2249 76.5514 37.66 76.734 37.1411C76.9067 36.6426 77.1801 36.1854 77.5369 35.7985C77.886 35.4212 78.3232 35.1307 78.8317 34.9185C79.3395 34.7062 79.9194 34.5962 80.5712 34.5962C81.2224 34.5962 81.8023 34.7062 82.3108 34.9185C82.8193 35.1307 83.2481 35.4296 83.6055 35.7985C83.9624 36.1853 84.2356 36.6425 84.4078 37.1411C84.5904 37.6594 84.6855 38.2249 84.6855 38.8377C84.6855 39.4589 84.5904 40.0315 84.4078 40.5498C84.2357 41.0487 83.9625 41.5061 83.6055 41.8931C83.2558 42.2703 82.8193 42.5609 82.3108 42.7731C81.8023 42.9847 81.2224 43.0947 80.5712 43.0947ZM80.5712 41.6886C80.9685 41.6886 81.3176 41.6026 81.6114 41.4376C81.8977 41.2771 82.1448 41.0543 82.3346 40.7853C82.5249 40.5187 82.6599 40.212 82.7557 39.8743C82.8431 39.5365 82.8907 39.191 82.8907 38.8377C82.8907 38.4922 82.8431 38.1544 82.7557 37.8089C82.6738 37.4811 82.5309 37.172 82.3346 36.8978C82.1444 36.6314 81.8973 36.4114 81.6114 36.254C81.3176 36.089 80.9685 36.0023 80.5712 36.0023C80.1739 36.0023 79.8242 36.089 79.5304 36.254C79.2464 36.4138 78.9999 36.6334 78.8079 36.8978C78.6143 37.1736 78.4717 37.4822 78.3868 37.8089C78.2988 38.1447 78.2532 38.4904 78.2512 38.8377C78.2512 39.191 78.2994 39.5365 78.3868 39.8743C78.4742 40.212 78.6169 40.5187 78.8079 40.7853C78.9982 41.0526 79.2367 41.2726 79.5304 41.4376C79.8242 41.6103 80.1739 41.6886 80.5712 41.6886ZM85.2101 34.8169H86.5684V32.3969H88.3639V34.8169H89.9839V36.1433H88.3639V40.4482C88.3639 40.6359 88.3717 40.7937 88.3871 40.9348C88.4032 41.0687 88.443 41.1865 88.4989 41.2803C88.5596 41.379 88.6519 41.4539 88.7606 41.4926C88.8802 41.5398 89.0306 41.5637 89.2376 41.5637C89.3642 41.5637 89.4915 41.5637 89.6188 41.5553C89.7461 41.5476 89.8727 41.532 90 41.5003V42.8747C89.8014 42.8986 89.6027 42.9142 89.4202 42.9375C89.2277 42.96 89.034 42.9706 88.8403 42.9692C88.3639 42.9692 87.9821 42.9219 87.696 42.8359C87.4106 42.7492 87.1798 42.6159 87.021 42.4431C86.8545 42.2703 86.751 42.0581 86.6874 41.7986C86.6256 41.5068 86.5912 41.2098 86.5845 40.9115V36.1582H85.2262V34.8149H85.2101V34.8169Z" fill="#032B52"/>
<path d="M21.5505 31.7446H13.3213L10.7794 24L8.22857 31.7453L0 31.7369L6.6645 36.5277L4.11493 44.2639L10.7794 39.4809L17.4362 44.2639L14.8944 36.5277L21.5505 31.7446Z" fill="#04DA8D"/>
<path d="M15.4657 38.2799L14.8936 36.5283L10.7793 39.4815L15.4657 38.2799Z" fill="#126849"/>
</g>
<defs>
<clipPath id="clip0_217_930">
<rect width="96.2069" height="18" fill="white" transform="translate(110)"/>
</clipPath>
<clipPath id="clip1_217_930">
<rect width="90" height="22" fill="white" transform="translate(0 24)"/>
</clipPath>
</defs>
</svg>
